STARTFONT 2.3
FONT -FontForge-Bungee Shade-Book-R-Normal--36-360-72-72-P-308-ISO10646-1
SIZE 36 72 72  4
FONTBOUNDINGBOX 92 92 -22 -33
COMMENT "Generated by fontforge, http://fontforge.sourceforge.net"
COMMENT "Copyright 2008 The Bungee Project Authors (david@djr.com)"
STARTPROPERTIES 40
FOUNDRY "FontForge"
FAMILY_NAME "Bungee Shade"
WEIGHT_NAME "Book"
SLANT "R"
SETWIDTH_NAME "Normal"
ADD_STYLE_NAME ""
PIXEL_SIZE 36
POINT_SIZE 360
RESOLUTION_X 72
RESOLUTION_Y 72
SPACING "P"
AVERAGE_WIDTH 308
CHARSET_REGISTRY "ISO10646"
CHARSET_ENCODING "1"
FONTNAME_REGISTRY ""
CHARSET_COLLECTIONS "ISO8859-2 ISO8859-9 ISO8859-4 ISO10646-1"
BITS_PER_PIXEL 4
FONT_NAME "BungeeShade-Regular"
FACE_NAME "Bungee Shade"
COPYRIGHT "Copyright 2008 The Bungee Project Authors (david@djr.com)"
FONT_VERSION "1.000;PS 1.0;hotconv 1.0.72;makeotf.lib2.5.5900"
FONT_ASCENT 31
FONT_DESCENT 5
UNDERLINE_POSITION 0
UNDERLINE_THICKNESS 0
X_HEIGHT 25
CAP_HEIGHT 25
RAW_ASCENT 860
RAW_DESCENT 140
NORM_SPACE 12
RELATIVE_WEIGHT 40
RELATIVE_SETWIDTH 50
SUPERSCRIPT_X 0
SUPERSCRIPT_Y 12
SUPERSCRIPT_SIZE 21
SUBSCRIPT_X 0
SUBSCRIPT_Y 2
SUBSCRIPT_SIZE 21
AVG_LOWERCASE_WIDTH 293
AVG_UPPERCASE_WIDTH 299
ENDPROPERTIES
CHARS 1065
STARTCHAR space
ENCODING 32
SWIDTH 325 0
DWIDTH 12 0
BBX 1 1 0 0
BITMAP
00
ENDCHAR
STARTCHAR exclam
ENCODING 33
SWIDTH 524 0
DWIDTH 19 0
BBX 15 30 2 -4
BITMAP
0000375555555550
0007F20000000050
01AFF20000000050
3DFFF30005000050
CFFFF40005000050
DFFFF40005000050
CFFFF50005000050
CFFFF50005000050
BFFFF60005000050
BFFFF70005000050
AFFFF70005000050
9FFFF80005000050
9FFFF80005000050
8FFFF90000000050
8FFFFA0000000050
7FFFFB0000000230
7FFFFFA888889800
6FFFFFFFFFFF9000
6FFFFEAAAAA95630
4FFFF40000000060
08DFF30000000050
04EFF30003000050
5FFFF30005000050
BFFFF30000000050
CFFFF30000000050
CFFFFA4444444560
CFFFFFFFFFFFF800
CFFFFFFFFFFE5000
CFFFFFFFFFD30000
6EFFFFFFFA100000
ENDCHAR
STARTCHAR quotedbl
ENCODING 34
SWIDTH 746 0
DWIDTH 27 0
BBX 27 19 0 7
BITMAP
0000056555555570365555555800
00008D0000000054E00000000420
001AFD000000006FF00000000420
01CFFD000000007FF00000000410
1DFFFE000050007FF10005000410
3FFFFE000050007FF10005000510
2FFFFE000050008FF20005000500
2FFFFF000050008FF20005000500
2FFFFF000050009FF20005000500
1FFFFF100050009FF30005000500
1FFFFF100050009FF30005000500
0FFFFF10000000AFF40000000500
0FFFFF20000000AFF40000000500
0FFFFF60000001DFF80000001600
0EFFFFFFFFFFFFFFFFFFFFFFC100
0EFFFFFFFFFFEFFFFFFFFFFA0000
0DFFFFFFFFF5BFFFFFFFFF700000
0BFFFFFFFE308FFFFFFFF5000000
0145555541000455555410000000
ENDCHAR
STARTCHAR numbersign
ENCODING 35
SWIDTH 850 0
DWIDTH 31 0
BBX 31 30 0 -4
BITMAP
00000000003655556400175555570000
0000000006D000000503D50000051000
000000009FB00000056EF30000050000
0000001BFF9004000CFFF10040050000
000000CCAA5005001AAA900230055500
000002C0000005000000000510000320
00003DB0000005000000000500000240
0005EFB0006669666666666966400240
008FFFB0000023000000000500000240
03FFFFB0000051000000000500000230
05FFFFD0000050000000001500000420
05FFFFFED6005002DDDB0033009DD500
05FFFFFFF5005005FFFB005100DE4000
05FFFFFFF2005007FFF9005000D20000
02FFFFBAA0005006AAA5005001754000
0035D700000230000000005000006000
001BF600000410000000005000005000
02DFF600255955555555569552005000
3EFFF600000500000000023000005000
9FFFF600000500000000051000005000
9FFFFB33000500133310050003338000
9FFFFFFE000500AFFF6005003FFC1000
9FFFFFFC001200CFFF4003005FA00000
9FFFFFFA000000EFFF20000077000000
5FFFFFF9000001FFFF00000060000000
013FFFFD544449FFFF84444550000000
003FFFFFFFFFCCFFFFFFFFF600000000
005FFFFFFFF90DFFFFFFFE3000000000
006FFFFFFF700FFFFFFFC20000000000
003DFFFFD50009FFFFFA100000000000
ENDCHAR
STARTCHAR dollar
ENCODING 36
SWIDTH 750 0
DWIDTH 27 0
BBX 26 38 1 -8
BITMAP
00000000000555555560000000
0000000000A500000024000000
000000001CF300000005000000
00000003DFF300000005000000
0000004EC73000150005555700
000000B5000000150000000320
00001A30000000150000000320
0002C800002666676666300320
003EF300044000000000000320
04FFF000060000000000000320
1EFFF000140002555555555900
8FFFF00014000BFFFFFFFFC100
DFFFF000140008FFFFFFF90000
FFFFF00014000002468AB30000
FFFFF000060000000000037200
FFFFF100054000000000000430
FFFFF500002555530000000060
FFFFFC00000000035553000033
FFFFFFA1000000000003500005
EFFFFFFE841000000000500005
AFFFFFFFFFFDB9751000320005
3FFFFFFFFFFFFFFFC000330005
05FFFFFFFFFFFFFFA000330005
003AF400000000000000420005
0009F000000000000000600005
01BFF000000000000005400032
3DFFF000455555675662000060
DFFFF000000000150000000430
FFFFF000000000150000006400
FFFFF6333330001400058B3000
FFFFFFFFFFF30000000FC20000
FFFFFFFFFFF30000000A100000
FFFFFFFFFFF700000043000000
9FFFFFFFFFFFFFFFFF60000000
000000CFFFFFFFFFE400000000
000000CFFFFFFFFC2000000000
0000009FFFFFFFA10000000000
00000004555554000000000000
ENDCHAR
STARTCHAR percent
ENCODING 37
SWIDTH 1131 0
DWIDTH 41 0
BBX 41 30 0 -4
BITMAP
000000035555566772000076555562000000000000
00000072036666502A304D90000014000000000000
00002C204400002601AAFF50020041000000000000
0004EB0050000005009FFF10230050000000000000
006FFA00501DD205108FFD00500050000000000000
08FFFA00502FF404108FF900500140000000000000
2FFFFA00502FF404108FF500500410000000000000
5FFFFA00502FF404108FF102400500000000000000
5FFFFA00502FF404108FC005100500000000000000
5FFFFA00501EE305108F9005001300000000000000
5FFFFA0060000006008F5005004002555555530000
5FFFFB0044000026009F1014004284000000037200
5FFFFF200366665000DC0051009C10056666200700
5FFFFFC2000000001AF8005001F600710000620330
4FFFFFFFB765567AEFF4005005F302300000050050
1FFFFFFFFFFFFFFFFFF1015009F304107FA0050050
09FFFFFFFFFFFEAFFFC004100DF304109FC0050050
01AFFFFFFFFFD39FFF8005001FF304109FC0050050
00049DEFEDA600CFFF4005005FF304109FC0050050
00000000000001FFFF1015009FF304109FC0050050
00000000000005FFFC004200DFF304106D90050050
00000000000008FFF8005002FFF302300000060050
0000000000000CFFF4002006FFF500710000620240
0000000000001FFFF0000009FFFA00166666200610
0000000000004FFFC000000DFFFF70000000005500
0000000000008FFFF97777BFFFFFFD9655568C4000
000000000000CFFFFFFFFBBFFFFFFFFFFFFFD20000
000000000001FFFFFFFF906FFFFFFFFFFFFB100000
000000000003FFFFFFF8000AFFFFFFFFFF90000000
000000000001CFFFFE6000005ADEFFEC9300000000
ENDCHAR
STARTCHAR ampersand
ENCODING 38
SWIDTH 866 0
DWIDTH 31 0
BBX 32 30 0 -4
BITMAP
00000000003655555555555600000000
00000000074000000000000500000000
00000002A20000000000000510000000
0000003E600004666666300510000000
000006FF100073000000000510000000
00008FFE000150000000000700000000
0005FFFD00042001CEEEEEEB00000000
000CFFFE00041003FFFFFFA100000000
001FFFFF00041001DFFFF70000000000
002FFFFF40042000005E400000000000
002FFFFFC10150000015000000000000
001FFFFFA50062000005055555555550
000EFFE4001558740007C50000000032
0009FF5001610000000FF40000000023
0005FD0007000000001FF40026630023
007FF90006000034448FF40032000023
05FFF700140007FFFFFFF40032000023
1EFFF700140009FFFFFFF40032001371
4FFFF700140005EDDFFFD10032004D20
7FFFF700050000000000000042004200
8FFFF800060000000000000060005000
8FFFFB00035000000000000260006000
8FFFFF20002665555555555400006000
7FFFFFB0000000000000000000061000
4FFFFFFB200000000000000000620000
1EFFFFFFFA754444444444469A200000
09FFFFFFFFFFFFFFFFFFFFFFA1000000
01DFFFFFFFFFFFFFFFFFFFF800000000
002CFFFFFFFFFFFFFFFFFE5000000000
00005BEFFFFFFFFFFFEC810000000000
ENDCHAR
STARTCHAR quotesingle
ENCODING 39
SWIDTH 456 0
DWIDTH 16 0
BBX 15 19 1 7
BITMAP
0000275555555720
0004E30000000150
006FF30000000150
08FFF30000000140
8FFFF40005000240
CFFFF40005000240
CFFFF50005000230
CFFFF50005000330
BFFFF60005000320
BFFFF60005000420
AFFFF60005000420
AFFFF70000000410
AFFFF70000000510
9FFFFB1000000700
9FFFFFFFFFFFD300
8FFFFFFFFFFC1000
8FFFFFFFFFA00000
5FFFFFFFF8000000
0355555420000000
ENDCHAR
STARTCHAR parenleft
ENCODING 40
SWIDTH 529 0
DWIDTH 19 0
BBX 19 37 0 -7
BITMAP
00000000002566666600
00000000463000000240
00000007300000000050
000001A3000000000050
00002CA0000166400050
0003DF40004610000050
003EFF00006000000150
01EFFE00024000011520
08FFFD000320009FE300
0CFFFD00032000ED2000
0FFFFD00032000A10000
1FFFFD00032000500000
2FFFFD00032000500000
2FFFFD00032000500000
2FFFFD00032000500000
2FFFFD00032000500000
2FFFFD00032000500000
2FFFFD00032000500000
2FFFFD00032000500000
2FFFFD00032000500000
2FFFFD00032000500000
2FFFFD00032000500000
2FFFFD00032000500000
2FFFFD00032000500000
2FFFFD00032000600000
2FFFFD00032000455600
2FFFFF00024000000240
2FFFFF20006000000050
2FFFFF70004610000050
2FFFFFE1000156400050
1FFFFFFA000000000050
0DFFFFFFB30000000140
09FFFFFFFFD976555710
03FFFFFFFFFFFFFFC100
007FFFFFFFFFFFFA0000
0005EFFFFFFFFF700000
0000059CEFFFE5000000
ENDCHAR
STARTCHAR parenright
ENCODING 41
SWIDTH 529 0
DWIDTH 19 0
BBX 19 37 0 -7
BITMAP
00000266666651000000
00003B00000014620000
0004EC00000000054000
006FFC00000000006200
07FFFC00066500000700
2FFFFC00000272000600
4FFFFC00000006000410
4FFFFE20000006000330
4FFFFFFFE40005000230
4FFFFFFFF90005000230
4FFFFFFFFA0005000230
1FFFFFFFFA0005000230
0255CFFFFA0005000230
00006FFFFA0005000230
00005FFFFA0005000230
00005FFFFA0005000230
00005FFFFA0005000230
00005FFFFA0005000230
00005FFFFA0005000230
00005FFFFA0005000230
00005FFFFA0005000230
00005FFFFA0005000230
00005FFFFA0005000230
00005FFFFA0005000230
00005FFFF90005000230
00005FFFE40005000230
00005E20000006000420
0001CC00000006000600
003DFC00000272000600
05EFFC00066500004300
2FFFFC00000000026000
4FFFFC00000000560000
4FFFFF655567AD500000
4FFFFFFFFFFFE3000000
4FFFFFFFFFFD20000000
3FFFFFFFFF9100000000
1CFFFEDB720000000000
ENDCHAR
STARTCHAR asterisk
ENCODING 42
SWIDTH 818 0
DWIDTH 29 0
BBX 28 26 1 0
BITMAP
0000000000006655555800000000
000000000009C000000600000000
0000000001BFE000000600000000
000000002CFFF100200600000000
00000016DFFFF300500600026300
000002B128EFF500500603640600
00003E900017D800501863000420
0005EF4000000300501200000060
007FFE0001000000500000100060
01FFF90001664000500266400042
06FFF60000002664766400000016
0BFFFC6410000006910000003582
1FFFFFFFFEB6002516004ADFFD20
6FFFFFFFFFD2007003300AFFB100
9FFFFFFFFE200510006100B90000
5DFFFFFFE3002400100600170000
001368CF30005005A00230017000
000003E90000000CF30000003300
00002EFE3000005FFB0000018100
0002DFFFF70000DFFF4000481000
001DFFFFFFB206FFFFC008800000
007FFFFFFFFE9EFFFFFAC6000000
002DFFFFFFFE9FFFFFFE40000000
0001AFFFFFD30CFFFFB100000000
000006FFFC2004FFF70000000000
0000003B9100008B300000000000
ENDCHAR
STARTCHAR plus
ENCODING 43
SWIDTH 834 0
DWIDTH 30 0
BBX 28 26 1 -2
BITMAP
0000000000002655555500000000
000000000006D000000330000000
0000000002BFC000000240000000
000000005EFFC000500240000000
00000001FFFFC000500240000000
00000003FFFFC000500240000000
00000003FFFFC000500240000000
00000366AAAA8000500165555560
00005A0000000000500000000015
0007FA0000000000500000000005
01AFFA0005555555955555540005
1CFFFA0000000000500000000005
5FFFFA0000000000500000000005
5FFFFD1000000000500000000034
5FFFFFFFFFFFC0005002FFFFFF80
5FFFFFFFFFFFC0005002FFFFE500
5FFFFFFFFFFFC0005002FFFD3000
3FFFFFFFFFFFC0005002FFC10000
02555557FFFFC000000274000000
00000003FFFFC000000240000000
00000003FFFFD000000230000000
00000003FFFFF744444500000000
00000003FFFFFFFFFFA000000000
00000003FFFFFFFFF80000000000
00000002FFFFFFFF600000000000
00000000BFFFFFD5000000000000
ENDCHAR
STARTCHAR comma
ENCODING 44
SWIDTH 484 0
DWIDTH 17 0
BBX 16 19 1 -9
BITMAP
0000055555555560
0001B30000000024
002DF20000000005
04EFF20000000005
6FFFF20255554005
DFFFF20000005005
DFFFF20000005005
DFFFF30000005005
DFFFFC8888305005
DFFFFFFFFE215014
DFFFFC1000070041
CFFFF90255510070
27EFF90000000720
0AFFFD433346A300
5FFFFFFFFFFB1000
6FFFFFFFFF900000
6FFFFFFFF6000000
3EFFFFFB30000000
0122220000000000
ENDCHAR
STARTCHAR hyphen
ENCODING 45
SWIDTH 520 0
DWIDTH 19 0
BBX 19 12 0 5
BITMAP
00000355555555555500
00006900000000000420
0008F900000000000330
01BFF900155555300330
1DFFF900000000000330
6FFFF900000000000330
6FFFF900000000000330
6FFFFD65555555555800
6FFFFFFFFFFFFFFFC200
6FFFFFFFFFFFFFFA1000
6FFFFFFFFFFFFF700000
2DFFFFFFFFFFD5000000
ENDCHAR
STARTCHAR period
ENCODING 46
SWIDTH 484 0
DWIDTH 17 0
BBX 16 15 1 -4
BITMAP
0000055555555560
0001B30000000024
002CF20000000005
03EFF20000000005
4EFFF20002400005
CFFFF20002400005
DFFFF20002400005
DFFFF20001200005
DFFFF20000000005
DFFFF20000000015
DFFFF94444444471
DFFFFFFFFFFFFC10
DFFFFFFFFFFFA100
DFFFFFFFFFF80000
7EFFFFFFFE500000
ENDCHAR
STARTCHAR slash
ENCODING 47
SWIDTH 487 0
DWIDTH 18 0
BBX 18 38 0 -8
BITMAP
000000000455555562
000000007800000006
00000009F500000005
000001BFF300000005
00001DFFF100330024
00007FFFE000510041
0000AFFFC000500050
0000CFFF9000500050
0000EFFF7000500050
0002FFFF5000500060
0004FFFF3001500050
0006FFFF1003200230
0008FFFE0005000410
000AFFFB0005000500
000CFFF90005000600
000FFFF70005000600
002FFFF50005000600
004FFFF30014000500
006FFFF10032002300
008FFFD00050005100
00BFFFB00050006000
00DFFF900050006000
00FFFF700050006000
02FFFF500050006000
04FFFF200140015000
06FFFF000420033000
09FFFD000500051000
0BFFFB000500060000
0DFFF9000500060000
0FFFF6000400060000
2FFFF4000000060000
4FFFF2000000150000
7FFFF5000000510000
9FFFFFFFFFFE400000
BFFFFFFFFFD2000000
DFFFFFFFFB10000000
BFFFFFFF9000000000
145555530000000000
ENDCHAR
STARTCHAR zero
ENCODING 48
SWIDTH 827 0
DWIDTH 30 0
BBX 28 32 1 -5
BITMAP
0000000000024555555531000000
0000000036641000000025650000
0000001630000000000000016300
0000028100004555556510000430
00003D1000462000000156000060
0006F90003500000000001600023
008FF60006000000000000510005
08FFF400060002CEFE7000150005
2FFFF400050009FFFFF100050005
7FFFF40005000AFFFFF200050005
AFFFF40005000AFFFFF200050005
BFFFF400050009FFFFF200050005
CFFFF400050005EFFFF200050005
CFFFF400050005DFFFF200050005
CFFFF400050005DFFFF200050005
CFFFF400050005DFFFF200050005
CFFFF400050005DFFFF200050005
CFFFF400050005DFFFF200050005
CFFFF400050005DFFFF100050005
CFFFF400060003DFFF9000150005
CFFFF40006000001210000510005
CFFFF50003500000000001600006
CFFFF90000462000000156000024
BFFFFE1000003555556510000060
AFFFFFA000000000000000000450
7FFFFFFB30000000000000007500
2FFFFFFFFB6300000000149D4000
0AFFFFFFFFFFFEDCCDDFFFC20000
01CFFFFFFFFFFFFFFFFFFA100000
0019FFFFFFFFFFFFFFFE70000000
000039EFFFFFFFFFFD8200000000
0000000256777764100000000000
ENDCHAR
STARTCHAR one
ENCODING 49
SWIDTH 701 0
DWIDTH 25 0
BBX 25 30 0 -4
BITMAP
00000065555555555556000000
00001B90000000000005000000
0003DF90000000000005000000
005EFF90016666650005000000
03FFFF90000000050005000000
06FFFF90000000050005000000
06FFFFE7666100050005000000
06FFFFFFFFF300050005000000
06FFFFFFFFF300050005000000
06FFFFFFFFF300050005000000
01BDDDFFFFF300050005000000
000000CFFFF300050005000000
000000CFFFF300050005000000
000000CFFFF300050005000000
000000CFFFF300050005000000
000000CFFFF300050005000000
000000CFFFF300050005000000
000000CFFFF300050005000000
000001BAAAA200050004555620
00002C00000000050000000060
0004ED00000000050000000050
006FFD00000000050000000050
07FFFD00055555575555510050
1FFFFD00000000000000000050
2FFFFD00000000000000000050
2FFFFF74444444444444444540
2FFFFFFFFFFFFFFFFFFFFFE500
2FFFFFFFFFFFFFFFFFFFFD3000
2FFFFFFFFFFFFFFFFFFFC20000
0BFFFFFFFFFFFFFFFFFA100000
ENDCHAR
STARTCHAR two
ENCODING 50
SWIDTH 739 0
DWIDTH 27 0
BBX 26 30 0 -4
BITMAP
00000036555555555555564000
000006E0000000000000002600
00009FE0000000000000000160
001BFFE0005666666665000042
00CFFFE0000000000001700005
01FFFFF0000000000000330005
01FFFFF8555555553000140005
01FFFFFFFFFFFFFFF000140005
01FFFFFFFFFFFFFFA000140005
01FFFFFFFFFFFB610000140005
00AFFFFFFFB510000000420005
00000003610000000025400023
00000054000000035530000060
00000790000035530000000610
0000AF20004620000000048100
001CFD00033000000048D80000
01CFFA0005000015AEFE500000
07FFF900050002FFFFD3000000
0EFFF900050003AAAA65555562
3FFFF900050000000000000006
5FFFF900050000000000000005
6FFFF900050000000000000005
6FFFF900045555555555550005
6FFFF900000000000000000005
6FFFF900000000000000000005
6FFFFD54444444444444444453
6FFFFFFFFFFFFFFFFFFFFFFE40
6FFFFFFFFFFFFFFFFFFFFFD200
6FFFFFFFFFFFFFFFFFFFFB1000
2DFFFFFFFFFFFFFFFFFF900000
ENDCHAR
STARTCHAR three
ENCODING 51
SWIDTH 737 0
DWIDTH 27 0
BBX 26 30 0 -4
BITMAP
00000465555555555556610000
00007E00000000000000062000
001AFE00000000000000007000
02DFFE00056666666300002400
0EFFFE00000000000370000600
1FFFFE00000000000043000600
1FFFFFDBBBBBBB900005000600
1FFFFFFFFFFFFFF40005000600
1FFFFFFFFFFFFFD10005001500
1FFFFFFFE20000000005006100
06BBBBBFC00000000023057100
000001BFC00000000160001540
00002DFFC00055567854000042
0000DFFFC00000000001700005
0003FFFFC00000000000150005
0003FFFFF42222221000050005
0003FFFFFFFFFFFFF700050005
0003FFFFFFFFFFFFF900050005
0003FFFFFFFFFFFFF600050005
0001DF30000000000000060005
0000AE00000000000000060005
002CFE00000000000001720005
03DFFE00055555555555100014
0EFFFE00000000000000000060
1FFFFE00000000000000001710
1FFFFF744444444444457A9000
1FFFFFFFFFFFFFFFFFFFF70000
1FFFFFFFFFFFFFFFFFFF500000
1FFFFFFFFFFFFFFFFFD3000000
0AFFFFFFFFFFFFFDB610000000
ENDCHAR
STARTCHAR four
ENCODING 52
SWIDTH 809 0
DWIDTH 29 0
BBX 27 30 1 -4
BITMAP
0000075555555600037555555630
0001C600000005007F1000000050
003DF6000000052BFF1000000050
05EFF600050006EFFF1001400050
5FFFF600050006FFFF1001400050
9FFFF600050006FFFF1001400050
9FFFF600050006FFFF1001400050
9FFFF600050006FFFF1001400050
9FFFF600050006FFFF1001400050
9FFFF600050006FFFF1001400050
9FFFF600050006FFFF1001400050
9FFFF600050002CDDD1001400050
9FFFF60005000000000001400050
9FFFF60005100000000001400050
9FFFF70000710000000001400050
9FFFF80000156555555556400050
9FFFFC0000000000000001400050
8FFFFF5000000000000001400050
7FFFFFE500000000000001400050
3FFFFFFFD8655555550001400050
0DFFFFFFFFFFFFFFFF1001400050
05FFFFFFFFFFFFFFFF1001400050
007FFFFFFFFFFFFFFF1001300050
00039DEFFFFFFFFFFF1000000050
0000000000000EFFFF1000000050
0000000000000EFFFF9444444640
0000000000000EFFFFFFFFFFE400
0000000000000EFFFFFFFFFD2000
0000000000000EFFFFFFFFB10000
00000000000008FFFFFFE8000000
ENDCHAR
STARTCHAR five
ENCODING 53
SWIDTH 747 0
DWIDTH 27 0
BBX 26 30 1 -4
BITMAP
00000755555555555555555600
0001B800000000000000000500
002DF700000000000000000500
04EFF700056666666666200500
4FFFF700050000000000000500
8FFFF700050000000000000500
8FFFF700050002555555556700
8FFFF700050005FFFFFFFF9000
8FFFF700050005FFFFFFF60000
8FFFF700050000000001366000
8FFFF700050000000000001700
8FFFF700050000000000000160
8FFFF700056666666662000060
8FFFF700000000000005300032
8FFFF700000000000000600023
8FFFFB21111111110000500024
8FFFFFFFFFFFFFFF8000500024
8FFFFFFFFFFFFFFFA000500024
8FFFFFFFFFFFFFFF8000500024
5FFFF600000000000000500024
024BF200000000000000600033
01AFF200000000000005300051
2CFFF200355555555562000060
BFFFF200000000000000000620
DFFFF200000000000000017300
DFFFF9444444444444569B2000
DFFFFFFFFFFFFFFFFFFFA10000
DFFFFFFFFFFFFFFFFFF8000000
DFFFFFFFFFFFFFFFFE50000000
7EFFFFFFFFFFFFEB7100000000
ENDCHAR
STARTCHAR six
ENCODING 54
SWIDTH 793 0
DWIDTH 29 0
BBX 27 31 1 -5
BITMAP
0000000015555555555555560000
0000000551000000000000050000
0000008200000000000000050000
00001C4000046666666620050000
0003DC0001720000000000050000
005EF70005100000000000050000
04FFF50005000046666666780000
0DFFF400050006FFFFFFFF800000
5FFFF400050009FFFFFFF6000000
9FFFF40005000442100125661000
BFFFF40005000000000000017200
CFFFF40005034566665530000700
CFFFF40005530000000036000240
CFFFF40008100000000003300060
CFFFF40007000000000000600060
CFFFF400050004DFEB1000600050
CFFFF400050009FFFF4000600050
CFFFF40005000AFFFF4000600050
CFFFF400060009FFFF4000600050
CFFFF400060002ACB80000500050
CFFFF50005300000000005100050
CFFFF80000650000000154000050
BFFFFD0000025555555510000510
AFFFFF9000000000000000002500
7FFFFFFA20000000000000056000
3FFFFFFFEA520000000037C60000
0BFFFFFFFFFFFEDCCDEFFE400000
02EFFFFFFFFFFFFFFFFFD2000000
002BFFFFFFFFFFFFFFFA10000000
00004BFFFFFFFFFFEA4000000000
0000000357777653000000000000
ENDCHAR
STARTCHAR seven
ENCODING 55
SWIDTH 727 0
DWIDTH 26 0
BBX 26 30 0 -4
BITMAP
00000655555555555555555570
0001B800000000000000000033
003DF800000000000000000023
05EFF800166666666666700023
4FFFF800000000000000500023
7FFFF800000000000000500023
8FFFFD55555555553000500023
8FFFFFFFFFFFFFFFA000500023
8FFFFFFFFFFFFFFFA000500023
7FFFFFFFFFFFFFFFA000500023
3DFFFFFFFFFFFC840000500023
00000000002530000000500032
00000000052000000003500051
00000000830000001562000060
0000001BA00000465000000240
000002DF600026200000001600
00002EFF300060000000177000
0000DFFF20005000026BE50000
0005FFFF200050006FFD300000
000AFFFF200050007FB1000000
000CFFFF200050006700000000
000DFFFF200050005000000000
000DFFFF200030005000000000
000DFFFF200000005000000000
000DFFFF200000005000000000
000DFFFF944444456000000000
000DFFFFFFFFFFF80000000000
000DFFFFFFFFFF500000000000
000DFFFFFFFFD3000000000000
0007EFFFFFFB20000000000000
ENDCHAR
STARTCHAR eight
ENCODING 56
SWIDTH 811 0
DWIDTH 29 0
BBX 29 32 0 -5
BITMAP
000000000000245655554200000000
000000000155410000001466200000
000000004400000000000000540000
000000084000045555563000052000
000001BC0002620000003710006000
00002DF90006000000000060006000
0003EFF80015001CFFB00050005000
000DFFF80014005FFFF30050005000
004FFFF90014005FFFF30050005000
007FFFFB0014002FFFE10050006000
007FFFFF3015000133100050042000
007FFFFFE306000000000060470000
007FFFFC2003610000002720036000
005FFFD100002AA7668B9200002500
001EFF500017400000001571000600
0006FF000070000000000016000230
004EFD000330003788720004100050
02EFFC00050002FFFFFE1002300050
0AFFFC00050003FFFFFF1002400050
0EFFFC00050003FFFFFF1002400050
1FFFFC000500009EFFE80002300050
2FFFFD000420000000000004200050
3FFFFF100080000000000008000330
3FFFFF600027400000000471000600
2FFFFFE20000255555555200003400
1FFFFFFE5000000000000000065000
0CFFFFFFFD84200000000259C30000
05FFFFFFFFFFFFDDCCDEFFFC200000
00AFFFFFFFFFFFFFFFFFFFB1000000
0008FFFFFFFFFFFFFFFFF800000000
000027CFFFFFFFFFFFD82000000000
000000014677777541000000000000
ENDCHAR
STARTCHAR nine
ENCODING 57
SWIDTH 793 0
DWIDTH 29 0
BBX 28 31 0 -4
BITMAP
0000000000014555555531000000
0000000015642000000025650000
0000000450000000000000016300
0000007400004555555630000520
00001A8000361000000047000070
0002CF2000700000000001600051
003EFE0003300000000000600024
01EFFD000410009EFE7000500015
09FFFC00041000FFFFD000500005
0DFFFC00041000FFFFD000500005
1FFFFC00041000FFFFC000500005
2FFFFD000320006BCB4000700005
3FFFFE0000500000000000B00005
3FFFFF2000440000000018800005
3FFFFF8000024556655551500005
2FFFFFF300000000000000500005
1FFFFFFE71000000000000500005
0DFFFFFFFFC977678AB000500005
08FFFFFFFFFFFFFFFFC000500005
01DFFFFFFFFFFFFFFE5000500005
002BFFFFC1000000000000500014
000037CF90000000000000600042
000005EF80000000000026200070
00007FFF80015555555540000160
0004FFFF80000000000000000810
0007FFFF90000000000000038100
0007FFFFD5444444444569C90000
0007FFFFFFFFFFFFFFFFFF600000
0007FFFFFFFFFFFFFFFFE4000000
0006FFFFFFFFFFFFFFFB20000000
0002DFFFFFFFFFEDB83000000000
ENDCHAR
STARTCHAR colon
ENCODING 58
SWIDTH 484 0
DWIDTH 17 0
BBX 16 28 1 -4
BITMAP
0000055555555560
0001A30000000024
002CF20000000005
03DFF20000000005
4EFFF20002400005
CFFFF20002400005
DFFFF20002400005
DFFFF20001200005
DFFFF20000000005
DFFFF20000000015
DFFFF94444444471
DFFFFFFFFFFFFD20
DFFFFFFFFFFFB100
DFFFFEAAAAAA6560
9FFFF30000000024
013DF20000000005
03DFF20000000005
4EFFF20002400005
CFFFF20002400005
DFFFF20002400005
DFFFF20001200005
DFFFF20000000005
DFFFF20000000015
DFFFF94444444471
DFFFFFFFFFFFFC10
DFFFFFFFFFFFA100
DFFFFFFFFFF80000
7EFFFFFFFE500000
ENDCHAR
STARTCHAR semicolon
ENCODING 59
SWIDTH 484 0
DWIDTH 17 0
BBX 16 32 1 -9
BITMAP
0000055555555560
0001B30000000024
002CF20000000005
03EFF20001200005
4EFFF20002400005
CFFFF20002400005
DFFFF20002400005
DFFFF20000000005
DFFFF20000000005
DFFFF20000000015
DFFFFB7777777791
DFFFFFFFFFFFFD20
DFFFFFFFFFFFB100
DFFFFDAAAAAA6560
7FFFF30000000024
003DF20000000005
04EFF20000000005
6FFFF20255554005
DFFFF20000005005
DFFFF20000005005
DFFFF30000005005
DFFFFC8888305005
DFFFFFFFFE215014
DFFFFC1000070041
CFFFF90255510070
27EFF90000000720
0AFFFD433346A300
5FFFFFFFFFFB1000
6FFFFFFFFF900000
6FFFFFFFF6000000
3EFFFFFB30000000
0122220000000000
ENDCHAR
STARTCHAR less
ENCODING 60
SWIDTH 814 0
DWIDTH 29 0
BBX 25 28 2 -3
BITMAP
00000000000000000000000100
00000000000000000001466470
00000000000000002665100050
00000000000014663000000050
00000000026651000000000050
00000005640000000003520050
00000171000000015652000050
00003A00000036640000000050
0004E500036620000000002650
007FF2003500000000159DE500
08FFF000600000148CFFFD3000
4FFFF00060004BFFFFFFC20000
BFFFF00060006EFFFFE9100000
DFFFF00060000037B920000000
FFFFF100420000000046651000
FFFFF400056300000000015640
FFFFFB00000366510000000060
FFFFFF90000000156520000050
EFFFFFFD610000000036620050
BFFFFFFFFFC730000000000050
5FFFFFFFFFFFFEA51000000050
08FFFFFFFFFFFFFFFC73000050
004BFFFFFFFFFFFFFFFFEA5260
000026BEFFFFFFFFFFFFFFFC20
0000000048DFFFFFFFFFFFA100
0000000000026BEFFFFFF80000
00000000000000048DFF600000
00000000000000000021000000
ENDCHAR
STARTCHAR equal
ENCODING 61
SWIDTH 834 0
DWIDTH 30 0
BBX 28 23 1 0
BITMAP
0000026555555555555555555560
00004A0000000000000000000015
0006FA0000000000000000000005
008FFA0000000000000000000005
09FFFA0005555555555555540005
4FFFFA0000000000000000000005
5FFFFA0000000000000000000005
5FFFFE6444444444444444444451
5FFFFFFFFFFFFFFFFFFFFFFFFB10
5FFFFFFFFFFFFFFFFFFFFFFF9000
5FFFFFFFFFFFFFFFFFFFFFF70000
1BDDDECAAAAAAAAAAAAAAA966660
00003A0000000000000000000015
0005FA0000000000000000000005
007FFA0000000000000000000005
09FFFA0005555555555555540005
4FFFFA0000000000000000000005
5FFFFA0000000000000000000005
5FFFFE6444444444444444444561
5FFFFFFFFFFFFFFFFFFFFFFFFC10
5FFFFFFFFFFFFFFFFFFFFFFFB100
5FFFFFFFFFFFFFFFFFFFFFF90000
1CFFFFFFFFFFFFFFFFFFFE700000
ENDCHAR
STARTCHAR greater
ENCODING 62
SWIDTH 814 0
DWIDTH 29 0
BBX 26 27 2 -3
BITMAP
00001745530000000000000000
0003D600014441000000000000
004EF600000003443000000000
07FFF600000000001444100000
6FFFF600252000000000343000
9FFFF600004554000000002500
9FFFF600000002555100000050
9FFFFD62000000000466100050
9FFFFFFFD95100000000620023
9FFFFFFFFFFFC8410000060014
9FFFFFFFFFFFFFFFB400060005
3EFFFFFFFFFFFFFFE600060005
0037BFFFFFFFEB730000060015
00000148EC8400000000150024
00000233100000000015600051
00005700000000025651000070
0007F600000046640000000820
01AFF60015652000000017B300
1CFFF60010000000038CFC1000
8FFFF6000000015AEFFFA00000
9FFFF6000038CFFFFFF7000000
9FFFF925AEFFFFFFFC30000000
9FFFFFFFFFFFFFC83000000000
9FFFFFFFFFEA51000000000000
9FFFFFFC830000000000000000
8FFEA510000000000000000000
15300000000000000000000000
ENDCHAR
STARTCHAR question
ENCODING 63
SWIDTH 756 0
DWIDTH 27 0
BBX 27 30 0 -4
BITMAP
0000056555555555555555500000
00008C0000000000000000153000
001BFC0000000000000000003300
03DFFC0006666666666640000400
1EFFFC0000000000000036000130
4FFFFC0000000000000006000050
4FFFFF6555555555520005100050
4FFFFFFFFFFFFFFFFE0004100050
4FFFFFFFFFFFFFFFD90004100050
3FFFFFFFFDB97520000004100050
1CFFFFFFB0000000000005100060
0000004EA0000000000017000160
000006FFC0000024666651000430
00008FFFF0005642000000000900
0004FFFFF200000000000002A200
0005FFFFF5000000000035AC2000
0003FFFFF80013579BDFFFB10000
0001FFFFFFDEFFFFFFFFF8000000
0000DFFFF98888888DFF60000000
0000BFFFA000000004A200000000
00008FFFA0000000033000000000
00002FFFA0000300033000000000
0001CFFFA0000500033000000000
0005FFFFA0000000033000000000
0005FFFFA0000000032000000000
0005FFFFE5444444480000000000
0005FFFFFFFFFFFFB10000000000
0005FFFFFFFFFFF9000000000000
0005FFFFFFFFFF60000000000000
0001DFFFFFFFD400000000000000
ENDCHAR
STARTCHAR at
ENCODING 64
SWIDTH 967 0
DWIDTH 35 0
BBX 33 38 1 -8
BITMAP
0000000000002555555555553000000000
0000000002554100000000002565000000
0000000164001465555555653001640000
0000002700565100000000003663045000
000003A0271002689AAA98741004604300
00005E317017DFFFFFFFFFFFFB30250600
0007FC0611CFFFFFFFFFFFFFFFF6051410
008FF80609FFFFFFFFFFFFFFFFFF215150
05FFF6050EDBBAADFFFFFFFFFFFF705050
0DFFF514140025521000000001CF905050
4FFFF414140350000000000000AF905050
7FFFF414144900046555555500AF905050
9FFFF41419F400730000000500AF905050
AFFFF4141FF102400000000500AF905050
BFFFF4141FF004200CFF700500AF905050
BFFFF4141FF004102FFF700500AF905050
BFFFF4141FF004102FFF700500AF905050
BFFFF4141FF004102FFF700500AF905050
BFFFF4141FF004102FFF700500AF905050
BFFFF4141FF004102FFF700500AF905050
BFFFF4141FF004102FFF700500AF805050
BFFFF4141FF004200DFF700500AF505060
BFFFF4141FF10240000000050088052240
BFFFF4141FF40071000000050000360610
BFFFF4141FFA0016655555575556401600
BFFFF5141FFF5000000000000000028000
BFFFF7050EFFFA51000000000125A90000
AFFFFA0609FFFFFFFFFFFFFFFFFF800000
9FFFFE1601DFFFFFFFFFFFFFFFF6000000
7FFFFF717017EFFFFFFFFFFFFE40000000
4FFFFFF5271003689AAAAAAAA750000000
1EFFFFFF71565200000000000032000000
08FFFFFFFD721465555555555033000000
01DFFFFFFFFFDA87655555555571000000
003EFFFFFFFFFFFFFFFFFFFFFB10000000
0002CFFFFFFFFFFFFFFFFFFF9000000000
000005CFFFFFFFFFFFFFFFF70000000000
000000027ACDEFFFFFFFFD500000000000
ENDCHAR
STARTCHAR A
ENCODING 65
SWIDTH 830 0
DWIDTH 30 0
BBX 28 30 1 -4
BITMAP
0000000004655555555555600000
000000007A000000000000240000
0000001AF4000000000000060000
000002CFD0000666666300042000
00002EFF70006100000610005000
00008FFF10024000000160005000
0000EFFA00060001100060002400
0005FFF40006000EF40024000500
000BFFD00042004FF90006000410
002FFF700060009FFD0004200050
007FFF20015000EFFF3000600050
00DFFC00060003FFFF8000510032
04FFF700060008FFFFC000240005
09FFF40006000000000000060006
1EFFF20015000000000000060006
5FFFF10014000000000000050006
9FFFF10018555555555555570006
CFFFF10014000000000000050006
DFFFF10014000000000000050006
EFFFF10014000555555200050006
EFFFF10014000FFFFFF500050006
EFFFF10014000FFFFFF500050006
EFFFF10013000FFFFFF500040006
EFFFF10000000FFFFFF500000006
EFFFF100000015AFFFF500000006
EFFFF944444482AFFFFC54444456
EFFFFFFFFFFE40AFFFFFFFFFFF80
EFFFFFFFFFC200AFFFFFFFFFE500
DFFFFFFFF900009FFFFFFFFD3000
8FFFFFFE6000004EFFFFFFB10000
ENDCHAR
STARTCHAR B
ENCODING 66
SWIDTH 825 0
DWIDTH 30 0
BBX 29 30 1 -4
BITMAP
000006555555555555555650000000
0000AA000000000000000017200000
001CF9000000000000000000700000
03DFF9000466666666650000150000
2EFFF9000500000000018100050000
5FFFF9000500000000002600050000
6FFFF900050004FFFC000600050000
6FFFF900050004FFFF200500050000
6FFFF900050004FFFF200500060000
6FFFF900050004EEEA000500330000
6FFFF9000500000000000503700000
6FFFF9000500000000017100362000
6FFFF9000555555556796510005100
6FFFF9000500000000000063000600
6FFFF9000500000000000008000600
6FFFF900050004FFFFF70006000500
6FFFF900050004FFFFFB0005000410
6FFFF900050004FFFFFB0005000410
6FFFF900050004FFFFF90005000410
6FFFF9000500014444400006000410
6FFFF9000500000000000007000510
6FFFF9000500000000000054000600
6FFFF9000455555555555520000600
6FFFF9000000000000000000004200
6FFFFA000000000000000000054000
6FFFFE544444444444444569C30000
6FFFFFFFFFFFFFFFFFFFFFFC200000
6FFFFFFFFFFFFFFFFFFFFFA1000000
5FFFFFFFFFFFFFFFFFFFF800000000
1DFFFFFFFFFFFFFFFEC82000000000
ENDCHAR
STARTCHAR C
ENCODING 67
SWIDTH 728 0
DWIDTH 26 0
BBX 25 30 1 -4
BITMAP
00000000155655555555555630
00000005610000000000000060
00000082000000000000000060
00001B40000466666666500060
0003DC00008300000000000060
005EF700061000000000000060
04FFF500060000245555555740
0DFFF400050004FFFFFFFFF600
5FFFF400050008FFFFFFFD3000
9FFFF400050008FFFFFFB10000
BFFFF400050008FFFFE8000000
CFFFF400050005000000000000
CFFFF400050005000000000000
CFFFF400050005000000000000
CFFFF400050005000000000000
CFFFF400050005000000000000
CFFFF400050005000000000000
CFFFF400050005100000000000
CFFFF400050000655555555610
CFFFF500060000000000000060
CFFFF700061000000000000060
CFFFFB00007200000000000060
AFFFFF30000465555555500060
8FFFFFD1000000000000000060
5FFFFFFE500000000000000050
0DFFFFFFFEA755444444444620
05FFFFFFFFFFFFFFFFFFFFD300
009FFFFFFFFFFFFFFFFFFC1000
0007EFFFFFFFFFFFFFFFA00000
000016ADEFFFFFFFFFE7000000
ENDCHAR
STARTCHAR D
ENCODING 68
SWIDTH 846 0
DWIDTH 30 0
BBX 29 30 1 -4
BITMAP
000006555555555555555665100000
0000AA000000000000000001560000
001CF9000000000000000000016000
03DFF9000466666666666200002400
2EFFF9000500000000000470000600
5FFFF9000500000000000016000510
6FFFF9000500003333200006000330
6FFFF900050003FFFFF70006000240
6FFFF900050003FFFFFB0005000140
6FFFF900050003FFFFFC0005000140
6FFFF900050003FFFFFC0005000140
6FFFF900050003AFFFFC0005000140
6FFFF9000500036FFFFC0005000140
6FFFF9000500036FFFFC0005000140
6FFFF9000500036FFFFC0005000140
6FFFF9000500036FFFFC0005000140
6FFFF9000500036FFFFB0005000140
6FFFF9000500036FFFFA0005000140
6FFFF9000500027AAA920005000240
6FFFF9000500000000000006000330
6FFFF9000500000000000016000510
6FFFF9000500000000000370000600
6FFFF9000455555555556300002500
6FFFF9000000000000000000018000
6FFFFA000000000000000000591000
6FFFFE5444444444444557AD800000
6FFFFFFFFFFFFFFFFFFFFFE5000000
6FFFFFFFFFFFFFFFFFFFFD30000000
5FFFFFFFFFFFFFFFFFFFA100000000
1DFFFFFFFFFFFFFEDB720000000000
ENDCHAR
STARTCHAR E
ENCODING 69
SWIDTH 754 0
DWIDTH 27 0
BBX 26 30 1 -4
BITMAP
00000655555555555555555571
0000AA00000000000000000014
001CF900000000000000000014
03DFF900046666666666640014
2EFFF900050000000000000014
5FFFF900050000000000000034
6FFFF900050004CCCCCCCCCCA0
6FFFF900050005FFFFFFFFF700
6FFFF900050005FFFFFFFE3000
6FFFF900050000000000043000
6FFFF900050000000000005000
6FFFF900050000000000005000
6FFFF900065555555540005000
6FFFF900050000000000005000
6FFFF900050000000000015000
6FFFF900050002666666671000
6FFFF900050005FFFFFFB10000
6FFFF900050005FFFFF9000000
6FFFF900050003AAAA95555550
6FFFF900050000000000000033
6FFFF900050000000000000014
6FFFF900050000000000000014
6FFFF900045555555555540014
6FFFF900000000000000000014
6FFFFA00000000000000000024
6FFFFE54444444444444444461
6FFFFFFFFFFFFFFFFFFFFFFB10
6FFFFFFFFFFFFFFFFFFFFF9000
5FFFFFFFFFFFFFFFFFFFF70000
1DFFFFFFFFFFFFFFFFFD400000
ENDCHAR
STARTCHAR F
ENCODING 70
SWIDTH 718 0
DWIDTH 26 0
BBX 25 30 1 -4
BITMAP
00000655555555555555555640
0000AA00000000000000000050
001CF900000000000000000050
03DFF900046666666666600050
2EFFF900050000000000000050
5FFFF900050000000000000060
6FFFF900050002CCCCCCCCCC30
6FFFF900050003FFFFFFFFC200
6FFFF900050003FFFFFFF90000
6FFFF900050003FFFFFF900000
6FFFF900050000000000160000
6FFFF900050000000000050000
6FFFF900050000000000050000
6FFFF900066666666610050000
6FFFF900050000000000050000
6FFFF900050000000000050000
6FFFF900050000000000150000
6FFFF900050003FFFFFF900000
6FFFF900050003FFFFF7000000
6FFFF900050003FFFE50000000
6FFFF900050003FFD300000000
6FFFF900050003641000000000
6FFFF900010003200000000000
6FFFF900000003200000000000
6FFFFA00000003200000000000
6FFFFE54444446000000000000
6FFFFFFFFFFF90000000000000
6FFFFFFFFFF700000000000000
5FFFFFFFFE5000000000000000
1DFFFFFFD30000000000000000
ENDCHAR
STARTCHAR G
ENCODING 71
SWIDTH 808 0
DWIDTH 29 0
BBX 28 30 1 -4
BITMAP
0000000015565555555555564000
0000000561000000000000005000
0000008200000000000000005000
00001C4000046666666661005000
0003DB0000830000000000005000
005EF70006100000000000006000
04FFF50006000024555555567000
0DFFF400050004FFFFFFFFF80000
5FFFF400050009FFFFFFFE500000
9FFFF400050009FFFFFFD3000000
BFFFF400050009FFFFFA10000000
CFFFF40005000500003655555540
CFFFF40005000500049000000050
CFFFF400050005006F8000000041
CFFFF40005000507FF8000000041
CFFFF4000500069FFF8000500041
CFFFF400050009FFFF8000500041
CFFFF400050008FFFF8000500041
CFFFF400050003DEEE8000500041
CFFFF50006000000000000500041
CFFFF70006200000000000500041
CFFFFB0000740000000000500041
AFFFFF3000026655555555600041
8FFFFFD100000000000000000041
5FFFFFFE50000000000000000051
0DFFFFFFFEA75544444444444560
05FFFFFFFFFFFFFFFFFFFFFFF900
009FFFFFFFFFFFFFFFFFFFFF6000
0007EFFFFFFFFFFFFFFFFFE40000
000016ADEFFFFFFFFFFFFC300000
ENDCHAR
STARTCHAR H
ENCODING 72
SWIDTH 859 0
DWIDTH 31 0
BBX 29 30 1 -4
BITMAP
000006555555570000056555555710
0000AA0000000320009D0000000150
001CF900000003202CFC0000000050
03DFF90005000324EFFC0004100050
2EFFF9000500034FFFFC0004100050
5FFFF9000500035FFFFC0004100050
6FFFF9000500035FFFFC0004100050
6FFFF9000500035FFFFC0004100050
6FFFF9000500027AAAA80004100050
6FFFF9000500000000000004100050
6FFFF9000500000000000004100050
6FFFF9000500000000000004100050
6FFFF9000655555555555558100050
6FFFF9000500000000000004100050
6FFFF9000500000000000004100050
6FFFF9000500000000000004100050
6FFFF9000500015555540004100050
6FFFF900050003FFFFFC0004100050
6FFFF900050003FFFFFC0004100050
6FFFF900050003FFFFFC0004100050
6FFFF900050003FFFFFC0004100050
6FFFF9000500035FFFFC0004100050
6FFFF9000300035FFFFC0003100050
6FFFF9000000035FFFFC0000000050
6FFFFA000000035FFFFC0000000150
6FFFFE544444483FFFFF6444444720
6FFFFFFFFFFFC23FFFFFFFFFFFD200
6FFFFFFFFFF9003FFFFFFFFFFB1000
5FFFFFFFFF60003FFFFFFFFF800000
1DFFFFFFD400000BFFFFFFE5000000
ENDCHAR
STARTCHAR I
ENCODING 73
SWIDTH 705 0
DWIDTH 25 0
BBX 24 30 1 -4
BITMAP
000037555555555555555571
0006E1000000000000000015
009FF1000000000000000005
1BFFF1004666667666640005
CFFFF1000000024000000005
EFFFF1000000024000000015
EFFFFB8887000240006888A1
EFFFFFFFFE00024000CFFC20
EFFFFFFFFE00024000CF9100
EFFFFFFFFE00024000C60000
6CCCCFFFFE00024000600000
00001FFFFE00024000500000
00001FFFFE00024000500000
00001FFFFE00024000500000
00001FFFFE00024000500000
00001FFFFE00024000500000
00001FFFFE00024000500000
00001FFFFE00024000500000
00001DAAA900024000655560
0001A2000000024000000024
002CF1000000024000000005
03DFF1000000024000000005
4EFFF1004555566555540005
DFFFF1000000000000000005
EFFFF1000000000000000015
EFFFF9444444444444444471
EFFFFFFFFFFFFFFFFFFFFC10
EFFFFFFFFFFFFFFFFFFFA000
EFFFFFFFFFFFFFFFFFF80000
8FFFFFFFFFFFFFFFFE500000
ENDCHAR
STARTCHAR J
ENCODING 74
SWIDTH 788 0
DWIDTH 28 0
BBX 27 31 0 -5
BITMAP
0000000000000000017555555560
00000000000000002D6000000050
0000000000000005EF5000000050
000000000000007FFF5000300050
00000000000006FFFF5000500050
0000000000000AFFFF5000500050
0000000000000AFFFF5000500050
0000000000000AFFFF5000500050
0000000000000AFFFF5000500050
0000000000000AFFFF5000500050
0000000000000AFFFF5000500050
0000036555556CFFFF5000500050
00005A0000000AFFFF5000500050
0007F900000009FFFF5000500050
009FF900000009FFFF5000500050
0BFFF900050009FFFF5000500050
5FFFF900050009FFFF5000500050
6FFFF900050008FFFF5000500050
6FFFF900060002CEEB1000500050
6FFFFA0006100000000001500050
6FFFFB0001700000000006100060
6FFFFE0000362000000263000060
5FFFFF6000003555556400000240
4FFFFFE200000000000000001700
1FFFFFFE50000000000000038100
0BFFFFFFFD731000000036B90000
04FFFFFFFFFFFEDCCDEFFF600000
007FFFFFFFFFFFFFFFFFE4000000
0006FFFFFFFFFFFFFFFB20000000
000018DFFFFFFFFFFA5000000000
0000000256777653000000000000
ENDCHAR
STARTCHAR K
ENCODING 75
SWIDTH 846 0
DWIDTH 30 0
BBX 29 30 1 -4
BITMAP
000006555555570000276555556500
0000AA000000032005C10000000500
001CF900000003208F600000005100
03DFF9000500034CFE100510005000
2EFFF900050003EFF7000600051000
5FFFF900050003FFE1004200060000
6FFFF900050003FF80006000410000
6FFFF900050003FE10024000600000
6FFFF900050003F800060004300000
6FFFF9000500002100150002562000
6FFFF9000500000000600000006100
6FFFF9000500000000500000000600
6FFFF9000655555556656610000500
6FFFF9000500000000000063000320
6FFFF9000500000000000006000230
6FFFF9000500000000000005000230
6FFFF900050003FFFFF60005000230
6FFFF900050003FFFFFA0005000230
6FFFF900050003FFFFFB0005000230
6FFFF900050003FFFFFB0005000230
6FFFF900050003DFFFFB0005000230
6FFFF9000500037FFFFB0005000230
6FFFF9000300037FFFFB0003000230
6FFFF9000000037FFFFB0000000230
6FFFFA000000036FFFFB0000000320
6FFFFE544444475FFFFE6444444700
6FFFFFFFFFFFB14FFFFFFFFFFFA100
6FFFFFFFFFF8004FFFFFFFFFF80000
5FFFFFFFFF60004FFFFFFFFF600000
1DFFFFFFD300001CFFFFFFD4000000
ENDCHAR
STARTCHAR L
ENCODING 76
SWIDTH 795 0
DWIDTH 29 0
BBX 27 30 1 -4
BITMAP
0000065555555700000000000000
0000AA0000000320000000000000
001CF90000000320000000000000
03DFF90003000320000000000000
2EFFF90005000320000000000000
5FFFF90005000320000000000000
6FFFF90005000320000000000000
6FFFF90005000320000000000000
6FFFF90005000320000000000000
6FFFF90005000320000000000000
6FFFF90005000320000000000000
6FFFF90005000320002655555530
6FFFF9000500032003B000000060
6FFFF900050003204EB000000050
6FFFF90005000326FFB000000050
6FFFF900050003AFFFB000500050
6FFFF900050003FFFFB000500050
6FFFF900050003FFFFB000500050
6FFFF900050003FFFFB000500050
6FFFF90005000000000000500050
6FFFF90005000000000000500050
6FFFF90005000000000000500050
6FFFF90004555555555555600050
6FFFF90000000000000000000050
6FFFFA0000000000000000000050
6FFFFE5444444444444444444550
6FFFFFFFFFFFFFFFFFFFFFFFF700
6FFFFFFFFFFFFFFFFFFFFFFE5000
5FFFFFFFFFFFFFFFFFFFFFD30000
1DFFFFFFFFFFFFFFFFFFFB100000
ENDCHAR
STARTCHAR M
ENCODING 77
SWIDTH 949 0
DWIDTH 34 0
BBX 32 30 1 -4
BITMAP
00000655555556300000005655555563
0000AA000000006000001A5000000005
001CF900000000160002CB0000000005
03DFF90003660004205EF20036700005
2EFFF9000601600065FF800160320005
5FFFF900050034002EFD100700320005
6FFFF9000500061007F5005200320005
6FFFF900050000700030025000320005
6FFFF900050000250000060000320005
6FFFF900050000043000610000320005
6FFFF900050000006104300000320005
6FFFF900050002000553002100320005
6FFFF900050006400000009100320005
6FFFF900050006B0000002F100320005
6FFFF900050006F400000AF100320005
6FFFF900050006FC00003FF100320005
6FFFF900050006FFC889EFF100320005
6FFFF900050006FFFFFFFFF100320005
6FFFF900050006FFFEFFFFF100320005
6FFFF900050006FFD2EFFFF100320005
6FFFF900050006EA10EFFFF100320005
6FFFF9000500050000EFFFF100320005
6FFFF9000200050000EFFFF100110005
6FFFF9000000050000EFFFF100000005
6FFFFA000000050000EFFFF200000005
6FFFFE544444550000EFFFF944444464
6FFFFFFFFFFF700000EFFFFFFFFFFE50
6FFFFFFFFFE5000000EFFFFFFFFFD200
5FFFFFFFFD30000000DFFFFFFFFB1000
1DFFFFFFB2000000008FFFFFFE800000
ENDCHAR
STARTCHAR N
ENCODING 78
SWIDTH 853 0
DWIDTH 31 0
BBX 29 30 1 -4
BITMAP
000006555556600000066555555700
0000AA000000280001BC0000000410
001CF900000002904EFC0000000420
03DFF9000660003BFFFC0005000420
2EFFF90005250004FFFC0005000420
5FFFF900050340005FFC0005000420
6FFFF9000500430005FC0005000420
6FFFF90005000520006B0005000420
6FFFF9000500006100040005000420
6FFFF9000500000710000005000420
6FFFF9000500000070000005000420
6FFFF9000500000016000005000420
6FFFF9000500010002600005000420
6FFFF9000500065000350005000420
6FFFF900050006F300034005000420
6FFFF900050006FD10004305000420
6FFFF900050006FFC0000525000420
6FFFF900050006FFF9000066000420
6FFFF900050006FFFF700009000420
6FFFF900050006FFFFF40005000420
6FFFF900050006FFFFFB0005000420
6FFFF900050006FFFFFC0005000420
6FFFF900030006FFFFFC0003000420
6FFFF900000005BFFFFC0000000420
6FFFFA000000054FFFFC0000000420
6FFFFE544444574FFFFF6444444800
6FFFFFFFFFFF904FFFFFFFFFFFB100
6FFFFFFFFFF7004FFFFFFFFFF80000
5FFFFFFFFE40003FFFFFFFFF600000
1DFFFFFFC200000CFFFFFFD3000000
ENDCHAR
STARTCHAR O
ENCODING 79
SWIDTH 837 0
DWIDTH 30 0
BBX 28 32 1 -5
BITMAP
0000000000024555555541000000
0000000026642000000025662000
0000000640000000000000005600
0000028100004555555520000260
00003D2000362000000047100043
0006F90002500000000000700006
008FF60006000000000000150006
08FFF400050002BEFEA100050005
2FFFF400050008FFFFF600050005
7FFFF400050009FFFFF700050005
AFFFF400050009FFFFF700050005
BFFFF400050008EFFFF700050005
CFFFF4000500059FFFF700050005
CFFFF4000500058FFFF700050005
CFFFF4000500058FFFF700050005
CFFFF4000500058FFFF700050005
CFFFF4000500058FFFF700050005
CFFFF4000500058FFFF700050005
CFFFF4000500058FFFF600050005
CFFFF400050003BFFFD100050005
CFFFF40006000001210000150005
CFFFF50002500000000000700006
CFFFF90000362000000047100006
BFFFFE1000003555555520000034
AFFFFFA000000000000000000180
7FFFFFFB30000000000000004800
2FFFFFFFFC7310000000148C8000
09FFFFFFFFFFFEDCCCDEFFE50000
01CFFFFFFFFFFFFFFFFFFD300000
0019FFFFFFFFFFFFFFFFA1000000
000029EFFFFFFFFFFE9400000000
0000000256777764200000000000
ENDCHAR
STARTCHAR P
ENCODING 80
SWIDTH 782 0
DWIDTH 28 0
BBX 27 30 1 -4
BITMAP
0000065555555555555555400000
0000AA0000000000000000154000
001CF90000000000000000004500
03DFF90004666666666630000710
2EFFF90005000000000046000150
5FFFF90005000000000002400060
6FFFF90005000277760000600050
6FFFF900050004FFFF7000500050
6FFFF900050004FFFFA000500050
6FFFF900050004FFFFA000500050
6FFFF900050004FFFF9000500050
6FFFF900050004FFFE4000500050
6FFFF90005000000000000600050
6FFFF90005000000000002500060
6FFFF90005000000000036000160
6FFFF90005655555555530000610
6FFFF90005000000000000002600
6FFFF90005000000000000057000
6FFFF90005000144444569D50000
6FFFF900050003FFFFFFFD300000
6FFFF900050003FFFFFFC2000000
6FFFF900050003FFFFF910000000
6FFFF900040003FEC82000000000
6FFFF90000000320000000000000
6FFFFA0000000320000000000000
6FFFFE5444444800000000000000
6FFFFFFFFFFFC200000000000000
6FFFFFFFFFFA1000000000000000
5FFFFFFFFF700000000000000000
1DFFFFFFD4000000000000000000
ENDCHAR
STARTCHAR Q
ENCODING 81
SWIDTH 837 0
DWIDTH 30 0
BBX 28 35 1 -8
BITMAP
0000000000014555555541000000
0000000026642000000025661000
0000000540000000000000005500
0000018100000000000000000260
00002C2000004555555520000052
0004EA0000362000000047100006
006FF60002500000000000700006
05FFF40006000000000000150005
1EFFF400050002BEFEA100050005
6FFFF400050008FFFFF600050005
9FFFF400050009FFFFF700050005
BFFFF400050009FFFFF700050005
CFFFF400050008EFFFF700050005
CFFFF4000500059FFFF700050005
CFFFF4000500058FFFF700050005
CFFFF4000500058FFFF700050005
CFFFF4000500058FFFF700050005
CFFFF4000500058FFFF700050005
CFFFF4000500058FFFF700050005
CFFFF4000500058FFFF600050005
CFFFF400060003CFFFE200050005
CFFFF50006000013431000150005
CFFFF80002500000000000700005
BFFFFD0000462000000037200015
AFFFFF6000004655755530000060
8FFFFFF500000000500000000620
4FFFFFFFA4000000500000159200
0DFFFFFFFFEB300020005CFA1000
04FFFFFFFFFF500000008F800000
006FFFFFFFFF5000000086000000
0003CFFFFFFFC555555650000000
0000037DFFFFFFFFFFF600000000
0000000AFFFFFFFFFE4000000000
0000000AFFFFFFFFD20000000000
00000005EFFFFFFA100000000000
ENDCHAR
STARTCHAR R
ENCODING 82
SWIDTH 843 0
DWIDTH 30 0
BBX 29 30 1 -4
BITMAP
000006555555555555555663000000
0000AA000000000000000004600000
001CF9000000000000000000250000
03DFF9000566666666761000060000
2EFFF9000500000000017100033000
5FFFF9000500000000001600015000
6FFFF900050004FFF9000600005000
6FFFF900050004FFFF000500005000
6FFFF900050004FFFF100500014000
6FFFF900050004FFFE000500051000
6FFFF900050002AA94000600260000
6FFFF9000500000000000600552000
6FFFF9000500000000006100004300
6FFFF9000655555555685530000610
6FFFF9000500000000000035000150
6FFFF9000500000000000005200050
6FFFF9000500000000000001500050
6FFFF900050004FFFFFC0000500050
6FFFF900050004FFFFFF2000500050
6FFFF900050004FFFFFF3000500050
6FFFF900050004FFFFFF3000500050
6FFFF9000500048FFFFF3000500050
6FFFF9000100042DFFFF3000100050
6FFFF9000000042DFFFF3000000050
6FFFFA000000041DFFFF3000000050
6FFFFE544444450DFFFFA444444540
6FFFFFFFFFFF800DFFFFFFFFFFE400
6FFFFFFFFFF6000DFFFFFFFFFD3000
5FFFFFFFFE40000CFFFFFFFFC10000
1DFFFFFFD3000006EFFFFFF9000000
ENDCHAR
STARTCHAR S
ENCODING 83
SWIDTH 750 0
DWIDTH 27 0
BBX 26 30 1 -4
BITMAP
00000000455555555555555700
00000036100000000000000320
00000560000000000000000320
00008A00002666666666300320
001AF400044000000000000320
01CFF100060000000000000320
0CFFF000140002555555555900
6FFFF00014000BFFFFFFFFC100
CFFFF000140008EFFFFFF90000
EFFFF00014000001357AB30000
FFFFF000060000000000027200
FFFFF100054000000000000430
FFFFF400002555530000000060
FFFFFB00000000035553000033
FFFFFF91000000000003500005
EFFFFFFE730000000000500005
AFFFFFFFFFECA8641000320005
4FFFFFFFFFFFFFFFC000330005
06FFFFFFFFFFFFFFA000330005
003AF400000000000000420005
0009F000000000000000600005
01BFF000000000000005400032
3DFFF000455555555662000060
DFFFF000000000000000000530
FFFFF000000000000000017400
FFFFF844444444444456AC2000
FFFFFFFFFFFFFFFFFFFFB10000
FFFFFFFFFFFFFFFFFFF9000000
FFFFFFFFFFFFFFFFFE60000000
9FFFFFFFFFFFFFDB7100000000
ENDCHAR
STARTCHAR T
ENCODING 84
SWIDTH 756 0
DWIDTH 27 0
BBX 28 30 0 -4
BITMAP
0000275555555555555555555570
0004E20000000000000000000041
007FF20000000000000000000042
1AFFF20046666667666666630042
AFFFF20000000004200000000042
DFFFF20000000004200000000042
DFFFFA5555530004200045555590
DFFFFFFFFFFB00042000DFFFFC20
DFFFFFFFFFFB00042000DFFF9000
DFFFFFFFFFFB00042000DFF60000
7EFFFFFFFFFB00042000DD300000
0000004FFFFB0004200050000000
0000004FFFFB0004200050000000
0000004FFFFB0004200050000000
0000004FFFFB0004200050000000
0000004FFFFB0004200050000000
0000004FFFFB0004200050000000
0000004FFFFB0004200050000000
0000004FFFFB0004200050000000
0000004FFFFB0004200050000000
0000004FFFFB0004200050000000
0000004FFFFB0004200050000000
0000004FFFFB0002100050000000
0000004FFFFB0000000050000000
0000004FFFFB0000000050000000
0000004FFFFE6444444630000000
0000004FFFFFFFFFFFE300000000
0000004FFFFFFFFFFC2000000000
0000004FFFFFFFFFA10000000000
0000001CFFFFFFE7000000000000
ENDCHAR
STARTCHAR U
ENCODING 85
SWIDTH 846 0
DWIDTH 30 0
BBX 29 31 1 -5
BITMAP
000007555555560000066555555600
0001B7000000050000AA0000000500
003DF700000005101CF90000000510
05EFF70003000513DFF90003000510
4FFFF7000500053EFFF90005000510
8FFFF7000500056FFFF90005000510
8FFFF7000500056FFFF90005000510
8FFFF7000500056FFFF90005000510
8FFFF7000500056FFFF90005000510
8FFFF7000500056FFFF90005000510
8FFFF7000500056FFFF90005000510
8FFFF7000500056FFFF90005000510
8FFFF7000500056FFFF90005000510
8FFFF7000500056FFFF90005000510
8FFFF7000500056FFFF90005000510
8FFFF7000500056FFFF90005000510
8FFFF7000500056FFFF90005000510
8FFFF7000500047FFFF90005000510
8FFFF7000500019FFFD30005000510
8FFFF7000510000011000006000500
8FFFF9000070000000000052000600
8FFFFC000027300000002630000600
8FFFFF300000355555553000002500
6FFFFFD10000000000000000018000
3FFFFFFD5000000000000000491000
0DFFFFFFFD8410000000137C900000
06FFFFFFFFFFFEDCCCDEFFF6000000
009FFFFFFFFFFFFFFFFFFE40000000
0007FFFFFFFFFFFFFFFFB200000000
000017DFFFFFFFFFFEA40000000000
000000024677776530000000000000
ENDCHAR
STARTCHAR V
ENCODING 86
SWIDTH 830 0
DWIDTH 30 0
BBX 28 30 1 -4
BITMAP
0000275555556500001755555565
0004E2000000050003D400000006
006FF100000005004EF400000006
09FFF10003000507FFF400030006
9FFFF1000500057FFFF400050006
EFFFF100050005BFFFF400050006
EFFFF100050005CFFFF400050006
EFFFF100050005CFFFF400050006
EFFFF100050005CFFFF400050006
EFFFF100050005CFFFF400050006
EFFFF100050005CFFFF400050006
EFFFF100050005CFFFF300050006
EFFFF200060004CFFFF100060006
EFFFF500060000EFFFB000330006
EFFFFA00042000AFFF5000600024
EFFFFF100060004FFF1000600060
CFFFFF700060000EFA0004200060
AFFFFFD000150009F50006000410
5FFFFFF400060002600024000600
0EFFFFFA00033000000060002400
08FFFFFF20006000000150006000
02FFFFFF80004300000600006000
00BFFFFFE0000455556200051000
004FFFFFF5000000000000060000
000DFFFFFB000000000000330000
0007FFFFFF954444444446700000
0001FFFFFFFFFFFFFFFFF8000000
0000AFFFFFFFFFFFFFFE50000000
00004FFFFFFFFFFFFFD300000000
000008EFFFFFFFFFFA1000000000
ENDCHAR
STARTCHAR W
ENCODING 87
SWIDTH 931 0
DWIDTH 34 0
BBX 32 30 1 -4
BITMAP
00001755555565000000004655555571
0002D50000000500000007E000000023
004EF400000005000001AFE000000024
06FFF40003000500002CFFE000310024
6FFFF4000500050000DFFFE000410024
AFFFF4000500050001FFFFE000410024
BFFFF4000500050001FFFFE000410024
BFFFF4000500050001FFFFE000410024
BFFFF4000500050166ABFFE000410024
BFFFF4000500053900006FE000410024
BFFFF400050007E300000CE000410024
BFFFF400050008B0000006E000410024
BFFFF40005000850000000D000410024
BFFFF400050006002654006000410024
BFFFF400050001006004101000410024
BFFFF500050000041000600000410024
BFFFF500050000060000410000500023
BFFFF600050000420000060000500032
BFFFF900050000600680051000500060
AFFFFE00033004200EF1006000500060
AFFFFF40005006003FF6005102400150
9FFFFFA0006042007FFA000605100500
6FFFFFF100364000CFFE000355000600
1FFFFFF600000001FFFF300000003300
0AFFFFFC00000006FFFF800000006000
05FFFFFF9444445DFFFFE74444464000
00EFFFFFFFFFFF7FFFFFFFFFFFE40000
009FFFFFFFFFE40CFFFFFFFFFC200000
003FFFFFFFFD2007FFFFFFFFA1000000
0008EFFFFFA10001BFFFFFE700000000
ENDCHAR
STARTCHAR X
ENCODING 88
SWIDTH 837 0
DWIDTH 30 0
BBX 28 30 1 -4
BITMAP
0000175555556500001755555555
0002D5000000050002C700000005
004EF400000005005EF700000005
06FFF40005000508FFF700050005
6FFFF5000500066FFFF600050005
AFFFF500060002DFFFE100060005
BFFFF8000330006FFF4000520006
BFFFFD100061000AF80002500024
AFFFFF9000060000100006000070
AFFFFFF500024000000051000610
7FFFFFFE20005200000240004300
1EFFFFFFC0000600000600015000
06FFFFFFF6000386668100060000
00AFFFFFC0000600000600025000
001DFFFE20006100000240004300
0003EFF500043000000042000610
0000AF8000150001510006000060
0005FE100060001CFB0001600024
003EF8000510009FFF6000330006
01DFF500060004FFFFF200060005
09FFF500050009FFFFF600050005
3FFFF40005000AFFFFF700050005
8FFFF40003000AFFFFF700030005
AFFFF400000006DFFFF700000005
AFFFF5000000059FFFF700000005
BFFFFB544444558FFFFC54444456
BFFFFFFFFFFF608FFFFFFFFFFF80
BFFFFFFFFFE4008FFFFFFFFFE500
AFFFFFFFFC20008FFFFFFFFD3000
5EFFFFFFA100003DFFFFFFB10000
ENDCHAR
STARTCHAR Y
ENCODING 89
SWIDTH 805 0
DWIDTH 29 0
BBX 29 30 0 -4
BITMAP
000005655555571000036555555710
00008C0000000230005E0000000240
001AFC000000024008FE0000000140
02CFFC0003000241AFFE0002100140
1DFFFC000500024BFFFE0004100140
3FFFFC000500024FFFFE0004100140
4FFFFC000500025FFFFE0004100140
4FFFFC000500025FFFFE0004100140
4FFFFC000510006FFFFC0005100240
4FFFFC000330006FFFF40006000230
4FFFFE000060000CFF900015000510
4FFFFF5000150002ED100060000700
4FFFFFD10004300010000510004300
3FFFFFFA0000610000003300015000
1FFFFFFF6000060000015000060000
0AFFFFFFF300025000160000610000
01EFFFFFFD10002676500004300000
004FFFFFFFB0000050000015000000
0008FFFFFFF7000050000060000000
0000BFFFFFFF400050000610000000
00001EFFFFFFA00050000600000000
000004FFFFFFA00050000500000000
0000007FFFFFA00030000500000000
0000000BFFFFA00000000500000000
00000006FFFFA00000000500000000
00000006FFFFE54444447200000000
00000006FFFFFFFFFFFD3000000000
00000006FFFFFFFFFFC10000000000
00000005FFFFFFFFF9000000000000
00000001DFFFFFFE60000000000000
ENDCHAR
STARTCHAR Z
ENCODING 90
SWIDTH 760 0
DWIDTH 27 0
BBX 27 30 0 -4
BITMAP
0000007555555555555555555600
00002C7000000000000000000500
0004EF7000000000000000000500
006FFF7002666666666664000500
05FFFF7000000000000005000500
08FFFF7000000000000006000500
08FFFFC555555551000052000500
08FFFFFFFFFFFFB0000340000500
08FFFFFFFFFFFD10001600001600
08FFFFFFFFFFE300007000006000
03EFFFFFFFFF5000061000060000
0000000005F70000430000610000
000000003FA00002500004200000
00000002EC100016000033000000
0000001CE2000060000240000000
000000AF40000520001600000000
000007F600003400006000000000
00005F9000016000060000000000
0003EF1000070000465555555610
001DFC0000610000000000000060
00BFFC0002400000000000000050
08FFFC0003200000000000000050
1FFFFC0000655555555555500050
3FFFFC0000000000000000000050
3FFFFC0000000000000000000050
3FFFFF6444444444444444444630
3FFFFFFFFFFFFFFFFFFFFFFFE300
3FFFFFFFFFFFFFFFFFFFFFFC2000
3FFFFFFFFFFFFFFFFFFFFFB10000
0BFFFFFFFFFFFFFFFFFFE8000000
ENDCHAR
STARTCHAR bracketleft
ENCODING 91
SWIDTH 529 0
DWIDTH 19 0
BBX 19 37 0 -7
BITMAP
00000166666666666600
00002C00000000000240
0004ED00000000000050
005FFD00000000000050
07FFFD00026555400050
1FFFFD00032000000050
2FFFFD00032000000150
2FFFFD00032000111520
2FFFFD00032000EFE300
2FFFFD00032000ED2000
2FFFFD00032000A10000
2FFFFD00032000500000
2FFFFD00032000500000
2FFFFD00032000500000
2FFFFD00032000500000
2FFFFD00032000500000
2FFFFD00032000500000
2FFFFD00032000500000
2FFFFD00032000500000
2FFFFD00032000500000
2FFFFD00032000500000
2FFFFD00032000500000
2FFFFD00032000500000
2FFFFD00032000500000
2FFFFD00032000500000
2FFFFD00032000755600
2FFFFD00032000000240
2FFFFD00032000000050
2FFFFD00032000000050
2FFFFD00026555400050
2FFFFD00000000000050
2FFFFE00000000000140
2FFFFF75555555555710
2FFFFFFFFFFFFFFFC100
2FFFFFFFFFFFFFFA0000
2FFFFFFFFFFFFF700000
0BFFFFFFFFFFE5000000
ENDCHAR
STARTCHAR backslash
ENCODING 92
SWIDTH 487 0
DWIDTH 18 0
BBX 18 38 0 -8
BITMAP
000005555555500000
0001B2000000320000
002DF2000000150000
04EFF4000000050000
6FFFF7000500050000
DFFFF9000500050000
DFFFFB000500050000
AFFFFD000500051000
8FFFFF000420023000
6FFFFF300140005000
4FFFFF500050005000
2FFFFF700050005000
0EFFFF900050005000
0CFFFFB00050005000
0AFFFFD00050004100
08FFFFF10032002300
06FFFFF30014000500
04FFFFF50005000500
02FFFFF70005000500
00EFFFF90005000500
00CFFFFB0005000500
00AFFFFE0005000410
008FFFFF1003200230
006FFFFF3001500050
003FFFFF5000500050
001FFFFF7000500050
000EFFFFA000500050
000CFFFFC000500050
000AFFFFE000510041
0008FFFFF100220024
0005FFFFF300000005
0003FFFFF500000005
0001FFFFFA00000025
0000EFFFFFFFFFFF90
0000CFFFFFFFFFF600
0000AFFFFFFFFE4000
00006FFFFFFFD30000
000003555554100000
ENDCHAR
STARTCHAR bracketright
ENCODING 93
SWIDTH 529 0
DWIDTH 19 0
BBX 19 37 0 -7
BITMAP
00000266666666666500
00003B00000000000420
0004EC00000000000230
006FFC00000000000230
07FFFC00055557000230
2FFFFC00000005000230
4FFFFC00000005000230
4FFFFE20000005000230
4FFFFFFFFA0005000230
4FFFFFFFFA0005000230
4FFFFFFFFA0005000230
1FFFFFFFFA0005000230
02559FFFFA0005000230
00005FFFFA0005000230
00005FFFFA0005000230
00005FFFFA0005000230
00005FFFFA0005000230
00005FFFFA0005000230
00005FFFFA0005000230
00005FFFFA0005000230
00005FFFFA0005000230
00005FFFFA0005000230
00005FFFFA0005000230
00005FFFFA0005000230
00005FFFFA0005000230
00005FFFF90005000230
00005E20000005000230
0001CC00000005000230
003DFC00000005000230
05EFFC00055557000230
2FFFFC00000000000230
4FFFFC00000000000230
4FFFFF65555555555700
4FFFFFFFFFFFFFFFB100
4FFFFFFFFFFFFFF90000
3FFFFFFFFFFFFF600000
1CFFFFFFFFFFD4000000
ENDCHAR
STARTCHAR asciicircum
ENCODING 94
SWIDTH 814 0
DWIDTH 29 0
BBX 28 25 0 1
BITMAP
0000000000016555555661000000
0000000000460000000006200000
0000000006900000000000700000
000000008F200266666100330000
0000001AFB000700000700060000
000000BFF6003300000420060000
000007FFF2006000000060033000
00000EFFD0006000500060006000
00005FFF90015004F30051006000
00009FFF40051008F70014005100
0000EFFF1006000CFB0006001400
0003FFFB0006001FFF1006000600
0007FFF70033005FFF4004200600
000BFFF20060009FFF8000600320
001FFFD0006000DFFFC000600050
005FFF90015002FFFFF100500060
009FFF50032006FFFFF500220051
00DFFF1000000AFFFFF900000014
03FFFB00000009FFFFFD00000005
07FFFC10000052EFFFFF50000016
0BFFFFFFFFFE50AFFFFFFFFFFFB1
1FFFFFFFFFD3006FFFFFFFFFF900
4FFFFFFFFC10002FFFFFFFFF6000
4FFFFFFFA000000CFFFFFFE40000
0355555300000001455554100000
ENDCHAR
STARTCHAR underscore
ENCODING 95
SWIDTH 834 0
DWIDTH 30 0
BBX 28 12 1 -8
BITMAP
0000036555555555555555555560
00005A0000000000000000000015
0007FA0000000000000000000005
01AFFA0005555555555555540005
1CFFFA0000000000000000000005
5FFFFA0000000000000000000005
5FFFFA0000000000000000000005
5FFFFE6555555555555555555582
5FFFFFFFFFFFFFFFFFFFFFFFFE40
5FFFFFFFFFFFFFFFFFFFFFFFC200
5FFFFFFFFFFFFFFFFFFFFFFA1000
1DFFFFFFFFFFFFFFFFFFFE700000
ENDCHAR
STARTCHAR grave
ENCODING 96
SWIDTH 600 0
DWIDTH 22 0
BBX 21 13 0 22
BITMAP
0000065555554200000000
0001A90000002355555510
001CF90000000000000070
03DFF90015542000000050
2EFFF90000024555520050
6FFFFA0000000000000050
6FFFFFB975310000000050
6FFFFFFFFFFFEDB9753270
6FFFFFFFFFFFFFFFFFFC20
5FFFFFFFFFFFFFFFFFA100
06ACEFFFFFFFFFFFF80000
0000012468ACDFFF600000
0000000000000021000000
ENDCHAR
STARTCHAR a
ENCODING 97
SWIDTH 830 0
DWIDTH 30 0
BBX 28 30 1 -4
BITMAP
0000000004655555555555600000
000000007A000000000000240000
0000001AF4000000000000060000
000002CFD0000666666300042000
00002EFF70006100000610005000
00008FFF10024000000160005000
0000EFFA00060001100060002400
0005FFF40006000EF40024000500
000BFFD00042004FF90006000410
002FFF700060009FFD0004200050
007FFF20015000EFFF3000600050
00DFFC00060003FFFF8000510032
04FFF700060008FFFFC000240005
09FFF40006000000000000060006
1EFFF20015000000000000060006
5FFFF10014000000000000050006
9FFFF10018555555555555570006
CFFFF10014000000000000050006
DFFFF10014000000000000050006
EFFFF10014000555555200050006
EFFFF10014000FFFFFF500050006
EFFFF10014000FFFFFF500050006
EFFFF10013000FFFFFF500040006
EFFFF10000000FFFFFF500000006
EFFFF100000015AFFFF500000006
EFFFF944444482AFFFFC54444456
EFFFFFFFFFFE40AFFFFFFFFFFF80
EFFFFFFFFFC200AFFFFFFFFFE500
DFFFFFFFF900009FFFFFFFFD3000
8FFFFFFE6000004EFFFFFFB10000
ENDCHAR
STARTCHAR b
ENCODING 98
SWIDTH 825 0
DWIDTH 30 0
BBX 29 30 1 -4
BITMAP
000006555555555555555650000000
0000AA000000000000000017200000
001CF9000000000000000000700000
03DFF9000466666666650000150000
2EFFF9000500000000018100050000
5FFFF9000500000000002600050000
6FFFF900050004FFFC000600050000
6FFFF900050004FFFF200500050000
6FFFF900050004FFFF200500060000
6FFFF900050004EEEA000500330000
6FFFF9000500000000000503700000
6FFFF9000500000000017100362000
6FFFF9000555555556796510005100
6FFFF9000500000000000063000600
6FFFF9000500000000000008000600
6FFFF900050004FFFFF70006000500
6FFFF900050004FFFFFB0005000410
6FFFF900050004FFFFFB0005000410
6FFFF900050004FFFFF90005000410
6FFFF9000500014444400006000410
6FFFF9000500000000000007000510
6FFFF9000500000000000054000600
6FFFF9000455555555555520000600
6FFFF9000000000000000000004200
6FFFFA000000000000000000054000
6FFFFE544444444444444569C30000
6FFFFFFFFFFFFFFFFFFFFFFC200000
6FFFFFFFFFFFFFFFFFFFFFA1000000
5FFFFFFFFFFFFFFFFFFFF800000000
1DFFFFFFFFFFFFFFFEC82000000000
ENDCHAR
STARTCHAR c
ENCODING 99
SWIDTH 728 0
DWIDTH 26 0
BBX 25 30 1 -4
BITMAP
00000000155655555555555630
00000005610000000000000060
00000082000000000000000060
00001B40000466666666500060
0003DC00008300000000000060
005EF700061000000000000060
04FFF500060000245555555740
0DFFF400050004FFFFFFFFF600
5FFFF400050008FFFFFFFD3000
9FFFF400050008FFFFFFB10000
BFFFF400050008FFFFE8000000
CFFFF400050005000000000000
CFFFF400050005000000000000
CFFFF400050005000000000000
CFFFF400050005000000000000
CFFFF400050005000000000000
CFFFF400050005000000000000
CFFFF400050005100000000000
CFFFF400050000655555555610
CFFFF500060000000000000060
CFFFF700061000000000000060
CFFFFB00007200000000000060
AFFFFF30000465555555500060
8FFFFFD1000000000000000060
5FFFFFFE500000000000000050
0DFFFFFFFEA755444444444620
05FFFFFFFFFFFFFFFFFFFFD300
009FFFFFFFFFFFFFFFFFFC1000
0007EFFFFFFFFFFFFFFFA00000
000016ADEFFFFFFFFFE7000000
ENDCHAR
STARTCHAR d
ENCODING 100
SWIDTH 846 0
DWIDTH 30 0
BBX 29 30 1 -4
BITMAP
000006555555555555555665100000
0000AA000000000000000001560000
001CF9000000000000000000016000
03DFF9000466666666666200002400
2EFFF9000500000000000470000600
5FFFF9000500000000000016000510
6FFFF9000500003333200006000330
6FFFF900050003FFFFF70006000240
6FFFF900050003FFFFFB0005000140
6FFFF900050003FFFFFC0005000140
6FFFF900050003FFFFFC0005000140
6FFFF900050003AFFFFC0005000140
6FFFF9000500036FFFFC0005000140
6FFFF9000500036FFFFC0005000140
6FFFF9000500036FFFFC0005000140
6FFFF9000500036FFFFC0005000140
6FFFF9000500036FFFFB0005000140
6FFFF9000500036FFFFA0005000140
6FFFF9000500027AAA920005000240
6FFFF9000500000000000006000330
6FFFF9000500000000000016000510
6FFFF9000500000000000370000600
6FFFF9000455555555556300002500
6FFFF9000000000000000000018000
6FFFFA000000000000000000591000
6FFFFE5444444444444557AD800000
6FFFFFFFFFFFFFFFFFFFFFE5000000
6FFFFFFFFFFFFFFFFFFFFD30000000
5FFFFFFFFFFFFFFFFFFFA100000000
1DFFFFFFFFFFFFFEDB720000000000
ENDCHAR
STARTCHAR e
ENCODING 101
SWIDTH 754 0
DWIDTH 27 0
BBX 26 30 1 -4
BITMAP
00000655555555555555555571
0000AA00000000000000000014
001CF900000000000000000014
03DFF900046666666666640014
2EFFF900050000000000000014
5FFFF900050000000000000034
6FFFF900050004CCCCCCCCCCA0
6FFFF900050005FFFFFFFFF700
6FFFF900050005FFFFFFFE3000
6FFFF900050000000000043000
6FFFF900050000000000005000
6FFFF900050000000000005000
6FFFF900065555555540005000
6FFFF900050000000000005000
6FFFF900050000000000015000
6FFFF900050002666666671000
6FFFF900050005FFFFFFB10000
6FFFF900050005FFFFF9000000
6FFFF900050003AAAA95555550
6FFFF900050000000000000033
6FFFF900050000000000000014
6FFFF900050000000000000014
6FFFF900045555555555540014
6FFFF900000000000000000014
6FFFFA00000000000000000024
6FFFFE54444444444444444461
6FFFFFFFFFFFFFFFFFFFFFFB10
6FFFFFFFFFFFFFFFFFFFFF9000
5FFFFFFFFFFFFFFFFFFFF70000
1DFFFFFFFFFFFFFFFFFD400000
ENDCHAR
STARTCHAR f
ENCODING 102
SWIDTH 718 0
DWIDTH 26 0
BBX 25 30 1 -4
BITMAP
00000655555555555555555640
0000AA00000000000000000050
001CF900000000000000000050
03DFF900046666666666600050
2EFFF900050000000000000050
5FFFF900050000000000000060
6FFFF900050002CCCCCCCCCC30
6FFFF900050003FFFFFFFFC200
6FFFF900050003FFFFFFF90000
6FFFF900050003FFFFFF900000
6FFFF900050000000000160000
6FFFF900050000000000050000
6FFFF900050000000000050000
6FFFF900066666666610050000
6FFFF900050000000000050000
6FFFF900050000000000050000
6FFFF900050000000000150000
6FFFF900050003FFFFFF900000
6FFFF900050003FFFFF7000000
6FFFF900050003FFFE50000000
6FFFF900050003FFD300000000
6FFFF900050003641000000000
6FFFF900010003200000000000
6FFFF900000003200000000000
6FFFFA00000003200000000000
6FFFFE54444446000000000000
6FFFFFFFFFFF90000000000000
6FFFFFFFFFF700000000000000
5FFFFFFFFE5000000000000000
1DFFFFFFD30000000000000000
ENDCHAR
STARTCHAR g
ENCODING 103
SWIDTH 808 0
DWIDTH 29 0
BBX 28 30 1 -4
BITMAP
0000000015565555555555564000
0000000561000000000000005000
0000008200000000000000005000
00001C4000046666666661005000
0003DB0000830000000000005000
005EF70006100000000000006000
04FFF50006000024555555567000
0DFFF400050004FFFFFFFFF80000
5FFFF400050009FFFFFFFE500000
9FFFF400050009FFFFFFD3000000
BFFFF400050009FFFFFA10000000
CFFFF40005000500003655555540
CFFFF40005000500049000000050
CFFFF400050005006F8000000041
CFFFF40005000507FF8000000041
CFFFF4000500069FFF8000500041
CFFFF400050009FFFF8000500041
CFFFF400050008FFFF8000500041
CFFFF400050003DEEE8000500041
CFFFF50006000000000000500041
CFFFF70006200000000000500041
CFFFFB0000740000000000500041
AFFFFF3000026655555555600041
8FFFFFD100000000000000000041
5FFFFFFE50000000000000000051
0DFFFFFFFEA75544444444444560
05FFFFFFFFFFFFFFFFFFFFFFF900
009FFFFFFFFFFFFFFFFFFFFF6000
0007EFFFFFFFFFFFFFFFFFE40000
000016ADEFFFFFFFFFFFFC300000
ENDCHAR
STARTCHAR h
ENCODING 104
SWIDTH 859 0
DWIDTH 31 0
BBX 29 30 1 -4
BITMAP
000006555555570000056555555710
0000AA0000000320009D0000000150
001CF900000003202CFC0000000050
03DFF90005000324EFFC0004100050
2EFFF9000500034FFFFC0004100050
5FFFF9000500035FFFFC0004100050
6FFFF9000500035FFFFC0004100050
6FFFF9000500035FFFFC0004100050
6FFFF9000500027AAAA80004100050
6FFFF9000500000000000004100050
6FFFF9000500000000000004100050
6FFFF9000500000000000004100050
6FFFF9000655555555555558100050
6FFFF9000500000000000004100050
6FFFF9000500000000000004100050
6FFFF9000500000000000004100050
6FFFF9000500015555540004100050
6FFFF900050003FFFFFC0004100050
6FFFF900050003FFFFFC0004100050
6FFFF900050003FFFFFC0004100050
6FFFF900050003FFFFFC0004100050
6FFFF9000500035FFFFC0004100050
6FFFF9000300035FFFFC0003100050
6FFFF9000000035FFFFC0000000050
6FFFFA000000035FFFFC0000000150
6FFFFE544444483FFFFF6444444720
6FFFFFFFFFFFC23FFFFFFFFFFFD200
6FFFFFFFFFF9003FFFFFFFFFFB1000
5FFFFFFFFF60003FFFFFFFFF800000
1DFFFFFFD400000BFFFFFFE5000000
ENDCHAR
STARTCHAR i
ENCODING 105
SWIDTH 705 0
DWIDTH 25 0
BBX 24 30 1 -4
BITMAP
000037555555555555555571
0006E1000000000000000015
009FF1000000000000000005
1BFFF1004666667666640005
CFFFF1000000024000000005
EFFFF1000000024000000015
EFFFFB8887000240006888A1
EFFFFFFFFE00024000CFFC20
EFFFFFFFFE00024000CF9100
EFFFFFFFFE00024000C60000
6CCCCFFFFE00024000600000
00001FFFFE00024000500000
00001FFFFE00024000500000
00001FFFFE00024000500000
00001FFFFE00024000500000
00001FFFFE00024000500000
00001FFFFE00024000500000
00001FFFFE00024000500000
00001DAAA900024000655560
0001A2000000024000000024
002CF1000000024000000005
03DFF1000000024000000005
4EFFF1004555566555540005
DFFFF1000000000000000005
EFFFF1000000000000000015
EFFFF9444444444444444471
EFFFFFFFFFFFFFFFFFFFFC10
EFFFFFFFFFFFFFFFFFFFA000
EFFFFFFFFFFFFFFFFFF80000
8FFFFFFFFFFFFFFFFE500000
ENDCHAR
STARTCHAR j
ENCODING 106
SWIDTH 788 0
DWIDTH 28 0
BBX 27 31 0 -5
BITMAP
0000000000000000017555555560
00000000000000002D6000000050
0000000000000005EF5000000050
000000000000007FFF5000300050
00000000000006FFFF5000500050
0000000000000AFFFF5000500050
0000000000000AFFFF5000500050
0000000000000AFFFF5000500050
0000000000000AFFFF5000500050
0000000000000AFFFF5000500050
0000000000000AFFFF5000500050
0000036555556CFFFF5000500050
00005A0000000AFFFF5000500050
0007F900000009FFFF5000500050
009FF900000009FFFF5000500050
0BFFF900050009FFFF5000500050
5FFFF900050009FFFF5000500050
6FFFF900050008FFFF5000500050
6FFFF900060002CEEB1000500050
6FFFFA0006100000000001500050
6FFFFB0001700000000006100060
6FFFFE0000362000000263000060
5FFFFF6000003555556400000240
4FFFFFE200000000000000001700
1FFFFFFE50000000000000038100
0BFFFFFFFD731000000036B90000
04FFFFFFFFFFFEDCCDEFFF600000
007FFFFFFFFFFFFFFFFFE4000000
0006FFFFFFFFFFFFFFFB20000000
000018DFFFFFFFFFFA5000000000
0000000256777653000000000000
ENDCHAR
STARTCHAR k
ENCODING 107
SWIDTH 846 0
DWIDTH 30 0
BBX 29 30 1 -4
BITMAP
000006555555570000276555556500
0000AA000000032005C10000000500
001CF900000003208F600000005100
03DFF9000500034CFE100510005000
2EFFF900050003EFF7000600051000
5FFFF900050003FFE1004200060000
6FFFF900050003FF80006000410000
6FFFF900050003FE10024000600000
6FFFF900050003F800060004300000
6FFFF9000500002100150002562000
6FFFF9000500000000600000006100
6FFFF9000500000000500000000600
6FFFF9000655555556656610000500
6FFFF9000500000000000063000320
6FFFF9000500000000000006000230
6FFFF9000500000000000005000230
6FFFF900050003FFFFF60005000230
6FFFF900050003FFFFFA0005000230
6FFFF900050003FFFFFB0005000230
6FFFF900050003FFFFFB0005000230
6FFFF900050003DFFFFB0005000230
6FFFF9000500037FFFFB0005000230
6FFFF9000300037FFFFB0003000230
6FFFF9000000037FFFFB0000000230
6FFFFA000000036FFFFB0000000320
6FFFFE544444475FFFFE6444444700
6FFFFFFFFFFFB14FFFFFFFFFFFA100
6FFFFFFFFFF8004FFFFFFFFFF80000
5FFFFFFFFF60004FFFFFFFFF600000
1DFFFFFFD300001CFFFFFFD4000000
ENDCHAR
STARTCHAR l
ENCODING 108
SWIDTH 795 0
DWIDTH 29 0
BBX 27 30 1 -4
BITMAP
0000065555555700000000000000
0000AA0000000320000000000000
001CF90000000320000000000000
03DFF90003000320000000000000
2EFFF90005000320000000000000
5FFFF90005000320000000000000
6FFFF90005000320000000000000
6FFFF90005000320000000000000
6FFFF90005000320000000000000
6FFFF90005000320000000000000
6FFFF90005000320000000000000
6FFFF90005000320002655555530
6FFFF9000500032003B000000060
6FFFF900050003204EB000000050
6FFFF90005000326FFB000000050
6FFFF900050003AFFFB000500050
6FFFF900050003FFFFB000500050
6FFFF900050003FFFFB000500050
6FFFF900050003FFFFB000500050
6FFFF90005000000000000500050
6FFFF90005000000000000500050
6FFFF90005000000000000500050
6FFFF90004555555555555600050
6FFFF90000000000000000000050
6FFFFA0000000000000000000050
6FFFFE5444444444444444444550
6FFFFFFFFFFFFFFFFFFFFFFFF700
6FFFFFFFFFFFFFFFFFFFFFFE5000
5FFFFFFFFFFFFFFFFFFFFFD30000
1DFFFFFFFFFFFFFFFFFFFB100000
ENDCHAR
STARTCHAR m
ENCODING 109
SWIDTH 949 0
DWIDTH 34 0
BBX 32 30 1 -4
BITMAP
00000655555556300000005655555563
0000AA000000006000001A5000000005
001CF900000000160002CB0000000005
03DFF90003660004205EF20036700005
2EFFF9000601600065FF800160320005
5FFFF900050034002EFD100700320005
6FFFF9000500061007F5005200320005
6FFFF900050000700030025000320005
6FFFF900050000250000060000320005
6FFFF900050000043000610000320005
6FFFF900050000006104300000320005
6FFFF900050002000553002100320005
6FFFF900050006400000009100320005
6FFFF900050006B0000002F100320005
6FFFF900050006F400000AF100320005
6FFFF900050006FC00003FF100320005
6FFFF900050006FFC889EFF100320005
6FFFF900050006FFFFFFFFF100320005
6FFFF900050006FFFEFFFFF100320005
6FFFF900050006FFD2EFFFF100320005
6FFFF900050006EA10EFFFF100320005
6FFFF9000500050000EFFFF100320005
6FFFF9000200050000EFFFF100110005
6FFFF9000000050000EFFFF100000005
6FFFFA000000050000EFFFF200000005
6FFFFE544444550000EFFFF944444464
6FFFFFFFFFFF700000EFFFFFFFFFFE50
6FFFFFFFFFE5000000EFFFFFFFFFD200
5FFFFFFFFD30000000DFFFFFFFFB1000
1DFFFFFFB2000000008FFFFFFE800000
ENDCHAR
STARTCHAR n
ENCODING 110
SWIDTH 853 0
DWIDTH 31 0
BBX 29 30 1 -4
BITMAP
000006555556600000066555555700
0000AA000000280001BC0000000410
001CF900000002904EFC0000000420
03DFF9000660003BFFFC0005000420
2EFFF90005250004FFFC0005000420
5FFFF900050340005FFC0005000420
6FFFF9000500430005FC0005000420
6FFFF90005000520006B0005000420
6FFFF9000500006100040005000420
6FFFF9000500000710000005000420
6FFFF9000500000070000005000420
6FFFF9000500000016000005000420
6FFFF9000500010002600005000420
6FFFF9000500065000350005000420
6FFFF900050006F300034005000420
6FFFF900050006FD10004305000420
6FFFF900050006FFC0000525000420
6FFFF900050006FFF9000066000420
6FFFF900050006FFFF700009000420
6FFFF900050006FFFFF40005000420
6FFFF900050006FFFFFB0005000420
6FFFF900050006FFFFFC0005000420
6FFFF900030006FFFFFC0003000420
6FFFF900000005BFFFFC0000000420
6FFFFA000000054FFFFC0000000420
6FFFFE544444574FFFFF6444444800
6FFFFFFFFFFF904FFFFFFFFFFFB100
6FFFFFFFFFF7004FFFFFFFFFF80000
5FFFFFFFFE40003FFFFFFFFF600000
1DFFFFFFC200000CFFFFFFD3000000
ENDCHAR
STARTCHAR o
ENCODING 111
SWIDTH 837 0
DWIDTH 30 0
BBX 28 32 1 -5
BITMAP
0000000000024555555541000000
0000000026642000000025662000
0000000640000000000000005600
0000028100004555555520000260
00003D2000362000000047100043
0006F90002500000000000700006
008FF60006000000000000150006
08FFF400050002BEFEA100050005
2FFFF400050008FFFFF600050005
7FFFF400050009FFFFF700050005
AFFFF400050009FFFFF700050005
BFFFF400050008EFFFF700050005
CFFFF4000500059FFFF700050005
CFFFF4000500058FFFF700050005
CFFFF4000500058FFFF700050005
CFFFF4000500058FFFF700050005
CFFFF4000500058FFFF700050005
CFFFF4000500058FFFF700050005
CFFFF4000500058FFFF600050005
CFFFF400050003BFFFD100050005
CFFFF40006000001210000150005
CFFFF50002500000000000700006
CFFFF90000362000000047100006
BFFFFE1000003555555520000034
AFFFFFA000000000000000000180
7FFFFFFB30000000000000004800
2FFFFFFFFC7310000000148C8000
09FFFFFFFFFFFEDCCCDEFFE50000
01CFFFFFFFFFFFFFFFFFFD300000
0019FFFFFFFFFFFFFFFFA1000000
000029EFFFFFFFFFFE9400000000
0000000256777764200000000000
ENDCHAR
STARTCHAR p
ENCODING 112
SWIDTH 782 0
DWIDTH 28 0
BBX 27 30 1 -4
BITMAP
0000065555555555555555400000
0000AA0000000000000000154000
001CF90000000000000000004500
03DFF90004666666666630000710
2EFFF90005000000000046000150
5FFFF90005000000000002400060
6FFFF90005000277760000600050
6FFFF900050004FFFF7000500050
6FFFF900050004FFFFA000500050
6FFFF900050004FFFFA000500050
6FFFF900050004FFFF9000500050
6FFFF900050004FFFE4000500050
6FFFF90005000000000000600050
6FFFF90005000000000002500060
6FFFF90005000000000036000160
6FFFF90005655555555530000610
6FFFF90005000000000000002600
6FFFF90005000000000000057000
6FFFF90005000144444569D50000
6FFFF900050003FFFFFFFD300000
6FFFF900050003FFFFFFC2000000
6FFFF900050003FFFFF910000000
6FFFF900040003FEC82000000000
6FFFF90000000320000000000000
6FFFFA0000000320000000000000
6FFFFE5444444800000000000000
6FFFFFFFFFFFC200000000000000
6FFFFFFFFFFA1000000000000000
5FFFFFFFFF700000000000000000
1DFFFFFFD4000000000000000000
ENDCHAR
STARTCHAR q
ENCODING 113
SWIDTH 837 0
DWIDTH 30 0
BBX 28 35 1 -8
BITMAP
0000000000014555555541000000
0000000026642000000025661000
0000000540000000000000005500
0000018100000000000000000260
00002C2000004555555520000052
0004EA0000362000000047100006
006FF60002500000000000700006
05FFF40006000000000000150005
1EFFF400050002BEFEA100050005
6FFFF400050008FFFFF600050005
9FFFF400050009FFFFF700050005
BFFFF400050009FFFFF700050005
CFFFF400050008EFFFF700050005
CFFFF4000500059FFFF700050005
CFFFF4000500058FFFF700050005
CFFFF4000500058FFFF700050005
CFFFF4000500058FFFF700050005
CFFFF4000500058FFFF700050005
CFFFF4000500058FFFF700050005
CFFFF4000500058FFFF600050005
CFFFF400060003CFFFE200050005
CFFFF50006000013431000150005
CFFFF80002500000000000700005
BFFFFD0000462000000037200015
AFFFFF6000004655755530000060
8FFFFFF500000000500000000620
4FFFFFFFA4000000500000159200
0DFFFFFFFFEB300020005CFA1000
04FFFFFFFFFF500000008F800000
006FFFFFFFFF5000000086000000
0003CFFFFFFFC555555650000000
0000037DFFFFFFFFFFF600000000
0000000AFFFFFFFFFE4000000000
0000000AFFFFFFFFD20000000000
00000005EFFFFFFA100000000000
ENDCHAR
STARTCHAR r
ENCODING 114
SWIDTH 843 0
DWIDTH 30 0
BBX 29 30 1 -4
BITMAP
000006555555555555555663000000
0000AA000000000000000004600000
001CF9000000000000000000250000
03DFF9000566666666761000060000
2EFFF9000500000000017100033000
5FFFF9000500000000001600015000
6FFFF900050004FFF9000600005000
6FFFF900050004FFFF000500005000
6FFFF900050004FFFF100500014000
6FFFF900050004FFFE000500051000
6FFFF900050002AA94000600260000
6FFFF9000500000000000600552000
6FFFF9000500000000006100004300
6FFFF9000655555555685530000610
6FFFF9000500000000000035000150
6FFFF9000500000000000005200050
6FFFF9000500000000000001500050
6FFFF900050004FFFFFC0000500050
6FFFF900050004FFFFFF2000500050
6FFFF900050004FFFFFF3000500050
6FFFF900050004FFFFFF3000500050
6FFFF9000500048FFFFF3000500050
6FFFF9000100042DFFFF3000100050
6FFFF9000000042DFFFF3000000050
6FFFFA000000041DFFFF3000000050
6FFFFE544444450DFFFFA444444540
6FFFFFFFFFFF800DFFFFFFFFFFE400
6FFFFFFFFFF6000DFFFFFFFFFD3000
5FFFFFFFFE40000CFFFFFFFFC10000
1DFFFFFFD3000006EFFFFFF9000000
ENDCHAR
STARTCHAR s
ENCODING 115
SWIDTH 750 0
DWIDTH 27 0
BBX 26 30 1 -4
BITMAP
00000000455555555555555700
00000036100000000000000320
00000560000000000000000320
00008A00002666666666300320
001AF400044000000000000320
01CFF100060000000000000320
0CFFF000140002555555555900
6FFFF00014000BFFFFFFFFC100
CFFFF000140008EFFFFFF90000
EFFFF00014000001357AB30000
FFFFF000060000000000027200
FFFFF100054000000000000430
FFFFF400002555530000000060
FFFFFB00000000035553000033
FFFFFF91000000000003500005
EFFFFFFE730000000000500005
AFFFFFFFFFECA8641000320005
4FFFFFFFFFFFFFFFC000330005
06FFFFFFFFFFFFFFA000330005
003AF400000000000000420005
0009F000000000000000600005
01BFF000000000000005400032
3DFFF000455555555662000060
DFFFF000000000000000000530
FFFFF000000000000000017400
FFFFF844444444444456AC2000
FFFFFFFFFFFFFFFFFFFFB10000
FFFFFFFFFFFFFFFFFFF9000000
FFFFFFFFFFFFFFFFFE60000000
9FFFFFFFFFFFFFDB7100000000
ENDCHAR
STARTCHAR t
ENCODING 116
SWIDTH 756 0
DWIDTH 27 0
BBX 28 30 0 -4
BITMAP
0000275555555555555555555570
0004E20000000000000000000041
007FF20000000000000000000042
1AFFF20046666667666666630042
AFFFF20000000004200000000042
DFFFF20000000004200000000042
DFFFFA5555530004200045555590
DFFFFFFFFFFB00042000DFFFFC20
DFFFFFFFFFFB00042000DFFF9000
DFFFFFFFFFFB00042000DFF60000
7EFFFFFFFFFB00042000DD300000
0000004FFFFB0004200050000000
0000004FFFFB0004200050000000
0000004FFFFB0004200050000000
0000004FFFFB0004200050000000
0000004FFFFB0004200050000000
0000004FFFFB0004200050000000
0000004FFFFB0004200050000000
0000004FFFFB0004200050000000
0000004FFFFB0004200050000000
0000004FFFFB0004200050000000
0000004FFFFB0004200050000000
0000004FFFFB0002100050000000
0000004FFFFB0000000050000000
0000004FFFFB0000000050000000
0000004FFFFE6444444630000000
0000004FFFFFFFFFFFE300000000
0000004FFFFFFFFFFC2000000000
0000004FFFFFFFFFA10000000000
0000001CFFFFFFE7000000000000
ENDCHAR
STARTCHAR u
ENCODING 117
SWIDTH 846 0
DWIDTH 30 0
BBX 29 31 1 -5
BITMAP
000007555555560000066555555600
0001B7000000050000AA0000000500
003DF700000005101CF90000000510
05EFF70003000513DFF90003000510
4FFFF7000500053EFFF90005000510
8FFFF7000500056FFFF90005000510
8FFFF7000500056FFFF90005000510
8FFFF7000500056FFFF90005000510
8FFFF7000500056FFFF90005000510
8FFFF7000500056FFFF90005000510
8FFFF7000500056FFFF90005000510
8FFFF7000500056FFFF90005000510
8FFFF7000500056FFFF90005000510
8FFFF7000500056FFFF90005000510
8FFFF7000500056FFFF90005000510
8FFFF7000500056FFFF90005000510
8FFFF7000500056FFFF90005000510
8FFFF7000500047FFFF90005000510
8FFFF7000500019FFFD30005000510
8FFFF7000510000011000006000500
8FFFF9000070000000000052000600
8FFFFC000027300000002630000600
8FFFFF300000355555553000002500
6FFFFFD10000000000000000018000
3FFFFFFD5000000000000000491000
0DFFFFFFFD8410000000137C900000
06FFFFFFFFFFFEDCCCDEFFF6000000
009FFFFFFFFFFFFFFFFFFE40000000
0007FFFFFFFFFFFFFFFFB200000000
000017DFFFFFFFFFFEA40000000000
000000024677776530000000000000
ENDCHAR
STARTCHAR v
ENCODING 118
SWIDTH 830 0
DWIDTH 30 0
BBX 28 30 1 -4
BITMAP
0000275555556500001755555565
0004E2000000050003D400000006
006FF100000005004EF400000006
09FFF10003000507FFF400030006
9FFFF1000500057FFFF400050006
EFFFF100050005BFFFF400050006
EFFFF100050005CFFFF400050006
EFFFF100050005CFFFF400050006
EFFFF100050005CFFFF400050006
EFFFF100050005CFFFF400050006
EFFFF100050005CFFFF400050006
EFFFF100050005CFFFF300050006
EFFFF200060004CFFFF100060006
EFFFF500060000EFFFB000330006
EFFFFA00042000AFFF5000600024
EFFFFF100060004FFF1000600060
CFFFFF700060000EFA0004200060
AFFFFFD000150009F50006000410
5FFFFFF400060002600024000600
0EFFFFFA00033000000060002400
08FFFFFF20006000000150006000
02FFFFFF80004300000600006000
00BFFFFFE0000455556200051000
004FFFFFF5000000000000060000
000DFFFFFB000000000000330000
0007FFFFFF954444444446700000
0001FFFFFFFFFFFFFFFFF8000000
0000AFFFFFFFFFFFFFFE50000000
00004FFFFFFFFFFFFFD300000000
000008EFFFFFFFFFFA1000000000
ENDCHAR
STARTCHAR w
ENCODING 119
SWIDTH 931 0
DWIDTH 34 0
BBX 32 30 1 -4
BITMAP
00001755555565000000004655555571
0002D50000000500000007E000000023
004EF400000005000001AFE000000024
06FFF40003000500002CFFE000310024
6FFFF4000500050000DFFFE000410024
AFFFF4000500050001FFFFE000410024
BFFFF4000500050001FFFFE000410024
BFFFF4000500050001FFFFE000410024
BFFFF4000500050166ABFFE000410024
BFFFF4000500053900006FE000410024
BFFFF400050007E300000CE000410024
BFFFF400050008B0000006E000410024
BFFFF40005000850000000D000410024
BFFFF400050006002654006000410024
BFFFF400050001006004101000410024
BFFFF500050000041000600000410024
BFFFF500050000060000410000500023
BFFFF600050000420000060000500032
BFFFF900050000600680051000500060
AFFFFE00033004200EF1006000500060
AFFFFF40005006003FF6005102400150
9FFFFFA0006042007FFA000605100500
6FFFFFF100364000CFFE000355000600
1FFFFFF600000001FFFF300000003300
0AFFFFFC00000006FFFF800000006000
05FFFFFF9444445DFFFFE74444464000
00EFFFFFFFFFFF7FFFFFFFFFFFE40000
009FFFFFFFFFE40CFFFFFFFFFC200000
003FFFFFFFFD2007FFFFFFFFA1000000
0008EFFFFFA10001BFFFFFE700000000
ENDCHAR
STARTCHAR x
ENCODING 120
SWIDTH 837 0
DWIDTH 30 0
BBX 28 30 1 -4
BITMAP
0000175555556500001755555555
0002D5000000050002C700000005
004EF400000005005EF700000005
06FFF40005000508FFF700050005
6FFFF5000500066FFFF600050005
AFFFF500060002DFFFE100060005
BFFFF8000330006FFF4000520006
BFFFFD100061000AF80002500024
AFFFFF9000060000100006000070
AFFFFFF500024000000051000610
7FFFFFFE20005200000240004300
1EFFFFFFC0000600000600015000
06FFFFFFF6000386668100060000
00AFFFFFC0000600000600025000
001DFFFE20006100000240004300
0003EFF500043000000042000610
0000AF8000150001510006000060
0005FE100060001CFB0001600024
003EF8000510009FFF6000330006
01DFF500060004FFFFF200060005
09FFF500050009FFFFF600050005
3FFFF40005000AFFFFF700050005
8FFFF40003000AFFFFF700030005
AFFFF400000006DFFFF700000005
AFFFF5000000059FFFF700000005
BFFFFB544444558FFFFC54444456
BFFFFFFFFFFF608FFFFFFFFFFF80
BFFFFFFFFFE4008FFFFFFFFFE500
AFFFFFFFFC20008FFFFFFFFD3000
5EFFFFFFA100003DFFFFFFB10000
ENDCHAR
STARTCHAR y
ENCODING 121
SWIDTH 805 0
DWIDTH 29 0
BBX 29 30 0 -4
BITMAP
000005655555571000036555555710
00008C0000000230005E0000000240
001AFC000000024008FE0000000140
02CFFC0003000241AFFE0002100140
1DFFFC000500024BFFFE0004100140
3FFFFC000500024FFFFE0004100140
4FFFFC000500025FFFFE0004100140
4FFFFC000500025FFFFE0004100140
4FFFFC000510006FFFFC0005100240
4FFFFC000330006FFFF40006000230
4FFFFE000060000CFF900015000510
4FFFFF5000150002ED100060000700
4FFFFFD10004300010000510004300
3FFFFFFA0000610000003300015000
1FFFFFFF6000060000015000060000
0AFFFFFFF300025000160000610000
01EFFFFFFD10002676500004300000
004FFFFFFFB0000050000015000000
0008FFFFFFF7000050000060000000
0000BFFFFFFF400050000610000000
00001EFFFFFFA00050000600000000
000004FFFFFFA00050000500000000
0000007FFFFFA00030000500000000
0000000BFFFFA00000000500000000
00000006FFFFA00000000500000000
00000006FFFFE54444447200000000
00000006FFFFFFFFFFFD3000000000
00000006FFFFFFFFFFC10000000000
00000005FFFFFFFFF9000000000000
00000001DFFFFFFE60000000000000
ENDCHAR
STARTCHAR z
ENCODING 122
SWIDTH 760 0
DWIDTH 27 0
BBX 27 30 0 -4
BITMAP
0000007555555555555555555600
00002C7000000000000000000500
0004EF7000000000000000000500
006FFF7002666666666664000500
05FFFF7000000000000005000500
08FFFF7000000000000006000500
08FFFFC555555551000052000500
08FFFFFFFFFFFFB0000340000500
08FFFFFFFFFFFD10001600001600
08FFFFFFFFFFE300007000006000
03EFFFFFFFFF5000061000060000
0000000005F70000430000610000
000000003FA00002500004200000
00000002EC100016000033000000
0000001CE2000060000240000000
000000AF40000520001600000000
000007F600003400006000000000
00005F9000016000060000000000
0003EF1000070000465555555610
001DFC0000610000000000000060
00BFFC0002400000000000000050
08FFFC0003200000000000000050
1FFFFC0000655555555555500050
3FFFFC0000000000000000000050
3FFFFC0000000000000000000050
3FFFFF6444444444444444444630
3FFFFFFFFFFFFFFFFFFFFFFFE300
3FFFFFFFFFFFFFFFFFFFFFFC2000
3FFFFFFFFFFFFFFFFFFFFFB10000
0BFFFFFFFFFFFFFFFFFFE8000000
ENDCHAR
STARTCHAR braceleft
ENCODING 123
SWIDTH 555 0
DWIDTH 20 0
BBX 21 37 -1 -7
BITMAP
0000000000001566666500
0000000000265100000330
0000000004600000000140
0000000068000000000140
00000009E0000155400140
000001BF80002600000140
00001CFF50006000000240
0000AFFF30005000001610
0003FFFF200050005FD200
0008FFFF200050009C1000
000BFFFF20005000710000
000CFFFF20005000500000
000DFFFF20005000500000
000DFFE700006000500000
000DFF5000451000600000
000DFE0001400003500000
002EFD00032008D7000000
03EFFD0003300476100000
0DFFFF1000500000600000
1FFFFF8000253000500000
2FFFFFFB10005000500000
2FFFFFFF20005000500000
0EFFFFFF20005000500000
08FFFFFF20005000500000
006EFFFF20005000600000
000DFFFF30005000265500
000DFFFF40006000000330
000DFFFF70006000000140
000DFFFFB0001710000140
000CFFFFF4000056400140
000BFFFFFD200000000140
0009FFFFFFE50000000230
0005FFFFFFFFEA76555710
0000DFFFFFFFFFFFFFB100
00003EFFFFFFFFFFF90000
000002CFFFFFFFFF700000
000000048BDEFFD4000000
ENDCHAR
STARTCHAR bar
ENCODING 124
SWIDTH 447 0
DWIDTH 16 0
BBX 14 38 1 -8
BITMAP
00000355555562
00006800000006
0008F700000005
01BFF700000005
1CFFF700050005
7FFFF700050005
8FFFF700050005
8FFFF700050005
8FFFF700050005
8FFFF700050005
8FFFF700050005
8FFFF700050005
8FFFF700050005
8FFFF700050005
8FFFF700050005
8FFFF700050005
8FFFF700050005
8FFFF700050005
8FFFF700050005
8FFFF700050005
8FFFF700050005
8FFFF700050005
8FFFF700050005
8FFFF700050005
8FFFF700050005
8FFFF700050005
8FFFF700050005
8FFFF700050005
8FFFF700050005
8FFFF700050005
8FFFF700000005
8FFFF700000005
8FFFFB10000015
8FFFFFFFFFFF90
8FFFFFFFFFF700
8FFFFFFFFE4000
5FFFFFFFD20000
03555554100000
ENDCHAR
STARTCHAR braceright
ENCODING 125
SWIDTH 555 0
DWIDTH 20 0
BBX 21 37 0 -7
BITMAP
0000026666563000000000
00003B0000002550000000
0004EC0000000017100000
006FFC0000000001800000
07FFFC0005540000530000
2FFFFC0000027000060000
4FFFFC0000002400060000
4FFFFE2000000500060000
4FFFFFFFC1000500050000
4FFFFFFFF4000500050000
4FFFFFFFF4000500050000
1FFFFFFFF4000500050000
0256FFFFF4000500050000
0000BFFFF4000500037100
0000BFFFF5000462000700
0000BFFFF9000006000510
0000BFFFFFC93005000320
0000BFFFFFDA4005000320
0000AFFFFA000006000510
00007FFFF5000462000600
000006EFF4000500028100
000009FFF4000500061000
00006FFFF4000500050000
0000AFFFF4000500050000
0000BFFFF4000500050000
0000BFFFC1000500050000
0000BE2000000600050000
0001DC0000003300060000
003DFC0000036000150000
05EFFC0005630000710000
2FFFFC0000000004400000
4FFFFC0000000174000000
4FFFFF655568BD30000000
4FFFFFFFFFFFC100000000
4FFFFFFFFFFA0000000000
3FFFFFFFFE600000000000
1CFFFECA61000000000000
ENDCHAR
STARTCHAR asciitilde
ENCODING 126
SWIDTH 834 0
DWIDTH 30 0
BBX 28 14 1 4
BITMAP
0000000046655553100000002550
0000016520000013566666664034
00001A1000000000000000000005
0002DA0000000000000000000005
004EFA0006666554200000000005
05FFFA0000000001355556650005
2FFFFA0000000000000000000014
5FFFFA0000333200000000000160
5FFFFE67BFFFFFFDB96432359910
5FFFFFFFFFFFFFFFFFFFFFFF9000
5FFFFFFFFFFFFFFFFFFFFFF60000
5FFFFFFFFFFFFFFFFFFFFE500000
1DEA63112468ACEFFFFB71000000
0000000000000001220000000000
ENDCHAR
STARTCHAR uni00A0
ENCODING 160
SWIDTH 325 0
DWIDTH 12 0
BBX 1 1 0 0
BITMAP
00
ENDCHAR
STARTCHAR exclamdown
ENCODING 161
SWIDTH 523 0
DWIDTH 19 0
BBX 15 30 2 -4
BITMAP
0000275555555650
0004E30000000050
007FF30003000050
1AFFF30005000050
AFFFF30000000050
CFFFF30000000050
CFFFF70000000170
CFFFFFFFFFFFFB10
CFFFFFFFFFFFB100
CFFFFE4222222610
7FFFFA0000000140
006FF90000000050
07FFF90005000050
3FFFF80005000050
5FFFF80005000050
6FFFF70005000050
7FFFF70005000050
7FFFF60005000050
8FFFF50005000050
8FFFF50005000050
9FFFF40005000050
9FFFF40005000050
AFFFF30000000060
AFFFF20000000050
BFFFF20000000050
CFFFF94444444540
CFFFFFFFFFFFF600
DFFFFFFFFFFE4000
DFFFFFFFFFD20000
7FFFFFFFFB100000
ENDCHAR
STARTCHAR cent
ENCODING 162
SWIDTH 728 0
DWIDTH 26 0
BBX 25 35 1 -6
BITMAP
00000000000055555555000000
00000000000860000001400000
0000000001AF40000000500000
000000001CFF40000000500000
00000002DFB920003000211110
0000001B710000005000000050
000002C2000000005000000060
00004E50000465557555500060
0006FC00007200000000000060
007FF800061000000000000060
06FFF500060000000000000260
1EFFF400050002CFFFFFFFFA00
5FFFF400050007FFFFFFFF7000
9FFFF400050008FFFFFFE40000
BFFFF400050008FFFFFC200000
CFFFF400050006555540000000
CFFFF400050005000000000000
CFFFF400050005000000000000
CFFFF400050005000000000000
CFFFF400050006100000000000
CFFFF400060001655555555610
CFFFF600061000000000000060
CFFFF900017200000000000060
BFFFFE10000465557555500060
9FFFFF80000000005000000060
7FFFFFF7000000005000000060
2FFFFFFFC62000005000000060
0BFFFFFFFFFE40001000ACCC20
03EFFFFFFFFF40000000EFC100
005FFFFFFFFF50000000E90000
0004CFFFFFFFB5555558700000
0000047DFFFFFFFFFFD4000000
0000000BFFFFFFFFFC10000000
0000000AFFFFFFFF9000000000
00000005EFFFFFE70000000000
ENDCHAR
STARTCHAR sterling
ENCODING 163
SWIDTH 795 0
DWIDTH 29 0
BBX 29 30 -1 -4
BITMAP
000000000004655555555555600000
000000000372000000000000500000
000000007600000000000000500000
0000001AA000026666666200500000
000003DF3000640000000000500000
00005EFD0003400000000000500000
0003FFFB0005000000000000600000
000BFFFA000500009EFFFFFB100000
001FFFF900050002FFFFFF80000000
004FFFF900050003FFFFE500000000
005FFF2000050000007C2000000000
006FFD000005000000330000000000
01BFFD000559555300330000000000
0CFFFD000005000000332655555530
2FFFFD00000500000036B000000060
2FFFFF2000050000007FB000000050
2FFFFFF900050003FFFFB000000050
2FFFFFF900050003FFFFB000500050
2FFFFFF900050002CCCC8000500050
1EFFFFF90005000000000000500050
03AFFFF90005000000000000500050
006FFFF90005000000000000500050
006FFFF90004555555555555600050
006FFFF90000000000000000000050
006FFFFA0000000000000000000050
006FFFFE5444444444444444444550
006FFFFFFFFFFFFFFFFFFFFFFFF700
006FFFFFFFFFFFFFFFFFFFFFFE4000
005FFFFFFFFFFFFFFFFFFFFFD30000
001DFFFFFFFFFFFFFFFFFFFB100000
ENDCHAR
STARTCHAR currency
ENCODING 164
SWIDTH 921 0
DWIDTH 33 0
BBX 33 32 0 -5
BITMAP
0000000007600000000000000006600000
00000001A56800000000000001A6690000
0000002C30048000000000002B30059000
000004D30000373555555555B200005900
00006F3000100120000000021001000560
0006FE0000520000000000000016000140
006FFFA000062002555555200160001200
05FFFFFA00006253000000361700012000
1FFFFFFFB0000800000000008000130000
0DFFFFFFF9001400000000004100500000
02EFFFFFF90033005DFFD6002400600000
003EFFFFF9004100CFFFFD000500600000
0003EFFFF9004100DFFFFE000500600000
00005FFFF9004100DFFFFE000500600000
00005FFFF9004100DFFFFE000500600000
00005FFFF9004100DFFFFE000500600000
00005FFFF9004100DFFFFE000500600000
00005FFFF90033008FFFFA002400600000
00005FFFFA001500035530004200600000
00005FFFE3000900000000009000460000
00005FFE30006273000000372700045000
00005FE300061003555556300170004500
00005F3000610000000000000016000440
0002DE0000100010000000000001000160
002DFFA000001BFDA9999ACFB000001600
02DFFFFA0001CFFFFFFFFFFFFB10017000
0DFFFFFFA01CFFFFFFFFFFFFFFB1170000
1EFFFFFFFDDFFFFFFFFFFFFFFFFD800000
05FFFFFFF7579AAA9755FFFFFFF7000000
005FFFFE4000000000004FFFFF50000000
0005FFD300000000000004FFE300000000
0000481000000000000000382000000000
ENDCHAR
STARTCHAR yen
ENCODING 165
SWIDTH 803 0
DWIDTH 29 0
BBX 29 30 0 -4
BITMAP
000005655555571000036555555700
00009B0000000230005E0000000230
002CFB000000024008FF0000000230
04EFFB0003000241AFFF0002100230
2FFFFB000500024BFFFF0004100230
4FFFFB000500024FFFFF0004100230
4FFFFC000510024FFFFF0005100320
4FFFFD000320006FFFFD0005000410
4FFFFF100050006FFFF60005000500
4FFFFF900032000BFFB00031001500
3FFFFFF500040001CC100220006000
2FFFFFFE3000400000001300061000
0CFFFFFFD100130000004000420000
04FFFFFFFC00012000030003300000
007FFFFFBA50000030100007560000
000AFFFA0000000050000000015000
0001CFF80000000050000000005000
0001CFF80015555596555540005000
001DFFF80000000050000000005000
006FFFF90000000050000000006000
007FFFFD5444300050001444473000
007FFFFFFFFFC00050002FFFE50000
007FFFFFFFFFC00010002FFE300000
006FFFFFFFFFC00000002FD2000000
004FFFFFFFFFC00000003B10000000
00035557FFFFF64444447000000000
00000003FFFFFFFFFFFB1000000000
00000003FFFFFFFFFF900000000000
00000003FFFFFFFFF6000000000000
00000000CFFFFFFD40000000000000
ENDCHAR
STARTCHAR brokenbar
ENCODING 166
SWIDTH 447 0
DWIDTH 16 0
BBX 14 38 1 -8
BITMAP
00000355555562
00006800000006
0008F700000005
01AFF700000005
1CFFF700050005
7FFFF700050005
8FFFF700050005
8FFFF700050005
8FFFF700050005
8FFFF700050005
8FFFF700050005
8FFFF700050005
8FFFF700020005
8FFFF700000005
8FFFF800000005
8FFFFD54444464
8FFFFFFFFFFE50
8FFFFFFFFFE300
7FFFFFBAAA7562
3DFFF900000006
001AF700000005
02CFF700020005
2EFFF700050005
7FFFF700050005
8FFFF700050005
8FFFF700050005
8FFFF700050005
8FFFF700050005
8FFFF700050005
8FFFF700050005
8FFFF700000005
8FFFF700000005
8FFFFB10000016
8FFFFFFFFFFFA1
8FFFFFFFFFF800
8FFFFFFFFE5000
5FFFFFFFD30000
03555554100000
ENDCHAR
STARTCHAR section
ENCODING 167
SWIDTH 750 0
DWIDTH 27 0
BBX 26 30 1 -4
BITMAP
00000000255555555555555700
00000016400000000000000320
00000291000455555555300320
00004D10026100000000000320
0006F800060000000000000510
009FF400140007CDDDDDDDD700
09FFF10032001FFFFFFFFE4000
3FFFF000420000000125861000
9FFFF000420000000000006300
CFFFF000465555555662000620
EFFFF000420000000005500070
FFFFF100420017763000530051
FFFFF20033001FFFF100070024
FFFFF600050009EFF400060005
FFFFFC00061000000000050005
EFFFFF60007300000000050005
CFFFFFF6000365555555580005
9FFFFFFFC63000000000050005
3FFFFFFFFFFFEDDDD200050005
09FFFFFFFFFFFFFEA000050005
009FFA00000000000000050033
0009F600000000000002600060
008FF600255555555553000160
0AFFF600000000000000000710
7FFFF600000000000000038100
9FFFFC54444444444569C90000
9FFFFFFFFFFFFFFFFFFF600000
9FFFFFFFFFFFFFFFFFE4000000
9FFFFFFFFFFFFFFFFB20000000
4EFFFFFFFFFFEDB83000000000
ENDCHAR
STARTCHAR dieresis
ENCODING 168
SWIDTH 600 0
DWIDTH 22 0
BBX 23 12 -1 23
BITMAP
000002655555610655555620
00004B00000006B200000060
0005FB0000000DF100000050
007FFB0004000EF100400050
09FFFB0005000EF100500050
3FFFFB0000000EF100000050
4FFFFB0000000EF100000050
4FFFFE6555557FF955555540
4FFFFFFFFFFFFFFFFFFFE500
4FFFFFFFFFFFFFFFFFFE3000
4FFFFFFFFAEFFFFFFFC20000
1CFFFFFE709FFFFFFA100000
ENDCHAR
STARTCHAR copyright
ENCODING 169
SWIDTH 967 0
DWIDTH 35 0
BBX 33 38 1 -8
BITMAP
0000000000002555555555553100000000
0000000002554100000000002565100000
0000000164002565555555653001640000
0000002701664100000000002664035000
000003A036100001233332000003704400
00005E3260017BEFFFFFFFFD9400160600
0007FC06007FFFFFFFFFFFFFFFC2052420
008FF80606FFFFFFFFFFFFFFFFFD105150
05FFF6050DFFFE84100000001DFF505050
0DFFF51418439200000000000BFF805050
4FFFF414141B5001555555500BFF905050
7FFFF41417DE0027000000000BFF905050
9FFFF4141FFB0060003555556EFF905050
AFFFF4141FFB006004FFFFFFFFFF905050
BFFFF4141FFB005006FFFFEAFFFF905050
BFFFF4141FFB005006FFFD26FFFF905050
BFFFF4141FFB005006FFB106FFFF905050
BFFFF4141FFB005005000006FFFF905050
BFFFF4141FFB005005000006FFFF905050
BFFFF4141FFB005005000006FFFF905050
BFFFF4141FFB006006100006FFFF905050
BFFFF4141FFB006001666668BFFF905050
BFFFF4141FFD0027000000000CFF905050
BFFFF4141FFF3002655555500BFF905050
BFFFF4141FFFC100000000000BFF905050
BFFFF5050FFFFC51000000000CFF805050
BFFFF7060CFFFFFFDCCCCCCCDFFF515050
AFFFFA0604FFFFFFFFFFFFFEFFFC061330
AFFFFE12704DFFFFFFFFFF96FF91350500
8FFFFF70371048BDEFFFEB576205501500
5FFFFFF501675100000000003662006000
2FFFFFFF70001566555555652000260000
0AFFFFFFFD72000000000000004A800000
03EFFFFFFFFFDA8765555679CFF6000000
005FFFFFFFFFFFFFFFFFFFFFFE40000000
0004DFFFFFFFFFFFFFFFFFFFC200000000
000017DFFFFFFFFFFFFFFFC60000000000
000000037ACDEFFFEDB962000000000000
ENDCHAR
STARTCHAR ordfeminine
ENCODING 170
SWIDTH 620 0
DWIDTH 22 0
BBX 22 30 0 -4
BITMAP
0000000055555555564000
0000000960000000005100
000001BE10055554001500
00002DFA00500002300600
0003EFF400500100500420
000AFFD004103F10320050
001FFF8005008F50050050
006FFF202300DFA0051024
00CFFD005003FFE1015005
02FFF90050001110005005
08FFF80050000000005005
0DFFF70075555555557005
3FFFF70050000000005005
6FFFF70050011111005005
7FFFF700500BFFF8005005
8FFFF700500BFFF8005005
8FFFF700000BFFF8000005
8FFFF700000CFFF8000005
8FFFFE9999AFFFFE999996
8FFFFFFFFDAFFFFFFFFE50
8FFFFFBAA68AAAAAAAA853
8FFFF80000000000000006
4EFFF70000000000000005
007FF70044444444444005
0AFFF70000000000000005
7FFFFC5444444444444456
8FFFFFFFFFFFFFFFFFFF80
8FFFFFFFFFFFFFFFFFF500
8FFFFFFFFFFFFFFFFE4000
4EFFFFFFFFFFFFFFC20000
ENDCHAR
STARTCHAR guillemotleft
ENCODING 171
SWIDTH 912 0
DWIDTH 33 0
BBX 32 23 0 -1
BITMAP
00000000000000156630000000003661
00000000000266510050000015663006
00000000266400000050015651000005
00000006500000000050461000000005
00000192000001500057400000042005
00002C600015640000AA000056510005
0003EF100450000000D6001710000005
005FFF000600000029F4005000000271
03FFFE000500038CFFF400500038DB10
0AFFFE0005000FFFFFF4005001FF9000
0EFFFE000500026AEFF4005000265510
0FFFFF000600000006F5005100000052
1FFFFF200361000000C7001730000005
1FFFFF600015652000BB000046630005
1FFFFFE20000003000BF600000022005
0FFFFFFE7100000000BFFA2000000005
0DFFFFFFFEA6100000BFFFFB73000005
09FFFFFFFFFFFC8300DFFFFFFFD95105
02EFFFFFFFFFFFFFECFFFFFFFFFFFFA1
002BFFFFFFFFFFFFCEFFFFFFFFFFF900
000038DFFFFFFFF9016BFFFFFFFF6000
000000026AEFFF600000159DFFE40000
00000000000473000000000036200000
ENDCHAR
STARTCHAR logicalnot
ENCODING 172
SWIDTH 834 0
DWIDTH 30 0
BBX 28 21 1 -2
BITMAP
0000026666666666666666666660
00003A0000000000000000000015
0005EA0000000000000000000005
006FFA0000000000000000000005
08FFFA0005555555555555560005
3FFFFA0000000000000000050005
5FFFFA0000000000000000050005
5FFFFD1000000000000000050005
5FFFFFFFFFFFFFFFFFFF00050005
5FFFFFFFFFFFFFFFFFFF00050005
5FFFFFFFFFFFFFFFFFFF00050005
2FFFFFFFFFFFFFFFFFFF00050005
024444444444445FFFFF00050005
000000000000000FFFFF00030005
000000000000000FFFFF00000005
000000000000000FFFFF00000005
000000000000000FFFFF84444461
000000000000000FFFFFFFFFFC20
000000000000000FFFFFFFFFB100
000000000000000FFFFFFFF90000
0000000000000009FFFFFE700000
ENDCHAR
STARTCHAR uni00AD
ENCODING 173
SWIDTH 520 0
DWIDTH 19 0
BBX 19 12 0 5
BITMAP
00000355555555555500
00006900000000000420
0008F900000000000330
01BFF900155555300330
1DFFF900000000000330
6FFFF900000000000330
6FFFF900000000000330
6FFFFD65555555555800
6FFFFFFFFFFFFFFFC200
6FFFFFFFFFFFFFFA1000
6FFFFFFFFFFFFF700000
2DFFFFFFFFFFD5000000
ENDCHAR
STARTCHAR registered
ENCODING 174
SWIDTH 660 0
DWIDTH 24 0
BBX 22 25 1 2
BITMAP
0000000002566665310000
0000000678655556886300
0000027661000000047650
00004B5328CEFFEDA50752
0006F662EFFFFFFFFF8336
008FF369D3333335DFF155
09FFF25AB06555403FF255
4FFFF25AB05000330EF255
9FFFF25AB050EB050EF255
CFFFF25AB050DA052FF255
DFFFF25AB05000253DF255
DFFFF25AB075569613F255
DFFFF25AB050452060E255
DFFFF25AB050EFA050E255
DFFFF25AB040EFB040E255
DFFFF36AC001EFB001F255
DFFFF466FFFFFFFFFFD335
DFFFF9539FFFFFFFFD3723
CFFFFF4553578876447260
BFFFFFF825666666634700
7FFFFFFFFCA87789BE8000
2FFFFFFFFFFFFFFFF60000
06FFFFFFFFFFFFFE400000
004DFFFFFFFFFFB2000000
000048BCDCCA7300000000
ENDCHAR
STARTCHAR macron
ENCODING 175
SWIDTH 600 0
DWIDTH 22 0
BBX 21 11 0 23
BITMAP
0000036666666666666640
00005A0000000000000060
0007F90000000000000050
009FF90015555555520050
0BFFF90000000000000050
5FFFF90000000000000050
6FFFFE6555555555555560
6FFFFFFFFFFFFFFFFFF800
6FFFFFFFFFFFFFFFFF6000
6FFFFFFFFFFFFFFFE40000
2DFFFFFFFFFFFFFC200000
ENDCHAR
STARTCHAR degree
ENCODING 176
SWIDTH 583 0
DWIDTH 21 0
BBX 21 20 0 6
BITMAP
0000000255555556650000
0000005400000000016300
0000084002655555100600
0001BD0035000000710320
002CFC0050000000150240
02EFFC00500AFE60050140
0CFFFC00500EFFA0050140
2FFFFC00500EFFA0050140
4FFFFC00500EFFA0050140
4FFFFC00500BFF70050140
4FFFFC0050001000150140
4FFFFC0035000000710240
4FFFFE1002555555100520
4FFFFF9000000000001900
3FFFFFFB5100000027B100
2FFFFFFFFFEDCCDFFA1000
0CFFFFFFFFFFFFFF800000
04FFFFFFFFFFFFF6000000
004DFFFFFFFFFD40000000
000059BCCCB95000000000
ENDCHAR
STARTCHAR plusminus
ENCODING 177
SWIDTH 834 0
DWIDTH 30 0
BBX 28 30 1 -4
BITMAP
0000000000006655555710000000
00000000001AD000000230000000
0000000004EFC000000240000000
000000008FFFC000500240000000
00000002FFFFC000500240000000
00000003FFFFC000500240000000
00000266AAAA8000500165555560
00004A0000000000500000000015
0005FA0000000000500000000005
007FFA0000000000500000000005
09FFFA0005555555955555540005
4FFFFA0000000000500000000005
5FFFFA0000000000500000000005
5FFFFE3222222000500022222241
5FFFFFFFFFFFC0005002FFFFFC10
5FFFFFFFFFFFC0005002FFFFB100
5FFFFFFFFFFFC0005002FFF90000
1CFFFFFFFFFFC0005002FE700000
00000266AAAA8000000165555560
00004A0000000000000000000015
0005FA0000000000000000000005
007FFA0000000000000000000005
09FFFA0005555555555555540005
4FFFFA0000000000000000000005
5FFFFA0000000000000000000005
5FFFFE6444444444444444444461
5FFFFFFFFFFFFFFFFFFFFFFFFC10
5FFFFFFFFFFFFFFFFFFFFFFFB100
5FFFFFFFFFFFFFFFFFFFFFF90000
1CFFFFFFFFFFFFFFFFFFFE700000
ENDCHAR
STARTCHAR twosuperior
ENCODING 178
SWIDTH 585 0
DWIDTH 21 0
BBX 21 24 0 2
BITMAP
0000008655555555661000
00001B8000000000007100
0002DF8005555555100600
003EFF8000000000600600
03FFFFA000000000500500
07FFFFFEDDDDD900500510
07FFFFFFFFFFE700500510
07FFFFFFFD940000600500
07FFFFFC40000045300600
02BCCCB000045510000600
00001A2016520000006200
0002DC0050000000392000
004EFA005000037CC10000
04FFF9005004DFFB100000
0DFFF9005005AAA6555600
3FFFF90050000000000420
5FFFF90055555555520420
6FFFF90000000000000420
6FFFFB1000000000000610
6FFFFFFFFFFFFFFFFFF800
6FFFFFFFFFFFFFFFFE5000
6FFFFFFFFFFFFFFFD20000
5FFFFFFFFFFFFFFA100000
0455555555555540000000
ENDCHAR
STARTCHAR threesuperior
ENCODING 179
SWIDTH 584 0
DWIDTH 21 0
BBX 21 24 0 2
BITMAP
0000066555555555610000
00008E0000000000061000
001AFE0045555530005000
02CFFE0000000043005000
0DFFFF1000000005005000
1FFFFFFEEEEE7005005000
1FFFFFFFFFFF8005005000
1FFFFFFF40000005043000
1FFFFFFF00000024056200
05778FFF00355664100700
0002DFFF00000000600240
000DFFFF40000000140050
000FFFFFFFFFFF30050050
000FFFFFFFFFFF40050050
000FFF6444444300050050
000CFE0000000000610050
002DFE0045555555200420
04EFFE0000000000001600
0EFFFF2000000000267000
1FFFFFFFFFFFFFFFF60000
1FFFFFFFFFFFFFFE400000
1FFFFFFFFFFFFFD3000000
1FFFFFFFFFFFF910000000
0255555555531000000000
ENDCHAR
STARTCHAR acute
ENCODING 180
SWIDTH 600 0
DWIDTH 22 0
BBX 21 13 0 22
BITMAP
0000000000002355555560
0000005555554200000050
0000191000000000000050
0003D90000000135520050
005EF90015555420000050
07FFF90000000000000060
4FFFF90000000013568A40
6FFFFC23578ACEFFFFE300
6FFFFFFFFFFFFFFFFC2000
6FFFFFFFFFFFFFFFA10000
6FFFFFFFFFFFECA6000000
3FFFDCA864200000000000
0220000000000000000000
ENDCHAR
STARTCHAR mu
ENCODING 181
SWIDTH 813 0
DWIDTH 29 0
BBX 28 29 1 -7
BITMAP
0000045555555300002655555550
000087000000060003B000000041
000AF500000005004EB000000032
01CFF50000000506FFB000000032
2DFFF5000500058FFFB000500032
9FFFF500050007FFFFB000500032
AFFFF500050007FFFFB000500032
AFFFF500050007FFFFB000500032
AFFFF500050007FFFFB000500032
AFFFF500050007FFFFB000500032
AFFFF500050007FFFFB000500032
AFFFF500050007FFFFB000500032
AFFFF500050007FFFFB000500032
AFFFF500050007FFFFB000500032
AFFFF500060003FFFF6000500032
AFFFF5000A000014420000600041
AFFFF50006600000000004200060
AFFFF50005262000000264000060
AFFFF50005003655556400000250
AFFFF50005000000000000001800
AFFFF50005000000000000049100
AFFFF50002000231111358DA0000
AFFFF500000007FFFFFFFF800000
AFFFF500000008FFFFFFF6000000
AFFFFA2222222CFFFFFD40000000
AFFFFFFFFFFFFFFFFC7100000000
AFFFFFFFFFF97764200000000000
AFFFFFFFFE400000000000000000
4EFFFFFFB2000000000000000000
ENDCHAR
STARTCHAR paragraph
ENCODING 182
SWIDTH 782 0
DWIDTH 28 0
BBX 27 30 0 -4
BITMAP
0000000015555555555555555630
0000000540000000000000000050
0000018100000000000000000050
00002C4000166666666666700050
0004EC0004610000000000510050
006FF80016000000000000510050
05FFF70041000000000000510050
0DFFF60050000000000000510050
4FFFF60050000000000000510050
7FFFF60050000000000000510050
9FFFF60050000000000000510050
9FFFF60041000000000000510050
9FFFF70015000000000000510050
9FFFFA0004500000000000510050
9FFFFE1000155575555555810050
9FFFFF9000000050000000510050
8FFFFFF800000050000000510050
6FFFFFFFE8400050000000510050
1FFFFFFFFFE0005005E600510050
09FFFFFFFFE0005005F700510050
01BFFFFFFFE0005005F700510050
0006DFFFFFE0005005F700510050
000003FFFFE0002005F700200050
000001FFFFE0000005F700000050
000001FFFFE0000006F700000050
000001FFFFF744445CFD54444640
000001FFFFFFFFFFFFFFFFFFE400
000001FFFFFFFFFFFFFFFFFD2000
000001FFFFFFFEBFFFFFFFB10000
000000AFFFFFC23DFFFFE8000000
ENDCHAR
STARTCHAR periodcentered
ENCODING 183
SWIDTH 464 0
DWIDTH 17 0
BBX 16 15 0 4
BITMAP
0000026555555554
00003B0000000006
0005EC0000000005
007FFC0000000005
09FFFC0000500005
3FFFFC0000500005
4FFFFC0000500005
4FFFFC0000200005
4FFFFC0000000005
4FFFFC0000000005
4FFFFF6444444456
4FFFFFFFFFFFFF80
4FFFFFFFFFFFF600
3FFFFFFFFFFE4000
0CFFFFFFFFC20000
ENDCHAR
STARTCHAR cedilla
ENCODING 184
SWIDTH 600 0
DWIDTH 22 0
BBX 16 16 3 -9
BITMAP
0000000012000000
0000000473551000
0000006E10004540
000008FA00010051
0001AFF400420060
0009FFD000500060
001EFF8000500240
006FFF2004100600
00BFFC0003000600
02FFF60000003300
08FFF10000006000
0DFFF74444464000
4FFFFFFFFFE40000
9FFFFFFFFD200000
EFFFFFFFB1000000
AFFFFFE900000000
ENDCHAR
STARTCHAR onesuperior
ENCODING 185
SWIDTH 557 0
DWIDTH 20 0
BBX 20 24 0 2
BITMAP
00000286555555580000
00003E60000000042000
0006FF60155560042000
009FFF60000050042000
07FFFF91000050042000
09FFFFFFFB0050042000
09FFFFFFFB0050042000
09FFFFFFFB0050042000
08FFFFFFFB0050042000
00447FFFFB0050042000
00004FFFFB0050042000
00004FFFFB0050042000
00004FFFFB0050042000
00004FCAA70050026562
00005E00000050000006
0005ED00000050000005
006FFD00344464444005
08FFFD00000000000005
1FFFFF20000000000025
2FFFFFFFFFFFFFFFFF80
2FFFFFFFFFFFFFFFF600
2FFFFFFFFFFFFFFE4000
1FFFFFFFFFFFFFD30000
02555555555554100000
ENDCHAR
STARTCHAR ordmasculine
ENCODING 186
SWIDTH 625 0
DWIDTH 23 0
BBX 22 31 0 -4
BITMAP
0000000001455555420000
0000000464200000146600
0000007200355555400170
00001B3006200000261016
0003DC0042000000005006
005EF90060000000005005
05FFF8005002DFE5005005
0EFFF8005006FFF9005005
4FFFF8005006FFF9005005
6FFFF8005006FFF9005005
7FFFF8005006FFF9005005
7FFFF8005006FFF9005005
7FFFF8005006FFF9005005
7FFFF8005006FFF9005005
7FFFF8006002DED5005005
7FFFF90042000000005005
7FFFFD0006200000161005
7FFFFF5000355555400024
7FFFFFE600000000000440
5FFFFFFFD853222358B400
3FFFFFFFFFFFFFFFFD2000
0CFFFFBAAAAAAAAAA65554
02DFFA0000000000000006
000AF80000000000000005
007FF80044444444444005
0AFFF90000000000000005
5FFFFD5444444444444456
7FFFFFFFFFFFFFFFFFFF90
7FFFFFFFFFFFFFFFFFF600
6FFFFFFFFFFFFFFFFE4000
2DFFFFFFFFFFFFFFC30000
ENDCHAR
STARTCHAR guillemotright
ENCODING 187
SWIDTH 912 0
DWIDTH 33 0
BBX 31 23 1 -1
BITMAP
00000666200000000176630000000000
0001B601577400002C50037751000000
002CF40000036743DF40000016750000
03EFF4000000003CFF40000000027300
4FFFF40042000000BF40034000000620
AFFFF400036630003F40002564000060
BFFFF600000045000E50000002700060
BFFFFE50000006000CD4000000230050
BFFFFFFEA61005000BFFEA6100140050
BFFFFFFFFF8005000BFFFFF800140050
9FFFFFFD840005000BFFC84000140050
2DFFFC20000006000CC2000000330050
0039F500000054000E50000004700050
003DF400156520004F40004663000050
05EFF40031000001CF40022000000610
4FFFF4000000005DFF40000000038200
AFFFF40000159EFFFF40000038CB1000
BFFFF6037BFFEEFFFF5015AEFF900000
BFFFFFEFFFFD3BFFFFECFFFFF6000000
BFFFFFFFFFA10BFFFFFFFFFC40000000
BFFFFFFD83000BFFFFFFEA4000000000
9FFEB62000000AFFFC84000000000000
27400000000003861000000000000000
ENDCHAR
STARTCHAR onequarter
ENCODING 188
SWIDTH 1303 0
DWIDTH 47 0
BBX 46 30 0 -4
BITMAP
0000028655555558000000056555556000000000000000
00005E60000000042000009C0000005000000000000000
0008FF601555600420002CF90000005000000000000000
01CFFF60000050042004EFF60040005000000000000000
09FFFF9100005004201EFFF30050013000000000000000
09FFFFFFFB005004205FFFF10050031000000000000000
09FFFFFFFB005004207FFFD00050044666665003666665
09FFFFFFFB00500420AFFFA0033008B00000605C000006
03AACFFFFB00500420DFFF7005000CB0000057FC000005
00004FFFFB00500421FFFF4005000FB005006FFC005005
00004FFFFB00500423FFFF1005003FB005006FFC005005
00004FFFFB00500426FFFD0005006FB005006FFC005005
00004FFFFB00500429FFFB0024009FB005006FFC005005
00004FCAA700500269CFF8004100BFB005006FFC005005
00005E0000005000000DF5005000EFB005006FFC005005
0005ED0000005000000CF2005002FFB005005FFC005005
007FFD0034446444400CE0005005FFB005000554005005
09FFFD0000000000000CB0015008FFB002500000005005
2FFFFF7555555555556F8003200BFFC000255555558005
2FFFFFFFFFFFFFFFFFFF6005000DFFF200000000005005
2FFFFFFFFFFFFFFFFFFF3005001FFFFB10000000005005
2FFFFFFFFFFFFFFEFFFF0005004FFFFFD8554444005005
0DFFFFFFFFFFFFA7FFFC0004007FFFFFFFFFFFFC005005
0000000000000009FFF9000000AFFFFFFFFFFFFC001005
000000000000000CFFF70000007DFFFFFFFFFFFC000005
000000000000000FFFFC5444462069ABBBCFFFFF644447
000000000000003FFFFFFFFFD2000000003FFFFFFFFFA1
000000000000006FFFFFFFFB10000000003FFFFFFFF800
000000000000008FFFFFFF9000000000003FFFFFFF6000
000000000000004EFFFFE70000000000001DFFFFE40000
ENDCHAR
STARTCHAR onehalf
ENCODING 189
SWIDTH 1260 0
DWIDTH 45 0
BBX 45 30 0 -4
BITMAP
0000028655555558000000056555556000000000000000
00004E60000000042000009C0000005000000000000000
0007FF601555600420002CF90000005000000000000000
01AFFF60000050042004EFF60040005000000000000000
08FFFF9100005004201EFFF30050014000000000000000
09FFFFFFFB005004205FFFF10050041000000000000000
09FFFFFFFB005004207FFFD00050042666666666650000
09FFFFFFFB00500420AFFFA0033006C000000000017200
06FFFFFFFB00500420DFFF7005000CD000000000000700
00004FFFFB00500421FFFF4005000FD004555555200420
00004FFFFB00500423FFFF1005003FD000000000610150
00004FFFFB00500426FFFD0005006FE100000000330050
00004FFFFB00500429FFFB0024009FFEDDDDDD10230050
00004FCAA700500269CFF8004100BFFFFFFFE900230050
00005E0000005000000DF5005000EFFFFE951000420240
0005ED0000005000000CF2005002FFFE50000025400510
007FFD0034446444400CE0005005AAC100025530003500
09FFFD0000000000000CB00150061A5005530000176000
2FFFFF7555555555556F80032008CF103300015AE40000
2FFFFFFFFFFFFFFFFFFF6005000DFE005001AFFD300000
2FFFFFFFFFFFFFFFFFFF3005001FFD005002AAA7555610
2FFFFFFFFFFFFFFDFFFF0005004FFD0050000000000060
0DFFFFFFFFFFFF97FFFC0004007FFD0050000000000050
000000000000000AFFF9000000AFFD0035555555540050
000000000000000DFFF7000000DFFD0000000000000050
000000000000001FFFFC544447FFFF6444444444444630
000000000000003FFFFFFFFFEFFFFFFFFFFFFFFFFFE400
000000000000006FFFFFFFFC3FFFFFFFFFFFFFFFFD2000
000000000000008FFFFFFFA02FFFFFFFFFFFFFFFB10000
000000000000004EFFFFE7000CFFFFFFFFFFFFF8000000
ENDCHAR
STARTCHAR threequarters
ENCODING 190
SWIDTH 1313 0
DWIDTH 47 0
BBX 47 30 0 -4
BITMAP
000007755555555562000002755555710000000000000000
0001BE00000000000610004E200000230000000000000000
003DFE0045555540006007FE000000400000000000000000
06FFFE00000000340051BFFC001300400000000000000000
1FFFFF2000000005005AFFF9004100400000000000000000
1FFFFFFFFFFF8005005FFFF6005000400000000000000000
1FFFFFFF85552005027FFFF3005001476666710166666710
1FFFFFFF10000014069FFFF0005004D20000242C40000150
05778FFF00355664100BFFC0005007F1000018DF30000050
0002DFFF000000006003FF9003300AF102301FFF30140050
000DFFFF400000001400FF7005000CF102301FFF30140050
000FFFFFFFFFFF300500EF4005000FF102301FFF30140050
000FFFFFFFFFFF400500EF1005003FF102301FFF30140050
000FFF64444443000500ED0005006FF102301FFF30140050
000CFE00000000006100EA0024009FF102301FFF30140050
002DFE00455555552001F7004100CFF10230058810140050
03DFFE00000000000007F5005000EFF10140000000140050
0EFFFE0000000000005FF2005002FFF10060000000140050
1FFFFF75555555557BFFE0005005FFF30015555555640050
1FFFFFFFFFFFFFFFFFFFB0015008FFF70000000000140050
1FFFFFFFFFFFFFF9CFFF8003200BFFFE3000000000140050
1FFFFFFFFFFFFF80EFFF5005000EFFFFFA65444410140050
0CFFFFFFFFFEB402FFFF2004001FFFFFFFFFFFFF30140050
0000000000000005FFFE0000004FFFFFFFFFFFFF30000050
0000000000000008FFFC00000059FFFFFFFFFFFF30000050
000000000000000AFFFE6444454048ABBBBEFFFF94444620
000000000000000DFFFFFFFFF6000000000CFFFFFFFFD300
000000000000001FFFFFFFFE40000000000CFFFFFFFC2000
000000000000003FFFFFFFD200000000000CFFFFFFB10000
000000000000001CFFFFFB10000000000008FFFFF8000000
ENDCHAR
STARTCHAR questiondown
ENCODING 191
SWIDTH 756 0
DWIDTH 27 0
BBX 27 30 0 -4
BITMAP
0000000000000375555555640000
0000000000005E10000000050000
000000000008FF10003000050000
0000000001BFFF10005000050000
000000000BFFFF10000000050000
000000000EFFFF10000000050000
000000000EFFFF61111111350000
000000000EFFFFFFFFFFFF800000
000000000EFFFFFECA8643600000
000000002DA86420000000600000
0000000760000000000000510000
0000019200000000000100230000
00002C5000001466666400050000
0003EF0000574200000000060000
004EFD0000500000000000050000
03FFFC0001400000000146720000
0BFFFC0001400048ACEFFC200000
1FFFFC00014000FFFFFFB1000000
3FFFFC000140007AAAAA65555610
4FFFFC0001400000000000000050
4FFFFD0000500000000000000050
4FFFFF2000530000000000000050
4FFFFF8000035555555555500050
3FFFFFF400000000000000000050
2FFFFFFE60000000000000000050
0EFFFFFFFE965444444444444620
08FFFFFFFFFFFFFFFFFFFFFFD300
01CFFFFFFFFFFFFFFFFFFFFC1000
001BFFFFFFFFFFFFFFFFFFA00000
000049CEFFFFFFFFFFFFE7000000
ENDCHAR
STARTCHAR Agrave
ENCODING 192
SWIDTH 830 0
DWIDTH 30 0
BBX 28 40 1 -4
BITMAP
0000000017753100000000000000
00000003D779BDEDB97542000000
0000004EB00000013579BCEA0000
000007FFB0002000000000072000
00009FFFB0004566655310032000
0003FFFFB0000000000220032000
0004FFFFC0000000000000032000
0004FFFFFC975320000000031000
0004FFFFFFFFFFFFDB9754210000
0004FFFFFFB88888888888900000
0001EFFFFB000000000000330000
0000158BF5000000000000060000
0000002DE0000000000000051000
000003EF80000666666300015000
00002EFF30006100000610006000
00008FFC00024000000160004200
0000EFF600060001100060000600
0005FFF10006000EF40024000500
000BFFA00042004FF90006000240
002FFF400060009FFD0004200060
007FFE00015000EFFF3000600051
00DFFA00060003FFFF8000510014
04FFF600060008FFFFC000240006
09FFF30006000000000000060006
1EFFF10015000000000000060006
5FFFF10014000000000000050006
9FFFF10018555555555555570006
CFFFF10014000000000000050006
DFFFF10014000000000000050006
EFFFF10014000555555200050006
EFFFF10014000FFFFFF500050006
EFFFF10014000FFFFFF500050006
EFFFF10013000FFFFFF500040006
EFFFF10000000FFFFFF500000006
EFFFF100000015AFFFF500000005
EFFFF944444482AFFFFC54444455
EFFFFFFFFFFE40AFFFFFFFFFFF60
EFFFFFFFFFC200AFFFFFFFFFE400
DFFFFFFFF900009FFFFFFFFD2000
8FFFFFFE6000004EFFFFFFB10000
ENDCHAR
STARTCHAR Aacute
ENCODING 193
SWIDTH 830 0
DWIDTH 30 0
BBX 28 39 1 -4
BITMAP
0000000000000000011111130000
0000000000111111100000031000
0000000051000000000000032000
00000009B0000000001330032000
000001BFB0005555664310032000
00002DFFB0001000000000042000
0001EFFFB0000000012468A90000
0004FFFFE33468ACEFFFFF900000
0004FFFFFFFFFFFFFFFFF6000000
0004FFFFFF965555555555600000
0004FFFFFA000000000000240000
0002FFFFF4000000000000060000
000015EFD0000666666300042000
00002EFF70006100000610005000
00008FFF10024000000160005000
0000EFFA00060001100060002400
0005FFF40006000EF40024000500
000BFFD00042004FF90006000410
002FFF700060009FFD0004200050
007FFF20015000EFFF3000600050
00DFFC00060003FFFF8000510032
04FFF700060008FFFFC000240005
09FFF40006000000000000060006
1EFFF20015000000000000060006
5FFFF10014000000000000050006
9FFFF10018555555555555570006
CFFFF10014000000000000050006
DFFFF10014000000000000050006
EFFFF10014000555555200050006
EFFFF10014000FFFFFF500050006
EFFFF10014000FFFFFF500050006
EFFFF10013000FFFFFF500040006
EFFFF10000000FFFFFF500000006
EFFFF100000015AFFFF500000006
EFFFF944444482AFFFFC54444456
EFFFFFFFFFFE40AFFFFFFFFFFF80
EFFFFFFFFFC200AFFFFFFFFFE500
DFFFFFFFF900009FFFFFFFFD3000
8FFFFFFE6000004EFFFFFFB10000
ENDCHAR
STARTCHAR Acircumflex
ENCODING 194
SWIDTH 830 0
DWIDTH 30 0
BBX 28 40 1 -4
BITMAP
0000000000000045552000000000
0000000000035520004651000000
0000000005530000000015620000
0000000191000046562000061000
0000002CB0006620005730032000
000003EFB0000000000000032000
00005FFFB0000000000000032000
0002FFFFB00016ADEC8300032000
0004FFFFE47CFFFFFFFFEA570000
0004FFFFFFFEEEEEEEEEEFE30000
0004FFFFFE300000000000610000
0004FFFFF7000000000000050000
0003FFDFF2000000000000060000
000023DFB0000666666300023000
00002EFF50006100000610006000
00008FFE00024000000160005100
0000EFF800060001100060001500
0005FFF20006000EF40024000500
000BFFC00042004FF90006000320
002FFF600060009FFD0004200050
007FFF10015000EFFF3000600050
00DFFB00060003FFFF8000510023
04FFF700060008FFFFC000240006
09FFF30006000000000000060006
1EFFF20015000000000000060006
5FFFF10014000000000000050006
9FFFF10018555555555555570006
CFFFF10014000000000000050006
DFFFF10014000000000000050006
EFFFF10014000555555200050006
EFFFF10014000FFFFFF500050006
EFFFF10014000FFFFFF500050006
EFFFF10013000FFFFFF500040006
EFFFF10000000FFFFFF500000006
EFFFF100000015AFFFF500000006
EFFFF944444482AFFFFC54444456
EFFFFFFFFFFE40AFFFFFFFFFFF70
EFFFFFFFFFC200AFFFFFFFFFE500
DFFFFFFFF900009FFFFFFFFD3000
8FFFFFFE6000004EFFFFFFB10000
ENDCHAR
STARTCHAR Atilde
ENCODING 195
SWIDTH 830 0
DWIDTH 30 0
BBX 28 39 1 -4
BITMAP
0000000001565555310002760000
0000000047200000255666161000
00000005C0000000000000042000
0000007FB0000000000000042000
000009FFB0007666653210042000
0000AFFFB0000000013420042000
0003FFFFB0000000000000041000
0004FFFFC0035541000000260000
0004FFFFFBDFFFFFEC989CA00000
0004FFFFFFDBBBBBBBBBBB400000
0004FFFFFC000000000000420000
0002FFDFF5000000000000060000
000024CFE0000666666300051000
00002EFF90006100000610015000
00008FFF30024000000160006000
0000EFFC00060001100060003200
0005FFF60006000EF40024000500
000BFFE10042004FF90006000500
002FFF900060009FFD0004200140
007FFF30015000EFFF3000600050
00DFFD00060003FFFF8000510041
04FFF800060008FFFFC000240005
09FFF50006000000000000060006
1EFFF20015000000000000060006
5FFFF10014000000000000050006
9FFFF10018555555555555570006
CFFFF10014000000000000050006
DFFFF10014000000000000050006
EFFFF10014000555555200050006
EFFFF10014000FFFFFF500050006
EFFFF10014000FFFFFF500050006
EFFFF10013000FFFFFF500040006
EFFFF10000000FFFFFF500000006
EFFFF100000015AFFFF500000006
EFFFF944444482AFFFFC54444457
EFFFFFFFFFFE40AFFFFFFFFFFF80
EFFFFFFFFFC200AFFFFFFFFFE500
DFFFFFFFF900009FFFFFFFFD3000
8FFFFFFE6000004EFFFFFFB10000
ENDCHAR
STARTCHAR Adieresis
ENCODING 196
SWIDTH 830 0
DWIDTH 30 0
BBX 28 39 1 -4
BITMAP
0000000165555562055555554000
0000002C00000007B40000006000
000004ED0000000CF30000005000
00006FFD0005000CF30050005000
0008FFFD0004000CF30040005000
001FFFFD0000000CF30000005000
002FFFFF4222224EF82222237000
002FFFFFFFFFFFFFFFFFFFFB1000
002FFFFFFF855555555555A00000
002FFFFFFA000000000000240000
002FFFFFF4000000000000050000
0008CCEFD0000000000000041000
000003EF70000666666300005000
00002EFF20006100000610005000
00008FFB00024000000160003300
0000EFF500060001100060000500
0005FFE10006000EF40024000500
000BFF900042004FF90006000140
002FFF400060009FFD0004200050
007FFE00015000EFFF3000600051
00DFF900060003FFFF8000510015
04FFF500060008FFFFC000240006
09FFF30006000000000000060006
1EFFF10015000000000000060006
5FFFF10014000000000000050006
9FFFF10018555555555555570006
CFFFF10014000000000000050006
DFFFF10014000000000000050006
EFFFF10014000555555200050006
EFFFF10014000FFFFFF500050006
EFFFF10014000FFFFFF500050006
EFFFF10013000FFFFFF500040006
EFFFF10000000FFFFFF500000006
EFFFF200000015AFFFF500000005
EFFFF944444482AFFFFC54444455
EFFFFFFFFFFE40AFFFFFFFFFFF60
EFFFFFFFFFC200AFFFFFFFFFE400
DFFFFFFFF900009FFFFFFFFD2000
8FFFFFFE6000004EFFFFFFB10000
ENDCHAR
STARTCHAR Aring
ENCODING 197
SWIDTH 830 0
DWIDTH 30 0
BBX 28 40 1 -4
BITMAP
0000000000014666666630000000
0000000001651000000036500000
0000000027000000000000260000
00000004C0001555556400051000
0000005F90027100000260015000
000007FF7006006EFC2033005000
00008FFF700600BFFF6005005000
0002FFFF700500BFFF6005005000
0006FFFF9006008FFF4005005000
0008FFFFB0060003420033033000
0008FFFFF3027100000270060000
0008FFFFF4001555556400050000
0007FFFFE0000000000000051000
0005FFFF80000666666300015000
0001FFFF20006100000610006000
0000AFFC00024000000160003200
0000EFF600060001100060000500
0005FFE10006000EF40024000500
000BFFA00042004FF90006000240
002FFF400060009FFD0004200060
007FFE00015000EFFF3000600051
00DFFA00060003FFFF8000510014
04FFF600060008FFFFC000240006
0AFFF30006000000000000060006
1EFFF10015000000000000060006
5FFFF10014000000000000050006
9FFFF10018555555555555570006
CFFFF10014000000000000050006
DFFFF10014000000000000050006
EFFFF10014000555555200050006
EFFFF10014000FFFFFF500050006
EFFFF10014000FFFFFF500050006
EFFFF10013000FFFFFF500040006
EFFFF10000000FFFFFF500000006
EFFFF100000015AFFFF500000005
EFFFF944444482AFFFFC54444455
EFFFFFFFFFFE40AFFFFFFFFFFF60
EFFFFFFFFFC200AFFFFFFFFFE400
DFFFFFFFF900009FFFFFFFFD2000
8FFFFFFE6000004EFFFFFFB10000
ENDCHAR
STARTCHAR AE
ENCODING 198
SWIDTH 1105 0
DWIDTH 40 0
BBX 38 30 1 -4
BITMAP
00000000046555555555555555555555555556
00000000860000000000000000000000000005
0000001AE10000000000000000000000000005
000002CF900036666666666766666666662005
00003EFF400060000000001400000000000005
0000AFFD000520000000001400000000000005
0001FFF8000700024440001400034444444457
0006FFF20015000DFFF00014000DFFFFFFFF90
000CFFB00061003FFFF00014000DFFFFFFF600
003FFF600070008FFFF0001400078888888000
008FFF10034000DFFFF0001400000000006000
00EFFB00070003FFFFF0001400000000005000
04FFF600070008FFFFF0001855555552005000
0AFFF300150000000000001400000000005000
1EFFF200230000000000001400000000005000
5FFFF100330000000000001400000000002000
9FFFF1003755555555555564000ACCCCB50000
CFFFF1003300000000000014000DFFFE500000
DFFFF10033000000000000140009AAA8555553
EFFFF100330005555550001400000000000006
EFFFF10033001FFFFFF0001400000000000005
EFFFF10033001FFFFFF0001400000000000005
EFFFF10022001FFFFFF0001755555555552005
EFFFF10000001FFFFFF0000000000000000005
EFFFF100000015FFFFF0000000000000000005
EFFFF944444482FFFFF8444444444444444455
EFFFFFFFFFFD30FFFFFFFFFFFFFFFFFFFFFF60
EFFFFFFFFFB100FFFFFFFFFFFFFFFFFFFFE400
DFFFFFFFF80000FFFFFFFFFFFFFFFFFFFD3000
8FFFFFFE5000009FFFFFFFFFFFFFFFFFB10000
ENDCHAR
STARTCHAR Ccedilla
ENCODING 199
SWIDTH 728 0
DWIDTH 26 0
BBX 25 36 1 -10
BITMAP
00000000056655555555555630
00000004610000000000000060
00000073000000000000000060
00001A40000466666666500060
0002CC00008300000000000060
003EF800051000000000000060
03EFF500060000000000000050
0CFFF400050000245555555620
4FFFF400050004FFFFFFFFD200
8FFFF400050008FFFFFFFB1000
AFFFF400050008FFFFFF900000
BFFFF400050008FFFFE7000000
CFFFF400050005000000000000
CFFFF400050005000000000000
CFFFF400050005000000000000
CFFFF400050005000000000000
CFFFF400050005000000000000
CFFFF400050005000000000000
CFFFF400050005100000000000
CFFFF400050000655555555610
CFFFF500060000000000000060
CFFFF700051000000000000060
BFFFFC00007300000000000060
AFFFFF40000365555755500060
7FFFFFE2000000001500000060
3FFFFFFE600000005100000050
0CFFFFFFFEA740006000444520
04FFFFFFFFFF60023004FFB100
006FFFFFFFFE1000000AF90000
0004DFFFFFF90000001E600000
0000047CFFF800000174000000
0000000BFFFFFFFFFD20000000
0000002FFFFFFFFFA100000000
0000007FFFFFFFF80000000000
0000008FFFFFFE500000000000
00000004444441000000000000
ENDCHAR
STARTCHAR Egrave
ENCODING 200
SWIDTH 754 0
DWIDTH 27 0
BBX 26 39 1 -4
BITMAP
00000003111111000000000000
00000096000000111111110000
00001BF5000000000000013000
0002CFF5002310000000005000
003EFFF5000245655551005000
009FFFF7000000000010005000
00AFFFFFA86531000000005000
00AFFFFFFFFFFFECA875328000
00AFFFFFFFFFFFFFFFFFFD2000
009FFE75555555555555555571
002BFA00000000000000000014
002CF900000000000000000014
04EFF900046666666666640014
2FFFF900050000000000000014
5FFFF900050000000000000034
6FFFF900050004CCCCCCCCCCA0
6FFFF900050005FFFFFFFFF700
6FFFF900050005FFFFFFFE3000
6FFFF900050000000000043000
6FFFF900050000000000005000
6FFFF900050000000000005000
6FFFF900065555555540005000
6FFFF900050000000000005000
6FFFF900050000000000015000
6FFFF900050002666666671000
6FFFF900050005FFFFFFB10000
6FFFF900050005FFFFF9000000
6FFFF900050003AAAA95555550
6FFFF900050000000000000033
6FFFF900050000000000000014
6FFFF900050000000000000014
6FFFF900045555555555540014
6FFFF900000000000000000014
6FFFFA00000000000000000024
6FFFFE54444444444444444461
6FFFFFFFFFFFFFFFFFFFFFFB10
6FFFFFFFFFFFFFFFFFFFFF9000
5FFFFFFFFFFFFFFFFFFFF70000
1DFFFFFFFFFFFFFFFFFD400000
ENDCHAR
STARTCHAR Eacute
ENCODING 201
SWIDTH 754 0
DWIDTH 27 0
BBX 26 39 1 -4
BITMAP
00000000000000000111111200
00000000011111111000000500
00000001500000000000000500
0000002C700000000024100500
000003DF700155556542000500
00005EFF700000000000000600
0004FFFF70000000013579B600
0008FFFFB23579BCEFFFFF5000
0009FFFFFFFFFFFFFFFFE30000
0009FE75555555555555555571
0009FA00000000000000000014
001CF900000000000000000014
03DFF900046666666666640014
2EFFF900050000000000000014
5FFFF900050000000000000034
6FFFF900050004CCCCCCCCCCA0
6FFFF900050005FFFFFFFFF700
6FFFF900050005FFFFFFFE3000
6FFFF900050000000000043000
6FFFF900050000000000005000
6FFFF900050000000000005000
6FFFF900065555555540005000
6FFFF900050000000000005000
6FFFF900050000000000015000
6FFFF900050002666666671000
6FFFF900050005FFFFFFB10000
6FFFF900050005FFFFF9000000
6FFFF900050003AAAA95555550
6FFFF900050000000000000033
6FFFF900050000000000000014
6FFFF900050000000000000014
6FFFF900045555555555540014
6FFFF900000000000000000014
6FFFFA00000000000000000024
6FFFFE54444444444444444461
6FFFFFFFFFFFFFFFFFFFFFFB10
6FFFFFFFFFFFFFFFFFFFFF9000
5FFFFFFFFFFFFFFFFFFFF70000
1DFFFFFFFFFFFFFFFFFD400000
ENDCHAR
STARTCHAR Ecircumflex
ENCODING 202
SWIDTH 754 0
DWIDTH 27 0
BBX 26 40 1 -4
BITMAP
00000000000004555100000000
00000000003662000454000000
00000000563000000001451000
0000001A100004666100006000
000002DB000662000573003200
00004EFB000000000000003200
0006FFFB000000000000003200
002FFFFB000049CDA620003200
004FFFFD36AEFFFFFFFC847100
004FFFFFFFFFFFFFFFFFFF9000
004FFE75555555555555555571
004FFA00000000000000000014
007FF900000000000000000014
08FFF900046666666666640014
4FFFF900050000000000000014
6FFFF900050000000000000034
6FFFF900050004CCCCCCCCCCA0
6FFFF900050005FFFFFFFFF700
6FFFF900050005FFFFFFFE3000
6FFFF900050000000000043000
6FFFF900050000000000005000
6FFFF900050000000000005000
6FFFF900065555555540005000
6FFFF900050000000000005000
6FFFF900050000000000015000
6FFFF900050002666666671000
6FFFF900050005FFFFFFB10000
6FFFF900050005FFFFF9000000
6FFFF900050003AAAA95555550
6FFFF900050000000000000033
6FFFF900050000000000000014
6FFFF900050000000000000014
6FFFF900045555555555540014
6FFFF900000000000000000014
6FFFFA00000000000000000024
6FFFFE54444444444444444461
6FFFFFFFFFFFFFFFFFFFFFFB10
6FFFFFFFFFFFFFFFFFFFFF9000
5FFFFFFFFFFFFFFFFFFFF70000
1DFFFFFFFFFFFFFFFFFD400000
ENDCHAR
STARTCHAR Edieresis
ENCODING 203
SWIDTH 754 0
DWIDTH 27 0
BBX 26 39 1 -4
BITMAP
00000005555555403555555500
000000A4000000679000000320
00001CF30000006F8000000240
0003DFF30041006F8000500240
004EFFF30031006F8000400240
00BFFFF30000006F8000000240
00CFFFF8222222BFC322222730
00CFFFFFFFFFFFFFFFFFFFFE10
00CFFE65555555555555553760
00CFFA00000000000000000011
00BFF900000000000000000014
008FF900000000000000000014
07FFF900046666666666640014
4FFFF900050000000000000014
6FFFF900050000000000000034
6FFFF900050004CCCCCCCCCCA0
6FFFF900050005FFFFFFFFF700
6FFFF900050005FFFFFFFE3000
6FFFF900050000000000043000
6FFFF900050000000000005000
6FFFF900050000000000005000
6FFFF900065555555540005000
6FFFF900050000000000005000
6FFFF900050000000000015000
6FFFF900050002666666671000
6FFFF900050005FFFFFFB10000
6FFFF900050005FFFFF9000000
6FFFF900050003AAAA95555550
6FFFF900050000000000000033
6FFFF900050000000000000014
6FFFF900050000000000000014
6FFFF900045555555555540014
6FFFF900000000000000000014
6FFFFA00000000000000000024
6FFFFE54444444444444444461
6FFFFFFFFFFFFFFFFFFFFFFB10
6FFFFFFFFFFFFFFFFFFFFF9000
5FFFFFFFFFFFFFFFFFFFF70000
1DFFFFFFFFFFFFFFFFFD400000
ENDCHAR
STARTCHAR Igrave
ENCODING 204
SWIDTH 705 0
DWIDTH 25 0
BBX 24 39 1 -4
BITMAP
000000311111100000000000
000007700000011111111000
0000AF700000000000000400
001CFF700142000000000500
02DFFF700024565555100500
07FFFF800000000000000500
08FFFFFB8753100000000500
08FFFFFFFFFFFECB97532800
08FFFFFFFFFFFFFFFFFFE300
08FFF9555555555555555571
02AFF1000000000000000015
008FF1000000000000000005
1BFFF1004666667666640005
CFFFF1000000024000000005
EFFFF1000000024000000015
EFFFFB8887000240006888A1
EFFFFFFFFE00024000CFFC20
EFFFFFFFFE00024000CF9100
EFFFFFFFFE00024000C60000
6CCCCFFFFE00024000600000
00001FFFFE00024000500000
00001FFFFE00024000500000
00001FFFFE00024000500000
00001FFFFE00024000500000
00001FFFFE00024000500000
00001FFFFE00024000500000
00001FFFFE00024000500000
00001DAAA900024000655560
0001A2000000024000000024
002CF1000000024000000005
03DFF1000000024000000005
4EFFF1004555566555540005
DFFFF1000000000000000005
EFFFF1000000000000000015
EFFFF9444444444444444471
EFFFFFFFFFFFFFFFFFFFFC10
EFFFFFFFFFFFFFFFFFFFA000
EFFFFFFFFFFFFFFFFFF80000
8FFFFFFFFFFFFFFFFE500000
ENDCHAR
STARTCHAR Iacute
ENCODING 205
SWIDTH 705 0
DWIDTH 25 0
BBX 24 39 1 -4
BITMAP
000000000000000111111200
000000011111111000000500
000000500000000000000500
00001C700000000024100500
0003DF700155566542000500
005EFF700000000000000600
04FFFF70000000013578B600
08FFFFB23579BCEFFFFF5000
08FFFFFFFFFFFFFFFFE30000
08FFF9555555555555555571
08FFF1000000000000000015
06FFF1000000000000000005
2CFFF1004666667666640005
CFFFF1000000024000000005
EFFFF1000000024000000015
EFFFFB8887000240006888A1
EFFFFFFFFE00024000CFFC20
EFFFFFFFFE00024000CF9100
EFFFFFFFFE00024000C60000
6CCCCFFFFE00024000600000
00001FFFFE00024000500000
00001FFFFE00024000500000
00001FFFFE00024000500000
00001FFFFE00024000500000
00001FFFFE00024000500000
00001FFFFE00024000500000
00001FFFFE00024000500000
00001DAAA900024000655560
0001A2000000024000000024
002CF1000000024000000005
03DFF1000000024000000005
4EFFF1004555566555540005
DFFFF1000000000000000005
EFFFF1000000000000000015
EFFFF9444444444444444471
EFFFFFFFFFFFFFFFFFFFFC10
EFFFFFFFFFFFFFFFFFFFA000
EFFFFFFFFFFFFFFFFFF80000
8FFFFFFFFFFFFFFFFE500000
ENDCHAR
STARTCHAR Icircumflex
ENCODING 206
SWIDTH 705 0
DWIDTH 25 0
BBX 24 40 1 -4
BITMAP
000000000001555510000000
000000000465100155300000
000000165200000000255000
000002800001566510000600
00004E700276100167200500
0006FF700000000000000500
008FFF700000000000000500
05FFFF700015ADC951000500
08FFFFA37CFFFFFFFFB73700
08FFFFFFFFFFFFFFFFFFF500
08FFF9555555555555555571
08FFF1000000000000000015
07FFF1000000000000000005
2CFFF1004666667666640005
CFFFF1000000024000000005
EFFFF1000000024000000015
EFFFFB8887000240006888A1
EFFFFFFFFE00024000CFFC20
EFFFFFFFFE00024000CF9100
EFFFFFFFFE00024000C60000
6CCCCFFFFE00024000600000
00001FFFFE00024000500000
00001FFFFE00024000500000
00001FFFFE00024000500000
00001FFFFE00024000500000
00001FFFFE00024000500000
00001FFFFE00024000500000
00001FFFFE00024000500000
00001DAAA900024000655560
0001A2000000024000000024
002CF1000000024000000005
03DFF1000000024000000005
4EFFF1004555566555540005
DFFFF1000000000000000005
EFFFF1000000000000000015
EFFFF9444444444444444471
EFFFFFFFFFFFFFFFFFFFFC10
EFFFFFFFFFFFFFFFFFFFA000
EFFFFFFFFFFFFFFFFFF80000
8FFFFFFFFFFFFFFFFE500000
ENDCHAR
STARTCHAR Idieresis
ENCODING 207
SWIDTH 705 0
DWIDTH 25 0
BBX 24 39 1 -4
BITMAP
000003555555601655555620
00005900000017C000000050
0007F90000000FE000000050
009FF90005000FE000500050
1BFFF90004000FE000400050
5FFFF90000001FE000000050
6FFFFD3222226FF422222380
6FFFFFFFFFFFFFFFFFFFFF50
6FFFF9555555555555555360
6FFFF1000000000000000021
6FFFF1000000000000000005
1BFFF1000000000000000005
3DFFF1004666667666640005
DFFFF1000000024000000005
EFFFF1000000024000000015
EFFFFB8887000240006888A1
EFFFFFFFFE00024000CFFC20
EFFFFFFFFE00024000CF9100
EFFFFFFFFE00024000C60000
6CCCCFFFFE00024000600000
00001FFFFE00024000500000
00001FFFFE00024000500000
00001FFFFE00024000500000
00001FFFFE00024000500000
00001FFFFE00024000500000
00001FFFFE00024000500000
00001FFFFE00024000500000
00001DAAA900024000655560
0001A2000000024000000024
002CF1000000024000000005
03DFF1000000024000000005
4EFFF1004555566555540005
DFFFF1000000000000000005
EFFFF1000000000000000015
EFFFF9444444444444444471
EFFFFFFFFFFFFFFFFFFFFC10
EFFFFFFFFFFFFFFFFFFFA000
EFFFFFFFFFFFFFFFFFF80000
8FFFFFFFFFFFFFFFFE500000
ENDCHAR
STARTCHAR Eth
ENCODING 208
SWIDTH 856 0
DWIDTH 31 0
BBX 31 30 -1 -4
BITMAP
00000003655555555555555555300000
0000006F000000000000000000361000
00001AFF000000000000000000007200
0002CFFF000276666666666400000800
000DFFFF000230000000000272000420
000FFFFF000230000000000007000060
000FFFFF000230001111100003200060
000FFFFF00023000EFFFFB0001400050
000FFFFF00023000EFFFFF2000500050
000FFFFF00023000EFFFFF2000500050
000FFF2000023000007FFF2000500050
000FFD0000023000003FFF2000500050
00AFFD0005577553003FFF2000500050
0BFFFD0000023000003FFF2000500050
1FFFFD0000023000003FFF2000500050
2FFFFF2000023000007FFF2000500050
2FFFFFFF00023000EFFFFF2000500050
2FFFFFFF00023000CEFFFF1000500050
2FFFFFFF000230007BCCB70001400050
1EFFFFFF000230000000000003300050
037FFFFF000230000000000007000060
000FFFFF000230000000000173000430
000FFFFF000265555555556400000700
000FFFFF000000000000000000006200
000FFFFF000000000000000000283000
000FFFFF84444444444444568BC10000
000FFFFFFFFFFFFFFFFFFFFFFA000000
000FFFFFFFFFFFFFFFFFFFFF70000000
000FFFFFFFFFFFFFFFFFFFD400000000
0009FFFFFFFFFFFFFEEC940000000000
ENDCHAR
STARTCHAR Ntilde
ENCODING 209
SWIDTH 853 0
DWIDTH 31 0
BBX 29 39 1 -4
BITMAP
000000000036655542000158100000
000000001840000024666731600000
00000002C300000000000000600000
0000003DF200000000000000600000
000004EFF200466666422000600000
00005FFFF200000000244000600000
0000CFFFF200000000000000400000
0000DFFFF201554200000003100000
0000DFFFFCCFFFFFFCA88A90000000
0000DE755568EFFFFFFF7555555700
0001EA0000002DFFFFFC0000000410
003DF900000002EDFFFC0000000420
05EFF9000660003CFFFC0005000420
3FFFF90005250004FFFC0005000420
6FFFF900050340005FFC0005000420
6FFFF9000500430005FC0005000420
6FFFF90005000520006B0005000420
6FFFF9000500006100040005000420
6FFFF9000500000710000005000420
6FFFF9000500000070000005000420
6FFFF9000500000016000005000420
6FFFF9000500010002600005000420
6FFFF9000500065000350005000420
6FFFF900050006F300034005000420
6FFFF900050006FD10004305000420
6FFFF900050006FFC0000525000420
6FFFF900050006FFF9000066000420
6FFFF900050006FFFF700009000420
6FFFF900050006FFFFF40005000420
6FFFF900050006FFFFFB0005000420
6FFFF900050006FFFFFC0005000420
6FFFF900030006FFFFFC0003000420
6FFFF900000005BFFFFC0000000420
6FFFFA000000054FFFFC0000000420
6FFFFE544444574FFFFF6444444800
6FFFFFFFFFFF904FFFFFFFFFFFB100
6FFFFFFFFFF7004FFFFFFFFFF80000
5FFFFFFFFE40003FFFFFFFFF600000
1DFFFFFFC200000CFFFFFFD3000000
ENDCHAR
STARTCHAR Ograve
ENCODING 210
SWIDTH 837 0
DWIDTH 30 0
BBX 28 41 1 -5
BITMAP
0000000016753100000000000000
00000002C879BDEDB97531000000
0000003ED00000013579ACEA0000
000005EFC0002000000000053000
00007FFFC0004566665310014000
0001FFFFC0000000000230014000
0003FFFFE0000000000000014000
0003FFFFFC975420000000013000
0003FFFFFFFFFFFFDB9864210000
0002FFFFFEA64210001247A50000
0000BFFE71000000000000017500
000001A200000000000000000450
00001C3000004555555520000051
0003DB0000362000000047100005
004EF70002500000000000700006
04FFF50006000000000000150006
1EFFF400050002BEFEA100050005
5FFFF400050008FFFFF600050005
9FFFF400050009FFFFF700050005
BFFFF400050009FFFFF700050005
CFFFF400050008EFFFF700050005
CFFFF4000500059FFFF700050005
CFFFF4000500058FFFF700050005
CFFFF4000500058FFFF700050005
CFFFF4000500058FFFF700050005
CFFFF4000500058FFFF700050005
CFFFF4000500058FFFF700050005
CFFFF4000500058FFFF600050005
CFFFF400050003BFFFD100050005
CFFFF40006000001210000150005
CFFFF60002500000000000700006
CFFFFA0000362000000047100006
BFFFFF2000003555555520000042
9FFFFFB100000000000000000260
6FFFFFFC40000000000000005600
1EFFFFFFFC7310000000148D6000
08FFFFFFFFFFFEDCCCDEFFE40000
00BFFFFFFFFFFFFFFFFFFD200000
0008FFFFFFFFFFFFFFFF91000000
000028DFFFFFFFFFFE9300000000
0000000246777764200000000000
ENDCHAR
STARTCHAR Oacute
ENCODING 211
SWIDTH 837 0
DWIDTH 30 0
BBX 28 41 1 -5
BITMAP
0000000000000000000235750000
0000000000024679BDECA87A2000
000000003CDCA864310000024000
00000005E2000000000010014000
0000007FD0002455566520014000
00000AFFC0003200000000014000
0000BFFFC0000000000000011000
0002FFFFD0000000002468700000
0003FFFFE32468ACEFFFFA100000
0003FFFFFEA64210001246650000
0003FFFE71000000000000017400
0002FFD200000000000000000450
00008F3000004555555520000052
0003EB0000362000000047100006
005EF70002500000000000700006
05FFF50006000000000000150006
1EFFF400050002BEFEA100050005
6FFFF400050008FFFFF600050005
9FFFF400050009FFFFF700050005
BFFFF400050009FFFFF700050005
CFFFF400050008EFFFF700050005
CFFFF4000500059FFFF700050005
CFFFF4000500058FFFF700050005
CFFFF4000500058FFFF700050005
CFFFF4000500058FFFF700050005
CFFFF4000500058FFFF700050005
CFFFF4000500058FFFF700050005
CFFFF4000500058FFFF600050005
CFFFF400050003BFFFD100050005
CFFFF40006000001210000150005
CFFFF60002500000000000700006
CFFFFA0000362000000047100006
BFFFFF2000003555555520000042
9FFFFFB100000000000000000260
6FFFFFFC40000000000000005600
1EFFFFFFFC7310000000148D6000
08FFFFFFFFFFFEDCCCDEFFE40000
00BFFFFFFFFFFFFFFFFFFD200000
0008FFFFFFFFFFFFFFFF91000000
000028DFFFFFFFFFFE9300000000
0000000246777764200000000000
ENDCHAR
STARTCHAR Ocircumflex
ENCODING 212
SWIDTH 837 0
DWIDTH 30 0
BBX 28 41 1 -5
BITMAP
0000000000000045552000000000
0000000000035520003552000000
0000000004420000000003540000
00000001A1000046563000042000
0000003DD0006620003640014000
000005EFC0000000000000014000
00007FFFC0000014530000014000
0001FFFFD0027BFFFFEA51023000
0003FFFFFBDFFFFFFFFFFFC91000
0003FFFFFEA64210001247B61000
0003FFFE71000000000000017500
0002FFD200000000000000000460
0000AF3000004555555520000051
0003DB0000362000000047100005
005EF70002500000000000700006
04FFF50006000000000000150006
1EFFF400050002BEFEA100050005
6FFFF400050008FFFFF600050005
9FFFF400050009FFFFF700050005
BFFFF400050009FFFFF700050005
CFFFF400050008EFFFF700050005
CFFFF4000500059FFFF700050005
CFFFF4000500058FFFF700050005
CFFFF4000500058FFFF700050005
CFFFF4000500058FFFF700050005
CFFFF4000500058FFFF700050005
CFFFF4000500058FFFF700050005
CFFFF4000500058FFFF600050005
CFFFF400050003BFFFD100050005
CFFFF40006000001210000150005
CFFFF60002500000000000700006
CFFFFA0000362000000047100006
BFFFFF2000003555555520000042
9FFFFFB100000000000000000260
6FFFFFFC40000000000000005600
1EFFFFFFFC7310000000148D6000
08FFFFFFFFFFFEDCCCDEFFE40000
00BFFFFFFFFFFFFFFFFFFD200000
0008FFFFFFFFFFFFFFFF91000000
000028DFFFFFFFFFFE9300000000
0000000246777764200000000000
ENDCHAR
STARTCHAR Otilde
ENCODING 213
SWIDTH 837 0
DWIDTH 30 0
BBX 28 40 1 -5
BITMAP
0000000000465555310002660000
0000000038200000256666242000
00000006D0000000000000024000
0000008FC0000000000000024000
00001BFFC0006666663210024000
0000CFFFC0000000013430024000
0002FFFFC0000000000000022000
0003FFFFD0025541000000150000
0003FFFFFBDFFFFFDB988B800000
0003FFFFFE953100000136661000
0002FFFD50000000000000006600
00007FC100004555555520000360
0003DF2000362000000047100042
005EFA0002500000000000700005
04FFF60006000000000000150005
1EFFF400050002BEFEA100050006
6FFFF400050008FFFFF600050005
9FFFF400050009FFFFF700050005
BFFFF400050009FFFFF700050005
CFFFF400050008EFFFF700050005
CFFFF4000500059FFFF700050005
CFFFF4000500058FFFF700050005
CFFFF4000500058FFFF700050005
CFFFF4000500058FFFF700050005
CFFFF4000500058FFFF700050005
CFFFF4000500058FFFF700050005
CFFFF4000500058FFFF600050005
CFFFF400050003BFFFD100050005
CFFFF40006000001210000150006
CFFFF50002500000000000700006
CFFFF90000362000000047100006
BFFFFE1000003555555520000034
9FFFFFA000000000000000000180
6FFFFFFB30000000000000004800
1EFFFFFFFC7310000000148C8000
08FFFFFFFFFFFEDCCCDEFFE50000
00BFFFFFFFFFFFFFFFFFFD300000
0008FFFFFFFFFFFFFFFFA1000000
000028DFFFFFFFFFFE9400000000
0000000246777764200000000000
ENDCHAR
STARTCHAR Odieresis
ENCODING 214
SWIDTH 837 0
DWIDTH 30 0
BBX 28 40 1 -5
BITMAP
0000000165555562055555554000
0000002D10000006A50000006000
000004EF0000000AF40000005000
00007FFF0006000AF40032005000
0009FFFF0004000AF40021005000
000FFFFF0000000AF40000005000
001FFFFF3000001CF70000006000
001FFFFFFFFFFFFFEFFFFFFD3000
001FFFFFFE963100000136A71000
001FFFFE60000000000000017500
000DFFD200000000000000000360
00016E3000004555555520000051
0003DB0000362000000047100005
005EF70002500000000000700006
04FFF50006000000000000150006
1EFFF400050002BEFEA100050005
6FFFF400050008FFFFF600050005
9FFFF400050009FFFFF700050005
BFFFF400050009FFFFF700050005
CFFFF400050008EFFFF700050005
CFFFF4000500059FFFF700050005
CFFFF4000500058FFFF700050005
CFFFF4000500058FFFF700050005
CFFFF4000500058FFFF700050005
CFFFF4000500058FFFF700050005
CFFFF4000500058FFFF700050005
CFFFF4000500058FFFF600050005
CFFFF400050003BFFFD100050005
CFFFF40006000001210000150005
CFFFF60002500000000000700005
CFFFFA0000362000000047100006
BFFFFF2000003555555520000042
9FFFFFB100000000000000000260
6FFFFFFC40000000000000005600
1EFFFFFFFC7310000000148D6000
08FFFFFFFFFFFEDCCCDEFFE40000
00BFFFFFFFFFFFFFFFFFFD200000
0008FFFFFFFFFFFFFFFF91000000
000028DFFFFFFFFFFE9300000000
0000000246777764200000000000
ENDCHAR
STARTCHAR multiply
ENCODING 215
SWIDTH 834 0
DWIDTH 30 0
BBX 26 26 2 -2
BITMAP
00000000010000000000010000
00000001414000000002314000
00000026000500000035001500
00000470000050000460000150
00006900000006006700000015
0007F400000000788000000007
007FFC10006000170002500027
07FFFFC1001700000026000270
6FFFFFFC100070000260002700
CFFFFFFFC10007002600027000
4FFFFFFFFB1000726000260000
04FFFFFFFF60002B0000700000
004EFFFFF80002607000170000
0004EFFF800026000700017000
00004EF8000260000070000600
00000B80002600000007000060
0000A9000050002A1000400006
000AF500000002EFC100000007
00AFFD2000002EFFFC10000045
0AFFFFD20002EFFFFFC1000460
8FFFFFFD202DFFFFFFFC104600
AFFFFFFFE854EFFFFFFFD96000
2DFFFFFFE5004FFFFFFFE50000
02DFFFFD300005FFFFFD300000
002DFFC10000005FFFC1000000
0002B90000000006E900000000
ENDCHAR
STARTCHAR Oslash
ENCODING 216
SWIDTH 837 0
DWIDTH 30 0
BBX 28 37 1 -7
BITMAP
0000000000000000000255555600
0000000000000000001700000240
000000000000000000A200000410
000000000002466667B000000600
0000000026652000000001001500
0000000640000000000015000610
0000028100004655555580000060
00003D2000562000000176400015
0006F90006200000000510430005
008FF60005000000000600060005
08FFF400330007DEA04200050005
2FFFF40042003FFF306000050005
7FFFF40042005FFC024000050005
AFFFF40042005FF6060000050005
BFFFF40042005FE1050220050005
CFFFF40042005F80510930050005
CFFFF40042005F20601E30050005
CFFFF40042005A03306F30050005
CFFFF4004200540600CF30050005
CFFFF4004200201504FF30050005
CFFFF400420000600AFF30050005
CFFFF400420000602FFF20050005
CFFFF400330005108FFE10060005
CFFFF40006000600BCA400060006
CFFFF60006203300000000540006
CFFFFA0000667000000026400006
BFFFFF2000018555555530000043
AFFFFFC100051000000000000270
7FFFFFFC00050000000000006800
3FFFFFF9000000000001359E7000
0CFFFFF3000002EEEEFFFFE40000
04FFFFE000000AFFFFFFFD300000
005FFFFECCCCDFFFFFFFA1000000
007FFFFFFFFFFFFFFE9300000000
00DFFFFFFF977764200000000000
01FFFFFFF6000000000000000000
0047777720000000000000000000
ENDCHAR
STARTCHAR Ugrave
ENCODING 217
SWIDTH 846 0
DWIDTH 30 0
BBX 29 40 1 -5
BITMAP
000000002111111000000000000000
000000059000000111111110000000
0000007FA000000000000004000000
00000AFFA001420000000004100000
0000CFFFA000245666552004100000
0005FFFFB000000000001004100000
0005FFFFFC97531000000004100000
0005FFFFFFFFFFFFDB975328000000
0005FFFFFFFFFFFFFFFFFFF5000000
0005FD6555556CFFFFFE7555555600
0002F700000005FFFFFA0000000500
003DF700000005EFFFF90000000510
05EFF70003000514FFF90003000510
4FFFF7000500053EFFF90005000510
8FFFF7000500056FFFF90005000510
8FFFF7000500056FFFF90005000510
8FFFF7000500056FFFF90005000510
8FFFF7000500056FFFF90005000510
8FFFF7000500056FFFF90005000510
8FFFF7000500056FFFF90005000510
8FFFF7000500056FFFF90005000510
8FFFF7000500056FFFF90005000510
8FFFF7000500056FFFF90005000510
8FFFF7000500056FFFF90005000510
8FFFF7000500056FFFF90005000510
8FFFF7000500056FFFF90005000510
8FFFF7000500047FFFF90005000510
8FFFF7000500019FFFD30005000510
8FFFF7000510000011000006000500
8FFFF9000070000000000052000600
8FFFFC000027300000002630000600
8FFFFF300000355555553000002500
6FFFFFD10000000000000000018000
3FFFFFFD5000000000000000491000
0DFFFFFFFD8410000000137C900000
06FFFFFFFFFFFEDCCCDEFFF6000000
009FFFFFFFFFFFFFFFFFFE40000000
0007FFFFFFFFFFFFFFFFB200000000
000017DFFFFFFFFFFEA40000000000
000000024677776530000000000000
ENDCHAR
STARTCHAR Uacute
ENCODING 218
SWIDTH 846 0
DWIDTH 30 0
BBX 29 40 1 -5
BITMAP
000000000000000000111111200000
000000000011111111000000500000
000000001500000000000000500000
00000002C600000000024100500000
0000004EF600155556542000500000
000006FFF600100000000000600000
00005FFFF60000000013579B500000
00009FFFFA23579BDEFFFFE4000000
0000AFFFFFFFFFFFFFFFFD30000000
0000AD6555556CFFFFFE7555555600
0001C700000005FFFFFA0000000500
003DF700000005533CF90000000510
05EFF70003000513DFF90003000510
4FFFF7000500053EFFF90005000510
8FFFF7000500056FFFF90005000510
8FFFF7000500056FFFF90005000510
8FFFF7000500056FFFF90005000510
8FFFF7000500056FFFF90005000510
8FFFF7000500056FFFF90005000510
8FFFF7000500056FFFF90005000510
8FFFF7000500056FFFF90005000510
8FFFF7000500056FFFF90005000510
8FFFF7000500056FFFF90005000510
8FFFF7000500056FFFF90005000510
8FFFF7000500056FFFF90005000510
8FFFF7000500056FFFF90005000510
8FFFF7000500047FFFF90005000510
8FFFF7000500019FFFD30005000510
8FFFF7000510000011000006000500
8FFFF9000070000000000052000600
8FFFFC000027300000002630000600
8FFFFF300000355555553000002500
6FFFFFD10000000000000000018000
3FFFFFFD5000000000000000491000
0DFFFFFFFD8410000000137C900000
06FFFFFFFFFFFEDCCCDEFFF6000000
009FFFFFFFFFFFFFFFFFFE40000000
0007FFFFFFFFFFFFFFFFB200000000
000017DFFFFFFFFFFEA40000000000
000000024677776530000000000000
ENDCHAR
STARTCHAR Ucircumflex
ENCODING 219
SWIDTH 846 0
DWIDTH 30 0
BBX 29 41 1 -5
BITMAP
000000000000002555300000000000
000000000001342000243100000000
000000000122000000000221000000
000000006200003656400001300000
00000008F000462000255000500000
000000AFF000000000000000500000
00001BFFF000001575100000500000
0000BFFFF1037CFFFFFC7300600000
0000FFFFFCEFFFFFFFFFFFEC600000
0000FFFFFFFFFFFFFFFFFFFC100000
0000FD6555556CFFFFFE7555555600
0001F700000005FFFFFA0000000500
003DF70000000558DFF90000000510
05EFF70003000514EFF90003000510
4FFFF7000500053FFFF90005000510
8FFFF7000500056FFFF90005000510
8FFFF7000500056FFFF90005000510
8FFFF7000500056FFFF90005000510
8FFFF7000500056FFFF90005000510
8FFFF7000500056FFFF90005000510
8FFFF7000500056FFFF90005000510
8FFFF7000500056FFFF90005000510
8FFFF7000500056FFFF90005000510
8FFFF7000500056FFFF90005000510
8FFFF7000500056FFFF90005000510
8FFFF7000500056FFFF90005000510
8FFFF7000500056FFFF90005000510
8FFFF7000500047FFFF90005000510
8FFFF7000500009EFEC20005000510
8FFFF7000510000000000006000500
8FFFF9000070000000000052000600
8FFFFC000027300000002630000600
8FFFFF300000355555553000002500
6FFFFFD10000000000000000018000
3FFFFFFD5000000000000000491000
0DFFFFFFFD8410000000137C900000
06FFFFFFFFFFFEDCCCDEFFF6000000
009FFFFFFFFFFFFFFFFFFE40000000
0007FFFFFFFFFFFFFFFFB200000000
000017DFFFFFFFFFFEA40000000000
000000024677776530000000000000
ENDCHAR
STARTCHAR Udieresis
ENCODING 220
SWIDTH 846 0
DWIDTH 30 0
BBX 29 40 1 -5
BITMAP
000000005555555404555555500000
0000001B3000000678000000420000
000002CF20000007F7000000330000
00003EFF20050007F7001500330000
0005FFFF20040007F7000300330000
000CFFFF20000007F7000000330000
000DFFFF20000007F7000000320000
000DFFFF7211112BFB211112600000
000DFFFFFFFFFFFFFFFFFFFD200000
000DFD6555556CFFFFFE7555555600
000DF700000005FFFFFA0000000500
009FF700000005FFFFF90000000510
1BFFF70003000524EFF90003000510
7FFFF7000500053EFFF90005000510
8FFFF7000500056FFFF90005000510
8FFFF7000500056FFFF90005000510
8FFFF7000500056FFFF90005000510
8FFFF7000500056FFFF90005000510
8FFFF7000500056FFFF90005000510
8FFFF7000500056FFFF90005000510
8FFFF7000500056FFFF90005000510
8FFFF7000500056FFFF90005000510
8FFFF7000500056FFFF90005000510
8FFFF7000500056FFFF90005000510
8FFFF7000500056FFFF90005000510
8FFFF7000500056FFFF90005000510
8FFFF7000500047FFFF90005000510
8FFFF7000500019FFFD30005000510
8FFFF7000510000011000006000500
8FFFF9000070000000000052000600
8FFFFC000027300000002630000600
8FFFFF300000355555553000002500
6FFFFFD10000000000000000018000
3FFFFFFD5000000000000000491000
0DFFFFFFFD8410000000137C900000
05FFFFFFFFFFFEDCCCDEFFF6000000
009FFFFFFFFFFFFFFFFFFE40000000
0006EFFFFFFFFFFFFFFFB200000000
000017DFFFFFFFFFFEA40000000000
000000024677776530000000000000
ENDCHAR
STARTCHAR Yacute
ENCODING 221
SWIDTH 805 0
DWIDTH 29 0
BBX 29 39 0 -4
BITMAP
000000000000000000111111300000
000000000011111111000000500000
000000000510000000000000410000
00000001A900000000013200410000
0000002CF900055556542000410000
000003DFF900010000000000600000
00002EFFF90000000013468A800000
00006FFFFD23578ACEFFFFF7000000
00006FFFFFFFFFFFFFFFFE50000000
00006F7555556AFFFFFF9555555710
00009C00000002FFFFFE0000000240
001AFC000000028428FE0000000140
02CFFC0003000241AFFE0002100140
1DFFFC000500024BFFFE0004100140
3FFFFC000500024FFFFE0004100140
4FFFFC000500025FFFFE0004100140
4FFFFC000500025FFFFE0004100140
4FFFFC000510006FFFFC0005100240
4FFFFC000330006FFFF40006000230
4FFFFE000060000CFF900015000510
4FFFFF5000150002ED100060000700
4FFFFFD10004300010000510004300
3FFFFFFA0000610000003300015000
1FFFFFFF6000060000015000060000
0AFFFFFFF300025000160000610000
01EFFFFFFD10002676500004300000
004FFFFFFFB0000050000015000000
0008FFFFFFF7000050000060000000
0000BFFFFFFF400050000610000000
00001EFFFFFFA00050000600000000
000004FFFFFFA00050000500000000
0000007FFFFFA00030000500000000
0000000BFFFFA00000000500000000
00000006FFFFA00000000500000000
00000006FFFFE54444447200000000
00000006FFFFFFFFFFFD3000000000
00000006FFFFFFFFFFC10000000000
00000005FFFFFFFFF9000000000000
00000001DFFFFFFE60000000000000
ENDCHAR
STARTCHAR Thorn
ENCODING 222
SWIDTH 792 0
DWIDTH 29 0
BBX 27 30 1 -4
BITMAP
0000065555555700000000000000
0000AA0000000320000000000000
001CF90000000320000000000000
03DFF90005000166666666500000
2EFFF90005000000000000164000
5FFFF90005000000000000004500
6FFFF90006555555555520000710
6FFFF90005000000000055000150
6FFFF90005000000000004300060
6FFFF90005000000000000600060
6FFFF900050004FFFE4000500050
6FFFF900050004FFFF9000500050
6FFFF900050004FFFFA000500050
6FFFF900050004FFFFA000500050
6FFFF900050004FFFF7000500050
6FFFF90005000277760000600050
6FFFF90005000000000003300060
6FFFF90005000000000045000060
6FFFF90006555555555520000520
6FFFF90005000000000000001600
6FFFF90005000000000000027000
6FFFF90005000000000136A70000
6FFFF900030003FFFFFFFF500000
6FFFF900000003FFFFFFE3000000
6FFFFA00000003FFFFFB20000000
6FFFFE5444444AFFEB5000000000
6FFFFFFFFFFFA432000000000000
6FFFFFFFFFF80000000000000000
5FFFFFFFFF500000000000000000
1DFFFFFFD3000000000000000000
ENDCHAR
STARTCHAR germandbls
ENCODING 223
SWIDTH 859 0
DWIDTH 31 0
BBX 30 30 1 -4
BITMAP
000006655555555555555564000000
00009A000000000000000002700000
001BF9000000000000000000160000
03DFF9000366666666664000060000
2EFFF9000410000000004400042000
5FFFF9000410000000000600041000
6FFFF9000410013330000600060000
6FFFF900041003FFF4002300060000
6FFFF900041003FFF3005000150000
6FFFF900041003FFE0006000350000
6FFFF900041003FFC0005000015300
6FFFF900041003FF80042000000340
6FFFF900041003FF50056664000051
6FFFF900041003FF20000002600015
6FFFF900041003FF20000000410005
6FFFF900041003FFB7774000240005
6FFFF900041003FFFFFFF000150005
6FFFF900041003FFFFFFF000150005
6FFFF900041003FFFFFFD000150005
6FFFF900041003FF30000000240005
6FFFF900041003FE00000000410005
6FFFF900041003FE00000002600015
6FFFF900031003FE00045564000051
6FFFF900000003FE00000000000250
6FFFFA00000003FF00000000005600
6FFFFE5444444AFF844444458C5000
6FFFFFFFFFFFFFFFFFFFFFFFD30000
6FFFFFFFFFFFFFFFFFFFFFFC200000
5FFFFFFFFF6FFFFFFFFFFF91000000
1DFFFFFFD309FFFFFFEC9300000000
ENDCHAR
STARTCHAR agrave
ENCODING 224
SWIDTH 830 0
DWIDTH 30 0
BBX 28 40 1 -4
BITMAP
0000000017753100000000000000
00000003D779BDEDB97542000000
0000004EB00000013579BCEA0000
000007FFB0002000000000072000
00009FFFB0004566655310032000
0003FFFFB0000000000220032000
0004FFFFC0000000000000032000
0004FFFFFC975320000000031000
0004FFFFFFFFFFFFDB9754210000
0004FFFFFFB88888888888900000
0001EFFFFB000000000000330000
0000158BF5000000000000060000
0000002DE0000000000000051000
000003EF80000666666300015000
00002EFF30006100000610006000
00008FFC00024000000160004200
0000EFF600060001100060000600
0005FFF10006000EF40024000500
000BFFA00042004FF90006000240
002FFF400060009FFD0004200060
007FFE00015000EFFF3000600051
00DFFA00060003FFFF8000510014
04FFF600060008FFFFC000240006
09FFF30006000000000000060006
1EFFF10015000000000000060006
5FFFF10014000000000000050006
9FFFF10018555555555555570006
CFFFF10014000000000000050006
DFFFF10014000000000000050006
EFFFF10014000555555200050006
EFFFF10014000FFFFFF500050006
EFFFF10014000FFFFFF500050006
EFFFF10013000FFFFFF500040006
EFFFF10000000FFFFFF500000006
EFFFF100000015AFFFF500000005
EFFFF944444482AFFFFC54444455
EFFFFFFFFFFE40AFFFFFFFFFFF60
EFFFFFFFFFC200AFFFFFFFFFE400
DFFFFFFFF900009FFFFFFFFD2000
8FFFFFFE6000004EFFFFFFB10000
ENDCHAR
STARTCHAR aacute
ENCODING 225
SWIDTH 830 0
DWIDTH 30 0
BBX 28 39 1 -4
BITMAP
0000000000000000011111130000
0000000000111111100000031000
0000000051000000000000032000
00000009B0000000001330032000
000001BFB0005555664310032000
00002DFFB0001000000000042000
0001EFFFB0000000012468A90000
0004FFFFE33468ACEFFFFF900000
0004FFFFFFFFFFFFFFFFF6000000
0004FFFFFF965555555555600000
0004FFFFFA000000000000240000
0002FFFFF4000000000000060000
000015EFD0000666666300042000
00002EFF70006100000610005000
00008FFF10024000000160005000
0000EFFA00060001100060002400
0005FFF40006000EF40024000500
000BFFD00042004FF90006000410
002FFF700060009FFD0004200050
007FFF20015000EFFF3000600050
00DFFC00060003FFFF8000510032
04FFF700060008FFFFC000240005
09FFF40006000000000000060006
1EFFF20015000000000000060006
5FFFF10014000000000000050006
9FFFF10018555555555555570006
CFFFF10014000000000000050006
DFFFF10014000000000000050006
EFFFF10014000555555200050006
EFFFF10014000FFFFFF500050006
EFFFF10014000FFFFFF500050006
EFFFF10013000FFFFFF500040006
EFFFF10000000FFFFFF500000006
EFFFF100000015AFFFF500000006
EFFFF944444482AFFFFC54444456
EFFFFFFFFFFE40AFFFFFFFFFFF80
EFFFFFFFFFC200AFFFFFFFFFE500
DFFFFFFFF900009FFFFFFFFD3000
8FFFFFFE6000004EFFFFFFB10000
ENDCHAR
STARTCHAR acircumflex
ENCODING 226
SWIDTH 830 0
DWIDTH 30 0
BBX 28 40 1 -4
BITMAP
0000000000000045552000000000
0000000000035520004651000000
0000000005530000000015620000
0000000191000046562000061000
0000002CB0006620005730032000
000003EFB0000000000000032000
00005FFFB0000000000000032000
0002FFFFB00016ADEC8300032000
0004FFFFE47CFFFFFFFFEA570000
0004FFFFFFFEEEEEEEEEEFE30000
0004FFFFFE300000000000610000
0004FFFFF7000000000000050000
0003FFDFF2000000000000060000
000023DFB0000666666300023000
00002EFF50006100000610006000
00008FFE00024000000160005100
0000EFF800060001100060001500
0005FFF20006000EF40024000500
000BFFC00042004FF90006000320
002FFF600060009FFD0004200050
007FFF10015000EFFF3000600050
00DFFB00060003FFFF8000510023
04FFF700060008FFFFC000240006
09FFF30006000000000000060006
1EFFF20015000000000000060006
5FFFF10014000000000000050006
9FFFF10018555555555555570006
CFFFF10014000000000000050006
DFFFF10014000000000000050006
EFFFF10014000555555200050006
EFFFF10014000FFFFFF500050006
EFFFF10014000FFFFFF500050006
EFFFF10013000FFFFFF500040006
EFFFF10000000FFFFFF500000006
EFFFF100000015AFFFF500000006
EFFFF944444482AFFFFC54444456
EFFFFFFFFFFE40AFFFFFFFFFFF70
EFFFFFFFFFC200AFFFFFFFFFE500
DFFFFFFFF900009FFFFFFFFD3000
8FFFFFFE6000004EFFFFFFB10000
ENDCHAR
STARTCHAR atilde
ENCODING 227
SWIDTH 830 0
DWIDTH 30 0
BBX 28 39 1 -4
BITMAP
0000000001565555310002760000
0000000047200000255666161000
00000005C0000000000000042000
0000007FB0000000000000042000
000009FFB0007666653210042000
0000AFFFB0000000013420042000
0003FFFFB0000000000000041000
0004FFFFC0035541000000260000
0004FFFFFBDFFFFFEC989CA00000
0004FFFFFFDBBBBBBBBBBB400000
0004FFFFFC000000000000420000
0002FFDFF5000000000000060000
000024CFE0000666666300051000
00002EFF90006100000610015000
00008FFF30024000000160006000
0000EFFC00060001100060003200
0005FFF60006000EF40024000500
000BFFE10042004FF90006000500
002FFF900060009FFD0004200140
007FFF30015000EFFF3000600050
00DFFD00060003FFFF8000510041
04FFF800060008FFFFC000240005
09FFF50006000000000000060006
1EFFF20015000000000000060006
5FFFF10014000000000000050006
9FFFF10018555555555555570006
CFFFF10014000000000000050006
DFFFF10014000000000000050006
EFFFF10014000555555200050006
EFFFF10014000FFFFFF500050006
EFFFF10014000FFFFFF500050006
EFFFF10013000FFFFFF500040006
EFFFF10000000FFFFFF500000006
EFFFF100000015AFFFF500000006
EFFFF944444482AFFFFC54444457
EFFFFFFFFFFE40AFFFFFFFFFFF80
EFFFFFFFFFC200AFFFFFFFFFE500
DFFFFFFFF900009FFFFFFFFD3000
8FFFFFFE6000004EFFFFFFB10000
ENDCHAR
STARTCHAR adieresis
ENCODING 228
SWIDTH 830 0
DWIDTH 30 0
BBX 28 39 1 -4
BITMAP
0000000165555562055555554000
0000002C00000007B40000006000
000004ED0000000CF30000005000
00006FFD0005000CF30050005000
0008FFFD0004000CF30040005000
001FFFFD0000000CF30000005000
002FFFFF4222224EF82222237000
002FFFFFFFFFFFFFFFFFFFFB1000
002FFFFFFF855555555555A00000
002FFFFFFA000000000000240000
002FFFFFF4000000000000050000
0008CCEFD0000000000000041000
000003EF70000666666300005000
00002EFF20006100000610005000
00008FFB00024000000160003300
0000EFF500060001100060000500
0005FFE10006000EF40024000500
000BFF900042004FF90006000140
002FFF400060009FFD0004200050
007FFE00015000EFFF3000600051
00DFF900060003FFFF8000510015
04FFF500060008FFFFC000240006
09FFF30006000000000000060006
1EFFF10015000000000000060006
5FFFF10014000000000000050006
9FFFF10018555555555555570006
CFFFF10014000000000000050006
DFFFF10014000000000000050006
EFFFF10014000555555200050006
EFFFF10014000FFFFFF500050006
EFFFF10014000FFFFFF500050006
EFFFF10013000FFFFFF500040006
EFFFF10000000FFFFFF500000006
EFFFF200000015AFFFF500000005
EFFFF944444482AFFFFC54444455
EFFFFFFFFFFE40AFFFFFFFFFFF60
EFFFFFFFFFC200AFFFFFFFFFE400
DFFFFFFFF900009FFFFFFFFD2000
8FFFFFFE6000004EFFFFFFB10000
ENDCHAR
STARTCHAR aring
ENCODING 229
SWIDTH 830 0
DWIDTH 30 0
BBX 28 40 1 -4
BITMAP
0000000000014666666630000000
0000000001651000000036500000
0000000027000000000000260000
00000004C0001555556400051000
0000005F90027100000260015000
000007FF7006006EFC2033005000
00008FFF700600BFFF6005005000
0002FFFF700500BFFF6005005000
0006FFFF9006008FFF4005005000
0008FFFFB0060003420033033000
0008FFFFF3027100000270060000
0008FFFFF4001555556400050000
0007FFFFE0000000000000051000
0005FFFF80000666666300015000
0001FFFF20006100000610006000
0000AFFC00024000000160003200
0000EFF600060001100060000500
0005FFE10006000EF40024000500
000BFFA00042004FF90006000240
002FFF400060009FFD0004200060
007FFE00015000EFFF3000600051
00DFFA00060003FFFF8000510014
04FFF600060008FFFFC000240006
0AFFF30006000000000000060006
1EFFF10015000000000000060006
5FFFF10014000000000000050006
9FFFF10018555555555555570006
CFFFF10014000000000000050006
DFFFF10014000000000000050006
EFFFF10014000555555200050006
EFFFF10014000FFFFFF500050006
EFFFF10014000FFFFFF500050006
EFFFF10013000FFFFFF500040006
EFFFF10000000FFFFFF500000006
EFFFF100000015AFFFF500000005
EFFFF944444482AFFFFC54444455
EFFFFFFFFFFE40AFFFFFFFFFFF60
EFFFFFFFFFC200AFFFFFFFFFE400
DFFFFFFFF900009FFFFFFFFD2000
8FFFFFFE6000004EFFFFFFB10000
ENDCHAR
STARTCHAR ae
ENCODING 230
SWIDTH 1105 0
DWIDTH 40 0
BBX 38 30 1 -4
BITMAP
00000000046555555555555555555555555556
00000000860000000000000000000000000005
0000001AE10000000000000000000000000005
000002CF900036666666666766666666662005
00003EFF400060000000001400000000000005
0000AFFD000520000000001400000000000005
0001FFF8000700024440001400034444444457
0006FFF20015000DFFF00014000DFFFFFFFF90
000CFFB00061003FFFF00014000DFFFFFFF600
003FFF600070008FFFF0001400078888888000
008FFF10034000DFFFF0001400000000006000
00EFFB00070003FFFFF0001400000000005000
04FFF600070008FFFFF0001855555552005000
0AFFF300150000000000001400000000005000
1EFFF200230000000000001400000000005000
5FFFF100330000000000001400000000002000
9FFFF1003755555555555564000ACCCCB50000
CFFFF1003300000000000014000DFFFE500000
DFFFF10033000000000000140009AAA8555553
EFFFF100330005555550001400000000000006
EFFFF10033001FFFFFF0001400000000000005
EFFFF10033001FFFFFF0001400000000000005
EFFFF10022001FFFFFF0001755555555552005
EFFFF10000001FFFFFF0000000000000000005
EFFFF100000015FFFFF0000000000000000005
EFFFF944444482FFFFF8444444444444444455
EFFFFFFFFFFD30FFFFFFFFFFFFFFFFFFFFFF60
EFFFFFFFFFB100FFFFFFFFFFFFFFFFFFFFE400
DFFFFFFFF80000FFFFFFFFFFFFFFFFFFFD3000
8FFFFFFE5000009FFFFFFFFFFFFFFFFFB10000
ENDCHAR
STARTCHAR ccedilla
ENCODING 231
SWIDTH 728 0
DWIDTH 26 0
BBX 25 36 1 -10
BITMAP
00000000056655555555555630
00000004610000000000000060
00000073000000000000000060
00001A40000466666666500060
0002CC00008300000000000060
003EF800051000000000000060
03EFF500060000000000000050
0CFFF400050000245555555620
4FFFF400050004FFFFFFFFD200
8FFFF400050008FFFFFFFB1000
AFFFF400050008FFFFFF900000
BFFFF400050008FFFFE7000000
CFFFF400050005000000000000
CFFFF400050005000000000000
CFFFF400050005000000000000
CFFFF400050005000000000000
CFFFF400050005000000000000
CFFFF400050005000000000000
CFFFF400050005100000000000
CFFFF400050000655555555610
CFFFF500060000000000000060
CFFFF700051000000000000060
BFFFFC00007300000000000060
AFFFFF40000365555755500060
7FFFFFE2000000001500000060
3FFFFFFE600000005100000050
0CFFFFFFFEA740006000444520
04FFFFFFFFFF60023004FFB100
006FFFFFFFFE1000000AF90000
0004DFFFFFF90000001E600000
0000047CFFF800000174000000
0000000BFFFFFFFFFD20000000
0000002FFFFFFFFFA100000000
0000007FFFFFFFF80000000000
0000008FFFFFFE500000000000
00000004444441000000000000
ENDCHAR
STARTCHAR egrave
ENCODING 232
SWIDTH 754 0
DWIDTH 27 0
BBX 26 39 1 -4
BITMAP
00000003111111000000000000
00000096000000111111110000
00001BF5000000000000013000
0002CFF5002310000000005000
003EFFF5000245655551005000
009FFFF7000000000010005000
00AFFFFFA86531000000005000
00AFFFFFFFFFFFECA875328000
00AFFFFFFFFFFFFFFFFFFD2000
009FFE75555555555555555571
002BFA00000000000000000014
002CF900000000000000000014
04EFF900046666666666640014
2FFFF900050000000000000014
5FFFF900050000000000000034
6FFFF900050004CCCCCCCCCCA0
6FFFF900050005FFFFFFFFF700
6FFFF900050005FFFFFFFE3000
6FFFF900050000000000043000
6FFFF900050000000000005000
6FFFF900050000000000005000
6FFFF900065555555540005000
6FFFF900050000000000005000
6FFFF900050000000000015000
6FFFF900050002666666671000
6FFFF900050005FFFFFFB10000
6FFFF900050005FFFFF9000000
6FFFF900050003AAAA95555550
6FFFF900050000000000000033
6FFFF900050000000000000014
6FFFF900050000000000000014
6FFFF900045555555555540014
6FFFF900000000000000000014
6FFFFA00000000000000000024
6FFFFE54444444444444444461
6FFFFFFFFFFFFFFFFFFFFFFB10
6FFFFFFFFFFFFFFFFFFFFF9000
5FFFFFFFFFFFFFFFFFFFF70000
1DFFFFFFFFFFFFFFFFFD400000
ENDCHAR
STARTCHAR eacute
ENCODING 233
SWIDTH 754 0
DWIDTH 27 0
BBX 26 39 1 -4
BITMAP
00000000000000000111111200
00000000011111111000000500
00000001500000000000000500
0000002C700000000024100500
000003DF700155556542000500
00005EFF700000000000000600
0004FFFF70000000013579B600
0008FFFFB23579BCEFFFFF5000
0009FFFFFFFFFFFFFFFFE30000
0009FE75555555555555555571
0009FA00000000000000000014
001CF900000000000000000014
03DFF900046666666666640014
2EFFF900050000000000000014
5FFFF900050000000000000034
6FFFF900050004CCCCCCCCCCA0
6FFFF900050005FFFFFFFFF700
6FFFF900050005FFFFFFFE3000
6FFFF900050000000000043000
6FFFF900050000000000005000
6FFFF900050000000000005000
6FFFF900065555555540005000
6FFFF900050000000000005000
6FFFF900050000000000015000
6FFFF900050002666666671000
6FFFF900050005FFFFFFB10000
6FFFF900050005FFFFF9000000
6FFFF900050003AAAA95555550
6FFFF900050000000000000033
6FFFF900050000000000000014
6FFFF900050000000000000014
6FFFF900045555555555540014
6FFFF900000000000000000014
6FFFFA00000000000000000024
6FFFFE54444444444444444461
6FFFFFFFFFFFFFFFFFFFFFFB10
6FFFFFFFFFFFFFFFFFFFFF9000
5FFFFFFFFFFFFFFFFFFFF70000
1DFFFFFFFFFFFFFFFFFD400000
ENDCHAR
STARTCHAR ecircumflex
ENCODING 234
SWIDTH 754 0
DWIDTH 27 0
BBX 26 40 1 -4
BITMAP
00000000000004555100000000
00000000003662000454000000
00000000563000000001451000
0000001A100004666100006000
000002DB000662000573003200
00004EFB000000000000003200
0006FFFB000000000000003200
002FFFFB000049CDA620003200
004FFFFD36AEFFFFFFFC847100
004FFFFFFFFFFFFFFFFFFF9000
004FFE75555555555555555571
004FFA00000000000000000014
007FF900000000000000000014
08FFF900046666666666640014
4FFFF900050000000000000014
6FFFF900050000000000000034
6FFFF900050004CCCCCCCCCCA0
6FFFF900050005FFFFFFFFF700
6FFFF900050005FFFFFFFE3000
6FFFF900050000000000043000
6FFFF900050000000000005000
6FFFF900050000000000005000
6FFFF900065555555540005000
6FFFF900050000000000005000
6FFFF900050000000000015000
6FFFF900050002666666671000
6FFFF900050005FFFFFFB10000
6FFFF900050005FFFFF9000000
6FFFF900050003AAAA95555550
6FFFF900050000000000000033
6FFFF900050000000000000014
6FFFF900050000000000000014
6FFFF900045555555555540014
6FFFF900000000000000000014
6FFFFA00000000000000000024
6FFFFE54444444444444444461
6FFFFFFFFFFFFFFFFFFFFFFB10
6FFFFFFFFFFFFFFFFFFFFF9000
5FFFFFFFFFFFFFFFFFFFF70000
1DFFFFFFFFFFFFFFFFFD400000
ENDCHAR
STARTCHAR edieresis
ENCODING 235
SWIDTH 754 0
DWIDTH 27 0
BBX 26 39 1 -4
BITMAP
00000005555555403555555500
000000A4000000679000000320
00001CF30000006F8000000240
0003DFF30041006F8000500240
004EFFF30031006F8000400240
00BFFFF30000006F8000000240
00CFFFF8222222BFC322222730
00CFFFFFFFFFFFFFFFFFFFFE10
00CFFE65555555555555553760
00CFFA00000000000000000011
00BFF900000000000000000014
008FF900000000000000000014
07FFF900046666666666640014
4FFFF900050000000000000014
6FFFF900050000000000000034
6FFFF900050004CCCCCCCCCCA0
6FFFF900050005FFFFFFFFF700
6FFFF900050005FFFFFFFE3000
6FFFF900050000000000043000
6FFFF900050000000000005000
6FFFF900050000000000005000
6FFFF900065555555540005000
6FFFF900050000000000005000
6FFFF900050000000000015000
6FFFF900050002666666671000
6FFFF900050005FFFFFFB10000
6FFFF900050005FFFFF9000000
6FFFF900050003AAAA95555550
6FFFF900050000000000000033
6FFFF900050000000000000014
6FFFF900050000000000000014
6FFFF900045555555555540014
6FFFF900000000000000000014
6FFFFA00000000000000000024
6FFFFE54444444444444444461
6FFFFFFFFFFFFFFFFFFFFFFB10
6FFFFFFFFFFFFFFFFFFFFF9000
5FFFFFFFFFFFFFFFFFFFF70000
1DFFFFFFFFFFFFFFFFFD400000
ENDCHAR
STARTCHAR igrave
ENCODING 236
SWIDTH 705 0
DWIDTH 25 0
BBX 24 39 1 -4
BITMAP
000000311111100000000000
000007700000011111111000
0000AF700000000000000400
001CFF700142000000000500
02DFFF700024565555100500
07FFFF800000000000000500
08FFFFFB8753100000000500
08FFFFFFFFFFFECB97532800
08FFFFFFFFFFFFFFFFFFE300
08FFF9555555555555555571
02AFF1000000000000000015
008FF1000000000000000005
1BFFF1004666667666640005
CFFFF1000000024000000005
EFFFF1000000024000000015
EFFFFB8887000240006888A1
EFFFFFFFFE00024000CFFC20
EFFFFFFFFE00024000CF9100
EFFFFFFFFE00024000C60000
6CCCCFFFFE00024000600000
00001FFFFE00024000500000
00001FFFFE00024000500000
00001FFFFE00024000500000
00001FFFFE00024000500000
00001FFFFE00024000500000
00001FFFFE00024000500000
00001FFFFE00024000500000
00001DAAA900024000655560
0001A2000000024000000024
002CF1000000024000000005
03DFF1000000024000000005
4EFFF1004555566555540005
DFFFF1000000000000000005
EFFFF1000000000000000015
EFFFF9444444444444444471
EFFFFFFFFFFFFFFFFFFFFC10
EFFFFFFFFFFFFFFFFFFFA000
EFFFFFFFFFFFFFFFFFF80000
8FFFFFFFFFFFFFFFFE500000
ENDCHAR
STARTCHAR iacute
ENCODING 237
SWIDTH 705 0
DWIDTH 25 0
BBX 24 39 1 -4
BITMAP
000000000000000111111200
000000011111111000000500
000000500000000000000500
00001C700000000024100500
0003DF700155566542000500
005EFF700000000000000600
04FFFF70000000013578B600
08FFFFB23579BCEFFFFF5000
08FFFFFFFFFFFFFFFFE30000
08FFF9555555555555555571
08FFF1000000000000000015
06FFF1000000000000000005
2CFFF1004666667666640005
CFFFF1000000024000000005
EFFFF1000000024000000015
EFFFFB8887000240006888A1
EFFFFFFFFE00024000CFFC20
EFFFFFFFFE00024000CF9100
EFFFFFFFFE00024000C60000
6CCCCFFFFE00024000600000
00001FFFFE00024000500000
00001FFFFE00024000500000
00001FFFFE00024000500000
00001FFFFE00024000500000
00001FFFFE00024000500000
00001FFFFE00024000500000
00001FFFFE00024000500000
00001DAAA900024000655560
0001A2000000024000000024
002CF1000000024000000005
03DFF1000000024000000005
4EFFF1004555566555540005
DFFFF1000000000000000005
EFFFF1000000000000000015
EFFFF9444444444444444471
EFFFFFFFFFFFFFFFFFFFFC10
EFFFFFFFFFFFFFFFFFFFA000
EFFFFFFFFFFFFFFFFFF80000
8FFFFFFFFFFFFFFFFE500000
ENDCHAR
STARTCHAR icircumflex
ENCODING 238
SWIDTH 705 0
DWIDTH 25 0
BBX 24 40 1 -4
BITMAP
000000000001555510000000
000000000465100155300000
000000165200000000255000
000002800001566510000600
00004E700276100167200500
0006FF700000000000000500
008FFF700000000000000500
05FFFF700015ADC951000500
08FFFFA37CFFFFFFFFB73700
08FFFFFFFFFFFFFFFFFFF500
08FFF9555555555555555571
08FFF1000000000000000015
07FFF1000000000000000005
2CFFF1004666667666640005
CFFFF1000000024000000005
EFFFF1000000024000000015
EFFFFB8887000240006888A1
EFFFFFFFFE00024000CFFC20
EFFFFFFFFE00024000CF9100
EFFFFFFFFE00024000C60000
6CCCCFFFFE00024000600000
00001FFFFE00024000500000
00001FFFFE00024000500000
00001FFFFE00024000500000
00001FFFFE00024000500000
00001FFFFE00024000500000
00001FFFFE00024000500000
00001FFFFE00024000500000
00001DAAA900024000655560
0001A2000000024000000024
002CF1000000024000000005
03DFF1000000024000000005
4EFFF1004555566555540005
DFFFF1000000000000000005
EFFFF1000000000000000015
EFFFF9444444444444444471
EFFFFFFFFFFFFFFFFFFFFC10
EFFFFFFFFFFFFFFFFFFFA000
EFFFFFFFFFFFFFFFFFF80000
8FFFFFFFFFFFFFFFFE500000
ENDCHAR
STARTCHAR idieresis
ENCODING 239
SWIDTH 705 0
DWIDTH 25 0
BBX 24 39 1 -4
BITMAP
000003555555601655555620
00005900000017C000000050
0007F90000000FE000000050
009FF90005000FE000500050
1BFFF90004000FE000400050
5FFFF90000001FE000000050
6FFFFD3222226FF422222380
6FFFFFFFFFFFFFFFFFFFFF50
6FFFF9555555555555555360
6FFFF1000000000000000021
6FFFF1000000000000000005
1BFFF1000000000000000005
3DFFF1004666667666640005
DFFFF1000000024000000005
EFFFF1000000024000000015
EFFFFB8887000240006888A1
EFFFFFFFFE00024000CFFC20
EFFFFFFFFE00024000CF9100
EFFFFFFFFE00024000C60000
6CCCCFFFFE00024000600000
00001FFFFE00024000500000
00001FFFFE00024000500000
00001FFFFE00024000500000
00001FFFFE00024000500000
00001FFFFE00024000500000
00001FFFFE00024000500000
00001FFFFE00024000500000
00001DAAA900024000655560
0001A2000000024000000024
002CF1000000024000000005
03DFF1000000024000000005
4EFFF1004555566555540005
DFFFF1000000000000000005
EFFFF1000000000000000015
EFFFF9444444444444444471
EFFFFFFFFFFFFFFFFFFFFC10
EFFFFFFFFFFFFFFFFFFFA000
EFFFFFFFFFFFFFFFFFF80000
8FFFFFFFFFFFFFFFFE500000
ENDCHAR
STARTCHAR eth
ENCODING 240
SWIDTH 856 0
DWIDTH 31 0
BBX 31 30 -1 -4
BITMAP
00000003655555555555555555300000
0000006F000000000000000000361000
00001AFF000000000000000000007200
0002CFFF000276666666666400000800
000DFFFF000230000000000272000420
000FFFFF000230000000000007000060
000FFFFF000230001111100003200060
000FFFFF00023000EFFFFB0001400050
000FFFFF00023000EFFFFF2000500050
000FFFFF00023000EFFFFF2000500050
000FFF2000023000007FFF2000500050
000FFD0000023000003FFF2000500050
00AFFD0005577553003FFF2000500050
0BFFFD0000023000003FFF2000500050
1FFFFD0000023000003FFF2000500050
2FFFFF2000023000007FFF2000500050
2FFFFFFF00023000EFFFFF2000500050
2FFFFFFF00023000CEFFFF1000500050
2FFFFFFF000230007BCCB70001400050
1EFFFFFF000230000000000003300050
037FFFFF000230000000000007000060
000FFFFF000230000000000173000430
000FFFFF000265555555556400000700
000FFFFF000000000000000000006200
000FFFFF000000000000000000283000
000FFFFF84444444444444568BC10000
000FFFFFFFFFFFFFFFFFFFFFFA000000
000FFFFFFFFFFFFFFFFFFFFF70000000
000FFFFFFFFFFFFFFFFFFFD400000000
0009FFFFFFFFFFFFFEEC940000000000
ENDCHAR
STARTCHAR ntilde
ENCODING 241
SWIDTH 853 0
DWIDTH 31 0
BBX 29 39 1 -4
BITMAP
000000000036655542000158100000
000000001840000024666731600000
00000002C300000000000000600000
0000003DF200000000000000600000
000004EFF200466666422000600000
00005FFFF200000000244000600000
0000CFFFF200000000000000400000
0000DFFFF201554200000003100000
0000DFFFFCCFFFFFFCA88A90000000
0000DE755568EFFFFFFF7555555700
0001EA0000002DFFFFFC0000000410
003DF900000002EDFFFC0000000420
05EFF9000660003CFFFC0005000420
3FFFF90005250004FFFC0005000420
6FFFF900050340005FFC0005000420
6FFFF9000500430005FC0005000420
6FFFF90005000520006B0005000420
6FFFF9000500006100040005000420
6FFFF9000500000710000005000420
6FFFF9000500000070000005000420
6FFFF9000500000016000005000420
6FFFF9000500010002600005000420
6FFFF9000500065000350005000420
6FFFF900050006F300034005000420
6FFFF900050006FD10004305000420
6FFFF900050006FFC0000525000420
6FFFF900050006FFF9000066000420
6FFFF900050006FFFF700009000420
6FFFF900050006FFFFF40005000420
6FFFF900050006FFFFFB0005000420
6FFFF900050006FFFFFC0005000420
6FFFF900030006FFFFFC0003000420
6FFFF900000005BFFFFC0000000420
6FFFFA000000054FFFFC0000000420
6FFFFE544444574FFFFF6444444800
6FFFFFFFFFFF904FFFFFFFFFFFB100
6FFFFFFFFFF7004FFFFFFFFFF80000
5FFFFFFFFE40003FFFFFFFFF600000
1DFFFFFFC200000CFFFFFFD3000000
ENDCHAR
STARTCHAR ograve
ENCODING 242
SWIDTH 837 0
DWIDTH 30 0
BBX 28 41 1 -5
BITMAP
0000000016753100000000000000
00000002C879BDEDB97531000000
0000003ED00000013579ACEA0000
000005EFC0002000000000053000
00007FFFC0004566665310014000
0001FFFFC0000000000230014000
0003FFFFE0000000000000014000
0003FFFFFC975420000000013000
0003FFFFFFFFFFFFDB9864210000
0002FFFFFEA64210001247A50000
0000BFFE71000000000000017500
000001A200000000000000000450
00001C3000004555555520000051
0003DB0000362000000047100005
004EF70002500000000000700006
04FFF50006000000000000150006
1EFFF400050002BEFEA100050005
5FFFF400050008FFFFF600050005
9FFFF400050009FFFFF700050005
BFFFF400050009FFFFF700050005
CFFFF400050008EFFFF700050005
CFFFF4000500059FFFF700050005
CFFFF4000500058FFFF700050005
CFFFF4000500058FFFF700050005
CFFFF4000500058FFFF700050005
CFFFF4000500058FFFF700050005
CFFFF4000500058FFFF700050005
CFFFF4000500058FFFF600050005
CFFFF400050003BFFFD100050005
CFFFF40006000001210000150005
CFFFF60002500000000000700006
CFFFFA0000362000000047100006
BFFFFF2000003555555520000042
9FFFFFB100000000000000000260
6FFFFFFC40000000000000005600
1EFFFFFFFC7310000000148D6000
08FFFFFFFFFFFEDCCCDEFFE40000
00BFFFFFFFFFFFFFFFFFFD200000
0008FFFFFFFFFFFFFFFF91000000
000028DFFFFFFFFFFE9300000000
0000000246777764200000000000
ENDCHAR
STARTCHAR oacute
ENCODING 243
SWIDTH 837 0
DWIDTH 30 0
BBX 28 41 1 -5
BITMAP
0000000000000000000235750000
0000000000024679BDECA87A2000
000000003CDCA864310000024000
00000005E2000000000010014000
0000007FD0002455566520014000
00000AFFC0003200000000014000
0000BFFFC0000000000000011000
0002FFFFD0000000002468700000
0003FFFFE32468ACEFFFFA100000
0003FFFFFEA64210001246650000
0003FFFE71000000000000017400
0002FFD200000000000000000450
00008F3000004555555520000052
0003EB0000362000000047100006
005EF70002500000000000700006
05FFF50006000000000000150006
1EFFF400050002BEFEA100050005
6FFFF400050008FFFFF600050005
9FFFF400050009FFFFF700050005
BFFFF400050009FFFFF700050005
CFFFF400050008EFFFF700050005
CFFFF4000500059FFFF700050005
CFFFF4000500058FFFF700050005
CFFFF4000500058FFFF700050005
CFFFF4000500058FFFF700050005
CFFFF4000500058FFFF700050005
CFFFF4000500058FFFF700050005
CFFFF4000500058FFFF600050005
CFFFF400050003BFFFD100050005
CFFFF40006000001210000150005
CFFFF60002500000000000700006
CFFFFA0000362000000047100006
BFFFFF2000003555555520000042
9FFFFFB100000000000000000260
6FFFFFFC40000000000000005600
1EFFFFFFFC7310000000148D6000
08FFFFFFFFFFFEDCCCDEFFE40000
00BFFFFFFFFFFFFFFFFFFD200000
0008FFFFFFFFFFFFFFFF91000000
000028DFFFFFFFFFFE9300000000
0000000246777764200000000000
ENDCHAR
STARTCHAR ocircumflex
ENCODING 244
SWIDTH 837 0
DWIDTH 30 0
BBX 28 41 1 -5
BITMAP
0000000000000045552000000000
0000000000035520003552000000
0000000004420000000003540000
00000001A1000046563000042000
0000003DD0006620003640014000
000005EFC0000000000000014000
00007FFFC0000014530000014000
0001FFFFD0027BFFFFEA51023000
0003FFFFFBDFFFFFFFFFFFC91000
0003FFFFFEA64210001247B61000
0003FFFE71000000000000017500
0002FFD200000000000000000460
0000AF3000004555555520000051
0003DB0000362000000047100005
005EF70002500000000000700006
04FFF50006000000000000150006
1EFFF400050002BEFEA100050005
6FFFF400050008FFFFF600050005
9FFFF400050009FFFFF700050005
BFFFF400050009FFFFF700050005
CFFFF400050008EFFFF700050005
CFFFF4000500059FFFF700050005
CFFFF4000500058FFFF700050005
CFFFF4000500058FFFF700050005
CFFFF4000500058FFFF700050005
CFFFF4000500058FFFF700050005
CFFFF4000500058FFFF700050005
CFFFF4000500058FFFF600050005
CFFFF400050003BFFFD100050005
CFFFF40006000001210000150005
CFFFF60002500000000000700006
CFFFFA0000362000000047100006
BFFFFF2000003555555520000042
9FFFFFB100000000000000000260
6FFFFFFC40000000000000005600
1EFFFFFFFC7310000000148D6000
08FFFFFFFFFFFEDCCCDEFFE40000
00BFFFFFFFFFFFFFFFFFFD200000
0008FFFFFFFFFFFFFFFF91000000
000028DFFFFFFFFFFE9300000000
0000000246777764200000000000
ENDCHAR
STARTCHAR otilde
ENCODING 245
SWIDTH 837 0
DWIDTH 30 0
BBX 28 40 1 -5
BITMAP
0000000000465555310002660000
0000000038200000256666242000
00000006D0000000000000024000
0000008FC0000000000000024000
00001BFFC0006666663210024000
0000CFFFC0000000013430024000
0002FFFFC0000000000000022000
0003FFFFD0025541000000150000
0003FFFFFBDFFFFFDB988B800000
0003FFFFFE953100000136661000
0002FFFD50000000000000006600
00007FC100004555555520000360
0003DF2000362000000047100042
005EFA0002500000000000700005
04FFF60006000000000000150005
1EFFF400050002BEFEA100050006
6FFFF400050008FFFFF600050005
9FFFF400050009FFFFF700050005
BFFFF400050009FFFFF700050005
CFFFF400050008EFFFF700050005
CFFFF4000500059FFFF700050005
CFFFF4000500058FFFF700050005
CFFFF4000500058FFFF700050005
CFFFF4000500058FFFF700050005
CFFFF4000500058FFFF700050005
CFFFF4000500058FFFF700050005
CFFFF4000500058FFFF600050005
CFFFF400050003BFFFD100050005
CFFFF40006000001210000150006
CFFFF50002500000000000700006
CFFFF90000362000000047100006
BFFFFE1000003555555520000034
9FFFFFA000000000000000000180
6FFFFFFB30000000000000004800
1EFFFFFFFC7310000000148C8000
08FFFFFFFFFFFEDCCCDEFFE50000
00BFFFFFFFFFFFFFFFFFFD300000
0008FFFFFFFFFFFFFFFFA1000000
000028DFFFFFFFFFFE9400000000
0000000246777764200000000000
ENDCHAR
STARTCHAR odieresis
ENCODING 246
SWIDTH 837 0
DWIDTH 30 0
BBX 28 40 1 -5
BITMAP
0000000165555562055555554000
0000002D10000006A50000006000
000004EF0000000AF40000005000
00007FFF0006000AF40032005000
0009FFFF0004000AF40021005000
000FFFFF0000000AF40000005000
001FFFFF3000001CF70000006000
001FFFFFFFFFFFFFEFFFFFFD3000
001FFFFFFE963100000136A71000
001FFFFE60000000000000017500
000DFFD200000000000000000360
00016E3000004555555520000051
0003DB0000362000000047100005
005EF70002500000000000700006
04FFF50006000000000000150006
1EFFF400050002BEFEA100050005
6FFFF400050008FFFFF600050005
9FFFF400050009FFFFF700050005
BFFFF400050009FFFFF700050005
CFFFF400050008EFFFF700050005
CFFFF4000500059FFFF700050005
CFFFF4000500058FFFF700050005
CFFFF4000500058FFFF700050005
CFFFF4000500058FFFF700050005
CFFFF4000500058FFFF700050005
CFFFF4000500058FFFF700050005
CFFFF4000500058FFFF600050005
CFFFF400050003BFFFD100050005
CFFFF40006000001210000150005
CFFFF60002500000000000700005
CFFFFA0000362000000047100006
BFFFFF2000003555555520000042
9FFFFFB100000000000000000260
6FFFFFFC40000000000000005600
1EFFFFFFFC7310000000148D6000
08FFFFFFFFFFFEDCCCDEFFE40000
00BFFFFFFFFFFFFFFFFFFD200000
0008FFFFFFFFFFFFFFFF91000000
000028DFFFFFFFFFFE9300000000
0000000246777764200000000000
ENDCHAR
STARTCHAR divide
ENCODING 247
SWIDTH 834 0
DWIDTH 30 0
BBX 28 28 1 -3
BITMAP
0000000000005666666640000000
00000000001B3000000060000000
0000000003DF2000000050000000
000000006FFF2000300050000000
00000007FFFF2000500050000000
0000000CFFFF2000000050000000
0000000DFFFF4000000060000000
0000000DFFFFECCCCCCB40000000
00000269AAAAAAAAAAA755555560
00003A0000000000000000000015
0005EA0000000000000000000005
006FFA0000000000000000000005
08FFFA0005555555555555540005
3FFFFA0000000000000000000005
5FFFFD3222222222222222222263
5FFFFFFFFFFFFFFFFFFFFFFFFF60
5FFFFFFFFFFFA5555555DFFFE400
5FFFFFFFFFFF300000007FFE3000
3FFFFFFFFFFF200000007FD20000
05888888BFFF2000300067100000
00000004FFFF2000500050000000
0000000CFFFF2000000050000000
0000000DFFFF2000000050000000
0000000DFFFFA444444560000000
0000000DFFFFFFFFFFF800000000
0000000DFFFFFFFFFE5000000000
0000000DFFFFFFFFD30000000000
00000007EFFFFFFB200000000000
ENDCHAR
STARTCHAR oslash
ENCODING 248
SWIDTH 837 0
DWIDTH 30 0
BBX 28 37 1 -7
BITMAP
0000000000000000000255555600
0000000000000000001700000240
000000000000000000A200000410
000000000002466667B000000600
0000000026652000000001001500
0000000640000000000015000610
0000028100004655555580000060
00003D2000562000000176400015
0006F90006200000000510430005
008FF60005000000000600060005
08FFF400330007DEA04200050005
2FFFF40042003FFF306000050005
7FFFF40042005FFC024000050005
AFFFF40042005FF6060000050005
BFFFF40042005FE1050220050005
CFFFF40042005F80510930050005
CFFFF40042005F20601E30050005
CFFFF40042005A03306F30050005
CFFFF4004200540600CF30050005
CFFFF4004200201504FF30050005
CFFFF400420000600AFF30050005
CFFFF400420000602FFF20050005
CFFFF400330005108FFE10060005
CFFFF40006000600BCA400060006
CFFFF60006203300000000540006
CFFFFA0000667000000026400006
BFFFFF2000018555555530000043
AFFFFFC100051000000000000270
7FFFFFFC00050000000000006800
3FFFFFF9000000000001359E7000
0CFFFFF3000002EEEEFFFFE40000
04FFFFE000000AFFFFFFFD300000
005FFFFECCCCDFFFFFFFA1000000
007FFFFFFFFFFFFFFE9300000000
00DFFFFFFF977764200000000000
01FFFFFFF6000000000000000000
0047777720000000000000000000
ENDCHAR
STARTCHAR ugrave
ENCODING 249
SWIDTH 846 0
DWIDTH 30 0
BBX 29 40 1 -5
BITMAP
000000002111111000000000000000
000000059000000111111110000000
0000007FA000000000000004000000
00000AFFA001420000000004100000
0000CFFFA000245666552004100000
0005FFFFB000000000001004100000
0005FFFFFC97531000000004100000
0005FFFFFFFFFFFFDB975328000000
0005FFFFFFFFFFFFFFFFFFF5000000
0005FD6555556CFFFFFE7555555600
0002F700000005FFFFFA0000000500
003DF700000005EFFFF90000000510
05EFF70003000514FFF90003000510
4FFFF7000500053EFFF90005000510
8FFFF7000500056FFFF90005000510
8FFFF7000500056FFFF90005000510
8FFFF7000500056FFFF90005000510
8FFFF7000500056FFFF90005000510
8FFFF7000500056FFFF90005000510
8FFFF7000500056FFFF90005000510
8FFFF7000500056FFFF90005000510
8FFFF7000500056FFFF90005000510
8FFFF7000500056FFFF90005000510
8FFFF7000500056FFFF90005000510
8FFFF7000500056FFFF90005000510
8FFFF7000500056FFFF90005000510
8FFFF7000500047FFFF90005000510
8FFFF7000500019FFFD30005000510
8FFFF7000510000011000006000500
8FFFF9000070000000000052000600
8FFFFC000027300000002630000600
8FFFFF300000355555553000002500
6FFFFFD10000000000000000018000
3FFFFFFD5000000000000000491000
0DFFFFFFFD8410000000137C900000
06FFFFFFFFFFFEDCCCDEFFF6000000
009FFFFFFFFFFFFFFFFFFE40000000
0007FFFFFFFFFFFFFFFFB200000000
000017DFFFFFFFFFFEA40000000000
000000024677776530000000000000
ENDCHAR
STARTCHAR uacute
ENCODING 250
SWIDTH 846 0
DWIDTH 30 0
BBX 29 40 1 -5
BITMAP
000000000000000000111111200000
000000000011111111000000500000
000000001500000000000000500000
00000002C600000000024100500000
0000004EF600155556542000500000
000006FFF600100000000000600000
00005FFFF60000000013579B500000
00009FFFFA23579BDEFFFFE4000000
0000AFFFFFFFFFFFFFFFFD30000000
0000AD6555556CFFFFFE7555555600
0001C700000005FFFFFA0000000500
003DF700000005533CF90000000510
05EFF70003000513DFF90003000510
4FFFF7000500053EFFF90005000510
8FFFF7000500056FFFF90005000510
8FFFF7000500056FFFF90005000510
8FFFF7000500056FFFF90005000510
8FFFF7000500056FFFF90005000510
8FFFF7000500056FFFF90005000510
8FFFF7000500056FFFF90005000510
8FFFF7000500056FFFF90005000510
8FFFF7000500056FFFF90005000510
8FFFF7000500056FFFF90005000510
8FFFF7000500056FFFF90005000510
8FFFF7000500056FFFF90005000510
8FFFF7000500056FFFF90005000510
8FFFF7000500047FFFF90005000510
8FFFF7000500019FFFD30005000510
8FFFF7000510000011000006000500
8FFFF9000070000000000052000600
8FFFFC000027300000002630000600
8FFFFF300000355555553000002500
6FFFFFD10000000000000000018000
3FFFFFFD5000000000000000491000
0DFFFFFFFD8410000000137C900000
06FFFFFFFFFFFEDCCCDEFFF6000000
009FFFFFFFFFFFFFFFFFFE40000000
0007FFFFFFFFFFFFFFFFB200000000
000017DFFFFFFFFFFEA40000000000
000000024677776530000000000000
ENDCHAR
STARTCHAR ucircumflex
ENCODING 251
SWIDTH 846 0
DWIDTH 30 0
BBX 29 41 1 -5
BITMAP
000000000000002555300000000000
000000000001342000243100000000
000000000122000000000221000000
000000006200003656400001300000
00000008F000462000255000500000
000000AFF000000000000000500000
00001BFFF000001575100000500000
0000BFFFF1037CFFFFFC7300600000
0000FFFFFCEFFFFFFFFFFFEC600000
0000FFFFFFFFFFFFFFFFFFFC100000
0000FD6555556CFFFFFE7555555600
0001F700000005FFFFFA0000000500
003DF70000000558DFF90000000510
05EFF70003000514EFF90003000510
4FFFF7000500053FFFF90005000510
8FFFF7000500056FFFF90005000510
8FFFF7000500056FFFF90005000510
8FFFF7000500056FFFF90005000510
8FFFF7000500056FFFF90005000510
8FFFF7000500056FFFF90005000510
8FFFF7000500056FFFF90005000510
8FFFF7000500056FFFF90005000510
8FFFF7000500056FFFF90005000510
8FFFF7000500056FFFF90005000510
8FFFF7000500056FFFF90005000510
8FFFF7000500056FFFF90005000510
8FFFF7000500056FFFF90005000510
8FFFF7000500047FFFF90005000510
8FFFF7000500009EFEC20005000510
8FFFF7000510000000000006000500
8FFFF9000070000000000052000600
8FFFFC000027300000002630000600
8FFFFF300000355555553000002500
6FFFFFD10000000000000000018000
3FFFFFFD5000000000000000491000
0DFFFFFFFD8410000000137C900000
06FFFFFFFFFFFEDCCCDEFFF6000000
009FFFFFFFFFFFFFFFFFFE40000000
0007FFFFFFFFFFFFFFFFB200000000
000017DFFFFFFFFFFEA40000000000
000000024677776530000000000000
ENDCHAR
STARTCHAR udieresis
ENCODING 252
SWIDTH 846 0
DWIDTH 30 0
BBX 29 40 1 -5
BITMAP
000000005555555404555555500000
0000001B3000000678000000420000
000002CF20000007F7000000330000
00003EFF20050007F7001500330000
0005FFFF20040007F7000300330000
000CFFFF20000007F7000000330000
000DFFFF20000007F7000000320000
000DFFFF7211112BFB211112600000
000DFFFFFFFFFFFFFFFFFFFD200000
000DFD6555556CFFFFFE7555555600
000DF700000005FFFFFA0000000500
009FF700000005FFFFF90000000510
1BFFF70003000524EFF90003000510
7FFFF7000500053EFFF90005000510
8FFFF7000500056FFFF90005000510
8FFFF7000500056FFFF90005000510
8FFFF7000500056FFFF90005000510
8FFFF7000500056FFFF90005000510
8FFFF7000500056FFFF90005000510
8FFFF7000500056FFFF90005000510
8FFFF7000500056FFFF90005000510
8FFFF7000500056FFFF90005000510
8FFFF7000500056FFFF90005000510
8FFFF7000500056FFFF90005000510
8FFFF7000500056FFFF90005000510
8FFFF7000500056FFFF90005000510
8FFFF7000500047FFFF90005000510
8FFFF7000500019FFFD30005000510
8FFFF7000510000011000006000500
8FFFF9000070000000000052000600
8FFFFC000027300000002630000600
8FFFFF300000355555553000002500
6FFFFFD10000000000000000018000
3FFFFFFD5000000000000000491000
0DFFFFFFFD8410000000137C900000
05FFFFFFFFFFFEDCCCDEFFF6000000
009FFFFFFFFFFFFFFFFFFE40000000
0006EFFFFFFFFFFFFFFFB200000000
000017DFFFFFFFFFFEA40000000000
000000024677776530000000000000
ENDCHAR
STARTCHAR yacute
ENCODING 253
SWIDTH 805 0
DWIDTH 29 0
BBX 29 39 0 -4
BITMAP
000000000000000000111111300000
000000000011111111000000500000
000000000510000000000000410000
00000001A900000000013200410000
0000002CF900055556542000410000
000003DFF900010000000000600000
00002EFFF90000000013468A800000
00006FFFFD23578ACEFFFFF7000000
00006FFFFFFFFFFFFFFFFE50000000
00006F7555556AFFFFFF9555555710
00009C00000002FFFFFE0000000240
001AFC000000028428FE0000000140
02CFFC0003000241AFFE0002100140
1DFFFC000500024BFFFE0004100140
3FFFFC000500024FFFFE0004100140
4FFFFC000500025FFFFE0004100140
4FFFFC000500025FFFFE0004100140
4FFFFC000510006FFFFC0005100240
4FFFFC000330006FFFF40006000230
4FFFFE000060000CFF900015000510
4FFFFF5000150002ED100060000700
4FFFFFD10004300010000510004300
3FFFFFFA0000610000003300015000
1FFFFFFF6000060000015000060000
0AFFFFFFF300025000160000610000
01EFFFFFFD10002676500004300000
004FFFFFFFB0000050000015000000
0008FFFFFFF7000050000060000000
0000BFFFFFFF400050000610000000
00001EFFFFFFA00050000600000000
000004FFFFFFA00050000500000000
0000007FFFFFA00030000500000000
0000000BFFFFA00000000500000000
00000006FFFFA00000000500000000
00000006FFFFE54444447200000000
00000006FFFFFFFFFFFD3000000000
00000006FFFFFFFFFFC10000000000
00000005FFFFFFFFF9000000000000
00000001DFFFFFFE60000000000000
ENDCHAR
STARTCHAR thorn
ENCODING 254
SWIDTH 792 0
DWIDTH 29 0
BBX 27 30 1 -4
BITMAP
0000065555555700000000000000
0000AA0000000320000000000000
001CF90000000320000000000000
03DFF90005000166666666500000
2EFFF90005000000000000164000
5FFFF90005000000000000004500
6FFFF90006555555555520000710
6FFFF90005000000000055000150
6FFFF90005000000000004300060
6FFFF90005000000000000600060
6FFFF900050004FFFE4000500050
6FFFF900050004FFFF9000500050
6FFFF900050004FFFFA000500050
6FFFF900050004FFFFA000500050
6FFFF900050004FFFF7000500050
6FFFF90005000277760000600050
6FFFF90005000000000003300060
6FFFF90005000000000045000060
6FFFF90006555555555520000520
6FFFF90005000000000000001600
6FFFF90005000000000000027000
6FFFF90005000000000136A70000
6FFFF900030003FFFFFFFF500000
6FFFF900000003FFFFFFE3000000
6FFFFA00000003FFFFFB20000000
6FFFFE5444444AFFEB5000000000
6FFFFFFFFFFFA432000000000000
6FFFFFFFFFF80000000000000000
5FFFFFFFFF500000000000000000
1DFFFFFFD3000000000000000000
ENDCHAR
STARTCHAR ydieresis
ENCODING 255
SWIDTH 805 0
DWIDTH 29 0
BBX 29 39 0 -4
BITMAP
000000004555555502655555600000
00000008700000056B000000150000
000001AF60000004FB000000050000
00001CFF60014004FB000500050000
0002DFFF60013004FB000400050000
0008FFFF60000004FB000000050000
0009FFFF60000004FB000000050000
0009FFFFA2111128FE311111430000
0009FFFFFFFFFFFFFFFFFFFE500000
0009FF7555556AFFFFFF9555555710
0009FC00000002FFFFFE0000000240
005EFC00000002FFFFFE0000000140
07FFFC0003000253CFFE0002100140
2FFFFC000500024BFFFE0004100140
4FFFFC000500024FFFFE0004100140
4FFFFC000500025FFFFE0004100140
4FFFFC000500025FFFFE0004100140
4FFFFC000510006FFFFC0005100240
4FFFFC000330006FFFF40006000230
4FFFFE000060000CFF900015000510
4FFFFF5000150002ED100060000700
3FFFFFD10004300010000510004300
2FFFFFFA0000610000003300015000
0EFFFFFF6000060000015000060000
08FFFFFFF300025000160000610000
01DFFFFFFD10002676500004300000
003FFFFFFFB0000050000015000000
0006FFFFFFF7000050000060000000
0000AFFFFFFF400050000610000000
00001DFFFFFFA00050000600000000
000003FFFFFFA00050000500000000
0000007FFFFFA00030000500000000
0000000BFFFFA00000000500000000
00000006FFFFA00000000500000000
00000006FFFFE54444447200000000
00000006FFFFFFFFFFFD3000000000
00000006FFFFFFFFFFC10000000000
00000005FFFFFFFFF9000000000000
00000001DFFFFFFE60000000000000
ENDCHAR
STARTCHAR Amacron
ENCODING 256
SWIDTH 830 0
DWIDTH 30 0
BBX 28 38 1 -4
BITMAP
0000000026666666666666650000
00000004B0000000000000042000
0000006FB0000000000000032000
000008FFB0005555555530032000
0000AFFFB0000000000000032000
0003FFFFE3222222222222271000
0004FFFFFFFFFFFFFFFFFFD30000
0004FFFFFF855555555555700000
0004FFFFFA000000000000240000
0004FFFFF4000000000000060000
00009CEFD0000000000000041000
000003EF70000666666300005000
00002EFF20006100000610006000
00008FFB00024000000160003300
0000EFF500060001100060000600
0005FFE10006000EF40024000500
000BFF900042004FF90006000140
002FFF400060009FFD0004200060
007FFE00015000EFFF3000600051
00DFF900060003FFFF8000510015
04FFF500060008FFFFC000240006
09FFF30006000000000000060006
1EFFF10015000000000000060006
5FFFF10014000000000000050006
9FFFF10018555555555555570006
CFFFF10014000000000000050006
DFFFF10014000000000000050006
EFFFF10014000555555200050006
EFFFF10014000FFFFFF500050006
EFFFF10014000FFFFFF500050006
EFFFF10013000FFFFFF500040006
EFFFF10000000FFFFFF500000006
EFFFF200000015AFFFF500000005
EFFFF944444482AFFFFC54444455
EFFFFFFFFFFE40AFFFFFFFFFFF60
EFFFFFFFFFC200AFFFFFFFFFE400
DFFFFFFFF900009FFFFFFFFD2000
8FFFFFFE6000004EFFFFFFB10000
ENDCHAR
STARTCHAR amacron
ENCODING 257
SWIDTH 830 0
DWIDTH 30 0
BBX 28 38 1 -4
BITMAP
0000000026666666666666650000
00000004B0000000000000042000
0000006FB0000000000000032000
000008FFB0005555555530032000
0000AFFFB0000000000000032000
0003FFFFE3222222222222271000
0004FFFFFFFFFFFFFFFFFFD30000
0004FFFFFF855555555555700000
0004FFFFFA000000000000240000
0004FFFFF4000000000000060000
00009CEFD0000000000000041000
000003EF70000666666300005000
00002EFF20006100000610006000
00008FFB00024000000160003300
0000EFF500060001100060000600
0005FFE10006000EF40024000500
000BFF900042004FF90006000140
002FFF400060009FFD0004200060
007FFE00015000EFFF3000600051
00DFF900060003FFFF8000510015
04FFF500060008FFFFC000240006
09FFF30006000000000000060006
1EFFF10015000000000000060006
5FFFF10014000000000000050006
9FFFF10018555555555555570006
CFFFF10014000000000000050006
DFFFF10014000000000000050006
EFFFF10014000555555200050006
EFFFF10014000FFFFFF500050006
EFFFF10014000FFFFFF500050006
EFFFF10013000FFFFFF500040006
EFFFF10000000FFFFFF500000006
EFFFF200000015AFFFF500000005
EFFFF944444482AFFFFC54444455
EFFFFFFFFFFE40AFFFFFFFFFFF60
EFFFFFFFFFC200AFFFFFFFFFE400
DFFFFFFFF900009FFFFFFFFD2000
8FFFFFFE6000004EFFFFFFB10000
ENDCHAR
STARTCHAR Abreve
ENCODING 258
SWIDTH 830 0
DWIDTH 30 0
BBX 28 40 1 -4
BITMAP
0000000045555520005555560000
0000000680000050097000015000
0000008F70010051BF5001005000
00000AFF70060002430015005000
0001CFFF80045000000181005000
0007FFFFA0002555555400013000
0008FFFFE1000000000000040000
0008FFFFF9000000000000220000
0007FFFFFFB40000000015200000
0004FFFFFFFFEB98889CC2000000
0000DFFFFFEBBBBBBBBBBB900000
00003EFFFC100000000000550000
0000019FF6000000000000080000
000002CFE1000666666300062000
00002EFF90006100000610017000
00008FFF30024000000160007000
0000EFFC00060001100060003400
0005FFF60006000EF40024000700
000BFFE10042004FF90006000610
002FFF900060009FFD0004200160
007FFF30015000EFFF3000600070
00DFFD00060003FFFF8000510042
04FFF800060008FFFFC000240016
09FFF50006000000000000060006
1EFFF20015000000000000060006
5FFFF10014000000000000050006
9FFFF10018555555555555570006
CFFFF10014000000000000050006
DFFFF10014000000000000050006
EFFFF10014000555555200050006
EFFFF10014000FFFFFF500050006
EFFFF10014000FFFFFF500050006
EFFFF10013000FFFFFF500040006
EFFFF10000000FFFFFF500000006
EFFFF100000015AFFFF500000006
EFFFF944444482AFFFFC54444456
EFFFFFFFFFFE40AFFFFFFFFFFF80
EFFFFFFFFFC200AFFFFFFFFFE500
DFFFFFFFF900009FFFFFFFFD3000
8FFFFFFE6000004EFFFFFFB10000
ENDCHAR
STARTCHAR abreve
ENCODING 259
SWIDTH 830 0
DWIDTH 30 0
BBX 28 40 1 -4
BITMAP
0000000045555520005555560000
0000000680000050097000015000
0000008F70010051BF5001005000
00000AFF70060002430015005000
0001CFFF80045000000181005000
0007FFFFA0002555555400013000
0008FFFFE1000000000000040000
0008FFFFF9000000000000220000
0007FFFFFFB40000000015200000
0004FFFFFFFFEB98889CC2000000
0000DFFFFFEBBBBBBBBBBB900000
00003EFFFC100000000000550000
0000019FF6000000000000080000
000002CFE1000666666300062000
00002EFF90006100000610017000
00008FFF30024000000160007000
0000EFFC00060001100060003400
0005FFF60006000EF40024000700
000BFFE10042004FF90006000610
002FFF900060009FFD0004200160
007FFF30015000EFFF3000600070
00DFFD00060003FFFF8000510042
04FFF800060008FFFFC000240016
09FFF50006000000000000060006
1EFFF20015000000000000060006
5FFFF10014000000000000050006
9FFFF10018555555555555570006
CFFFF10014000000000000050006
DFFFF10014000000000000050006
EFFFF10014000555555200050006
EFFFF10014000FFFFFF500050006
EFFFF10014000FFFFFF500050006
EFFFF10013000FFFFFF500040006
EFFFF10000000FFFFFF500000006
EFFFF100000015AFFFF500000006
EFFFF944444482AFFFFC54444456
EFFFFFFFFFFE40AFFFFFFFFFFF80
EFFFFFFFFFC200AFFFFFFFFFE500
DFFFFFFFF900009FFFFFFFFD3000
8FFFFFFE6000004EFFFFFFB10000
ENDCHAR
STARTCHAR Aogonek
ENCODING 260
SWIDTH 830 0
DWIDTH 30 0
BBX 28 37 1 -11
BITMAP
0000000004655555555555600000
000000007A000000000000240000
0000001AF4000000000000060000
000002CFD0000666666300042000
00002EFF70006100000610005000
00008FFF10024000000160006000
0000EFFA00060001100060002400
0005FFF40006000EF40024000600
000BFFD00042004FF90006000410
002FFF700060009FFD0004200050
007FFF20015000EFFF3000600060
00DFFC00060003FFFF8000510032
04FFF700060008FFFFC000240006
09FFF40006000000000000060006
1EFFF20015000000000000060006
5FFFF10014000000000000050006
9FFFF10018555555555555570006
CFFFF10014000000000000050006
DFFFF10014000000000000050006
EFFFF10014000555555200050006
EFFFF10014000FFFFFF500050006
EFFFF10014000FFFFFF500050006
EFFFF10013000FFFFFF500160006
EFFFF10000000FFFFFF500600006
EFFFF100000015AFFFF401500006
EFFFF944444482AFFFF103300455
EFFFFFFFFFFE40AFFFD005002400
EFFFFFFFFFC200AFFFB006003654
DFFFFFFFF90000BFFF9006000006
8FFFFFFE600000EFFF9003651006
00000000000002FFFFB000000006
00000000000005FFFFF300000006
00000000000006FFFFFE96555556
00000000000006FFFFFFFFFFFF90
00000000000003FFFFFFFFFFF600
00000000000000AFFFFFFFFE4000
0000000000000008DFFFFFC20000
ENDCHAR
STARTCHAR aogonek
ENCODING 261
SWIDTH 830 0
DWIDTH 30 0
BBX 28 37 1 -11
BITMAP
0000000004655555555555600000
000000007A000000000000240000
0000001AF4000000000000060000
000002CFD0000666666300042000
00002EFF70006100000610005000
00008FFF10024000000160006000
0000EFFA00060001100060002400
0005FFF40006000EF40024000600
000BFFD00042004FF90006000410
002FFF700060009FFD0004200050
007FFF20015000EFFF3000600060
00DFFC00060003FFFF8000510032
04FFF700060008FFFFC000240006
09FFF40006000000000000060006
1EFFF20015000000000000060006
5FFFF10014000000000000050006
9FFFF10018555555555555570006
CFFFF10014000000000000050006
DFFFF10014000000000000050006
EFFFF10014000555555200050006
EFFFF10014000FFFFFF500050006
EFFFF10014000FFFFFF500050006
EFFFF10013000FFFFFF500160006
EFFFF10000000FFFFFF500600006
EFFFF100000015AFFFF401500006
EFFFF944444482AFFFF103300455
EFFFFFFFFFFE40AFFFD005002400
EFFFFFFFFFC200AFFFB006003654
DFFFFFFFF90000BFFF9006000006
8FFFFFFE600000EFFF9003651006
00000000000002FFFFB000000006
00000000000005FFFFF300000006
00000000000006FFFFFE96555556
00000000000006FFFFFFFFFFFF90
00000000000003FFFFFFFFFFF600
00000000000000AFFFFFFFFE4000
0000000000000008DFFFFFC20000
ENDCHAR
STARTCHAR Cacute
ENCODING 262
SWIDTH 728 0
DWIDTH 26 0
BBX 25 39 1 -4
BITMAP
00000000000000000011111210
00000000001111111100000050
00000000330000000000000060
00000005E10000000002400060
0000007FF10035555653100060
000009FFF10010000000000060
0000AFFFF10000000024579B20
0000EFFFF624689BDFFFFFC200
0000EFFFFFFFFFFFFFFFFA1000
0000EFFFFFB876555555555630
0000EFFE710000000000000060
0000BFE2000000000000000060
00004E40000466666666500060
0006FC00008300000000000060
008FF700061000000000000060
06FFF500060000245555555740
1EFFF400050004FFFFFFFFF600
6FFFF400050008FFFFFFFD3000
9FFFF400050008FFFFFFB10000
BFFFF400050008FFFFE8000000
CFFFF400050005000000000000
CFFFF400050005000000000000
CFFFF400050005000000000000
CFFFF400050005000000000000
CFFFF400050005000000000000
CFFFF400050005000000000000
CFFFF400050005100000000000
CFFFF400050000655555555610
CFFFF500060000000000000060
CFFFF700061000000000000060
BFFFFB00007200000000000060
AFFFFF30000465555555500060
8FFFFFD1000000000000000060
4FFFFFFE500000000000000050
0DFFFFFFFEA755444444444620
05FFFFFFFFFFFFFFFFFFFFD300
008FFFFFFFFFFFFFFFFFFC1000
0006EFFFFFFFFFFFFFFFA00000
000016ADEFFFFFFFFFE7000000
ENDCHAR
STARTCHAR cacute
ENCODING 263
SWIDTH 728 0
DWIDTH 26 0
BBX 25 39 1 -4
BITMAP
00000000000000000011111210
00000000001111111100000050
00000000330000000000000060
00000005E10000000002400060
0000007FF10035555653100060
000009FFF10010000000000060
0000AFFFF10000000024579B20
0000EFFFF624689BDFFFFFC200
0000EFFFFFFFFFFFFFFFFA1000
0000EFFFFFB876555555555630
0000EFFE710000000000000060
0000BFE2000000000000000060
00004E40000466666666500060
0006FC00008300000000000060
008FF700061000000000000060
06FFF500060000245555555740
1EFFF400050004FFFFFFFFF600
6FFFF400050008FFFFFFFD3000
9FFFF400050008FFFFFFB10000
BFFFF400050008FFFFE8000000
CFFFF400050005000000000000
CFFFF400050005000000000000
CFFFF400050005000000000000
CFFFF400050005000000000000
CFFFF400050005000000000000
CFFFF400050005000000000000
CFFFF400050005100000000000
CFFFF400050000655555555610
CFFFF500060000000000000060
CFFFF700061000000000000060
BFFFFB00007200000000000060
AFFFFF30000465555555500060
8FFFFFD1000000000000000060
4FFFFFFE500000000000000050
0DFFFFFFFEA755444444444620
05FFFFFFFFFFFFFFFFFFFFD300
008FFFFFFFFFFFFFFFFFFC1000
0006EFFFFFFFFFFFFFFFA00000
000016ADEFFFFFFFFFE7000000
ENDCHAR
STARTCHAR Ccircumflex
ENCODING 264
SWIDTH 728 0
DWIDTH 26 0
BBX 25 40 1 -4
BITMAP
00000000000002556300000000
00000000001563000355100000
00000000354000000000453000
00000007400003666300003300
0000009F000574000475000500
00001BFF000000000000000500
0002DFFF000000000000000500
000CFFFF000037BDB730000500
000FFFFF459EFFFFFFFE954500
000FFFFFFFFFFFFFFFFFFFC100
000FFFFFFFB876555555555630
000FFFFE710000000000000060
000EFFE2000000000000000060
00025D40000466666666500060
0005EC00008300000000000060
007FF700061000000000000060
05FFF500060000245555555740
1EFFF400050004FFFFFFFFF600
5FFFF400050008FFFFFFFD3000
9FFFF400050008FFFFFFB10000
BFFFF400050008FFFFE8000000
CFFFF400050005000000000000
CFFFF400050005000000000000
CFFFF400050005000000000000
CFFFF400050005000000000000
CFFFF400050005000000000000
CFFFF400050005000000000000
CFFFF400050005100000000000
CFFFF400050000655555555610
CFFFF500060000000000000060
CFFFF700061000000000000060
BFFFFB00007200000000000060
AFFFFF30000465555555500060
8FFFFFD1000000000000000060
4FFFFFFE500000000000000050
0DFFFFFFFEA755444444444620
05FFFFFFFFFFFFFFFFFFFFD300
008FFFFFFFFFFFFFFFFFFC1000
0006EFFFFFFFFFFFFFFFA00000
000016ADEFFFFFFFFFE7000000
ENDCHAR
STARTCHAR ccircumflex
ENCODING 265
SWIDTH 728 0
DWIDTH 26 0
BBX 25 40 1 -4
BITMAP
00000000000002556300000000
00000000001563000355100000
00000000354000000000453000
00000007400003666300003300
0000009F000574000475000500
00001BFF000000000000000500
0002DFFF000000000000000500
000CFFFF000037BDB730000500
000FFFFF459EFFFFFFFE954500
000FFFFFFFFFFFFFFFFFFFC100
000FFFFFFFB876555555555630
000FFFFE710000000000000060
000EFFE2000000000000000060
00025D40000466666666500060
0005EC00008300000000000060
007FF700061000000000000060
05FFF500060000245555555740
1EFFF400050004FFFFFFFFF600
5FFFF400050008FFFFFFFD3000
9FFFF400050008FFFFFFB10000
BFFFF400050008FFFFE8000000
CFFFF400050005000000000000
CFFFF400050005000000000000
CFFFF400050005000000000000
CFFFF400050005000000000000
CFFFF400050005000000000000
CFFFF400050005000000000000
CFFFF400050005100000000000
CFFFF400050000655555555610
CFFFF500060000000000000060
CFFFF700061000000000000060
BFFFFB00007200000000000060
AFFFFF30000465555555500060
8FFFFFD1000000000000000060
4FFFFFFE500000000000000050
0DFFFFFFFEA755444444444620
05FFFFFFFFFFFFFFFFFFFFD300
008FFFFFFFFFFFFFFFFFFC1000
0006EFFFFFFFFFFFFFFFA00000
000016ADEFFFFFFFFFE7000000
ENDCHAR
ENDFONT
